%TF.GenerationSoftware,KiCad,Pcbnew,(6.0.4-0)*%
%TF.CreationDate,2022-04-13T18:08:54-07:00*%
%TF.ProjectId,TAU_REVG,5441555f-5245-4564-972e-6b696361645f,G*%
%TF.SameCoordinates,Original*%
%TF.FileFunction,Paste,Top*%
%TF.FilePolarity,Positive*%
%FSLAX46Y46*%
G04 Gerber Fmt 4.6, Leading zero omitted, Abs format (unit mm)*
G04 Created by KiCad (PCBNEW (6.0.4-0)) date 2022-04-13 18:08:54*
%MOMM*%
%LPD*%
G01*
G04 APERTURE LIST*
G04 Aperture macros list*
%AMRoundRect*
0 Rectangle with rounded corners*
0 $1 Rounding radius*
0 $2 $3 $4 $5 $6 $7 $8 $9 X,Y pos of 4 corners*
0 Add a 4 corners polygon primitive as box body*
4,1,4,$2,$3,$4,$5,$6,$7,$8,$9,$2,$3,0*
0 Add four circle primitives for the rounded corners*
1,1,$1+$1,$2,$3*
1,1,$1+$1,$4,$5*
1,1,$1+$1,$6,$7*
1,1,$1+$1,$8,$9*
0 Add four rect primitives between the rounded corners*
20,1,$1+$1,$2,$3,$4,$5,0*
20,1,$1+$1,$4,$5,$6,$7,0*
20,1,$1+$1,$6,$7,$8,$9,0*
20,1,$1+$1,$8,$9,$2,$3,0*%
G04 Aperture macros list end*
%ADD10RoundRect,0.250000X-0.262500X-0.450000X0.262500X-0.450000X0.262500X0.450000X-0.262500X0.450000X0*%
%ADD11R,1.270000X0.558800*%
%ADD12RoundRect,0.250000X0.262500X0.450000X-0.262500X0.450000X-0.262500X-0.450000X0.262500X-0.450000X0*%
%ADD13RoundRect,0.250000X-0.450000X0.262500X-0.450000X-0.262500X0.450000X-0.262500X0.450000X0.262500X0*%
%ADD14RoundRect,0.250000X-0.475000X0.250000X-0.475000X-0.250000X0.475000X-0.250000X0.475000X0.250000X0*%
%ADD15RoundRect,0.250000X0.250000X0.475000X-0.250000X0.475000X-0.250000X-0.475000X0.250000X-0.475000X0*%
%ADD16R,1.358900X0.279400*%
%ADD17RoundRect,0.250000X-0.250000X-0.475000X0.250000X-0.475000X0.250000X0.475000X-0.250000X0.475000X0*%
%ADD18RoundRect,0.250000X0.450000X-0.262500X0.450000X0.262500X-0.450000X0.262500X-0.450000X-0.262500X0*%
%ADD19RoundRect,0.218750X-0.218750X-0.381250X0.218750X-0.381250X0.218750X0.381250X-0.218750X0.381250X0*%
%ADD20RoundRect,0.250000X0.475000X-0.250000X0.475000X0.250000X-0.475000X0.250000X-0.475000X-0.250000X0*%
G04 APERTURE END LIST*
D10*
%TO.C,R0*%
X147212500Y-89650000D03*
X149037500Y-89650000D03*
%TD*%
D11*
%TO.C,U1*%
X127503700Y-103700000D03*
X127503700Y-102747500D03*
X127503700Y-101795000D03*
X125065300Y-101795000D03*
X125065300Y-103700000D03*
%TD*%
D12*
%TO.C,R5*%
X110625000Y-83275000D03*
X108800000Y-83275000D03*
%TD*%
D13*
%TO.C,R8*%
X118050000Y-57137500D03*
X118050000Y-58962500D03*
%TD*%
D14*
%TO.C,C6*%
X111275000Y-57100000D03*
X111275000Y-59000000D03*
%TD*%
%TO.C,C15*%
X114750000Y-101325000D03*
X114750000Y-103225000D03*
%TD*%
D15*
%TO.C,C8*%
X132475000Y-80975000D03*
X130575000Y-80975000D03*
%TD*%
D13*
%TO.C,R2*%
X131050000Y-111925000D03*
X131050000Y-113750000D03*
%TD*%
D10*
%TO.C,R7*%
X113537500Y-54600000D03*
X115362500Y-54600000D03*
%TD*%
D16*
%TO.C,U2*%
X145896550Y-94524999D03*
X145896550Y-95025001D03*
X145896550Y-95525000D03*
X145896550Y-96024999D03*
X145896550Y-96525001D03*
X150303450Y-96525001D03*
X150303450Y-96024999D03*
X150303450Y-95525000D03*
X150303450Y-95025001D03*
X150303450Y-94524999D03*
%TD*%
D14*
%TO.C,C16*%
X109650000Y-101250000D03*
X109650000Y-103150000D03*
%TD*%
D17*
%TO.C,C19*%
X97750000Y-70300000D03*
X99650000Y-70300000D03*
%TD*%
D14*
%TO.C,C17*%
X119825000Y-101525000D03*
X119825000Y-103425000D03*
%TD*%
D18*
%TO.C,R12*%
X136950000Y-84475000D03*
X136950000Y-82650000D03*
%TD*%
D15*
%TO.C,C10*%
X151575000Y-104975000D03*
X149675000Y-104975000D03*
%TD*%
D12*
%TO.C,R10*%
X132387500Y-85900000D03*
X130562500Y-85900000D03*
%TD*%
D17*
%TO.C,C2*%
X98000000Y-111425000D03*
X99900000Y-111425000D03*
%TD*%
D12*
%TO.C,R3*%
X100262500Y-107125000D03*
X98437500Y-107125000D03*
%TD*%
D19*
%TO.C,L1*%
X97812500Y-65025000D03*
X99937500Y-65025000D03*
%TD*%
D15*
%TO.C,C7*%
X149050000Y-86350000D03*
X147150000Y-86350000D03*
%TD*%
D17*
%TO.C,C13*%
X147500000Y-76375000D03*
X149400000Y-76375000D03*
%TD*%
%TO.C,C18*%
X97675000Y-75500000D03*
X99575000Y-75500000D03*
%TD*%
%TO.C,C12*%
X147350000Y-81150000D03*
X149250000Y-81150000D03*
%TD*%
D18*
%TO.C,R6*%
X107425000Y-88487500D03*
X107425000Y-86662500D03*
%TD*%
D17*
%TO.C,C14*%
X147575000Y-71575000D03*
X149475000Y-71575000D03*
%TD*%
%TO.C,C11*%
X164225000Y-105125000D03*
X166125000Y-105125000D03*
%TD*%
%TO.C,C1*%
X100125000Y-87750000D03*
X102025000Y-87750000D03*
%TD*%
D12*
%TO.C,R9*%
X132512500Y-91300000D03*
X130687500Y-91300000D03*
%TD*%
D13*
%TO.C,R11*%
X136700000Y-88962500D03*
X136700000Y-90787500D03*
%TD*%
D20*
%TO.C,C3*%
X125475000Y-114050000D03*
X125475000Y-112150000D03*
%TD*%
%TO.C,C5*%
X112275000Y-88525000D03*
X112275000Y-86625000D03*
%TD*%
D14*
%TO.C,C9*%
X140950000Y-86650000D03*
X140950000Y-88550000D03*
%TD*%
D10*
%TO.C,R4*%
X96037500Y-87775000D03*
X97862500Y-87775000D03*
%TD*%
D14*
%TO.C,C4*%
X121350000Y-112175000D03*
X121350000Y-114075000D03*
%TD*%
D12*
%TO.C,R1*%
X106237500Y-111425000D03*
X104412500Y-111425000D03*
%TD*%
D13*
%TO.C,R22*%
X159950000Y-90262500D03*
X159950000Y-92087500D03*
%TD*%
M02*
