%TF.GenerationSoftware,KiCad,Pcbnew,(6.0.4-0)*%
%TF.CreationDate,2022-04-13T18:08:54-07:00*%
%TF.ProjectId,TAU_REVG,5441555f-5245-4564-972e-6b696361645f,G*%
%TF.SameCoordinates,Original*%
%TF.FileFunction,Legend,Top*%
%TF.FilePolarity,Positive*%
%FSLAX46Y46*%
G04 Gerber Fmt 4.6, Leading zero omitted, Abs format (unit mm)*
G04 Created by KiCad (PCBNEW (6.0.4-0)) date 2022-04-13 18:08:54*
%MOMM*%
%LPD*%
G01*
G04 APERTURE LIST*
%ADD10C,0.150000*%
%ADD11C,0.120000*%
%ADD12C,0.100000*%
G04 APERTURE END LIST*
D10*
X109475000Y-68377380D02*
X109475000Y-68615476D01*
X109236904Y-68520238D02*
X109475000Y-68615476D01*
X109713095Y-68520238D01*
X109332142Y-68805952D02*
X109475000Y-68615476D01*
X109617857Y-68805952D01*
X124589285Y-51436904D02*
X123255952Y-49055952D01*
X122303571Y-51436904D02*
X122303571Y-46436904D01*
X123827380Y-46436904D01*
X124208333Y-46675000D01*
X124398809Y-46913095D01*
X124589285Y-47389285D01*
X124589285Y-48103571D01*
X124398809Y-48579761D01*
X124208333Y-48817857D01*
X123827380Y-49055952D01*
X122303571Y-49055952D01*
X125922619Y-46436904D02*
X128589285Y-51436904D01*
X128589285Y-46436904D02*
X125922619Y-51436904D01*
X132970238Y-51198809D02*
X133541666Y-51436904D01*
X134494047Y-51436904D01*
X134875000Y-51198809D01*
X135065476Y-50960714D01*
X135255952Y-50484523D01*
X135255952Y-50008333D01*
X135065476Y-49532142D01*
X134875000Y-49294047D01*
X134494047Y-49055952D01*
X133732142Y-48817857D01*
X133351190Y-48579761D01*
X133160714Y-48341666D01*
X132970238Y-47865476D01*
X132970238Y-47389285D01*
X133160714Y-46913095D01*
X133351190Y-46675000D01*
X133732142Y-46436904D01*
X134684523Y-46436904D01*
X135255952Y-46675000D01*
X136970238Y-51436904D02*
X136970238Y-46436904D01*
X138494047Y-46436904D01*
X138875000Y-46675000D01*
X139065476Y-46913095D01*
X139255952Y-47389285D01*
X139255952Y-48103571D01*
X139065476Y-48579761D01*
X138875000Y-48817857D01*
X138494047Y-49055952D01*
X136970238Y-49055952D01*
X143255952Y-51436904D02*
X141922619Y-49055952D01*
X140970238Y-51436904D02*
X140970238Y-46436904D01*
X142494047Y-46436904D01*
X142875000Y-46675000D01*
X143065476Y-46913095D01*
X143255952Y-47389285D01*
X143255952Y-48103571D01*
X143065476Y-48579761D01*
X142875000Y-48817857D01*
X142494047Y-49055952D01*
X140970238Y-49055952D01*
X144970238Y-51436904D02*
X144970238Y-46436904D01*
X146875000Y-51436904D02*
X146875000Y-46436904D01*
X149160714Y-51436904D01*
X149160714Y-46436904D01*
X153160714Y-46675000D02*
X152779761Y-46436904D01*
X152208333Y-46436904D01*
X151636904Y-46675000D01*
X151255952Y-47151190D01*
X151065476Y-47627380D01*
X150875000Y-48579761D01*
X150875000Y-49294047D01*
X151065476Y-50246428D01*
X151255952Y-50722619D01*
X151636904Y-51198809D01*
X152208333Y-51436904D01*
X152589285Y-51436904D01*
X153160714Y-51198809D01*
X153351190Y-50960714D01*
X153351190Y-49294047D01*
X152589285Y-49294047D01*
X157922619Y-46913095D02*
X158113095Y-46675000D01*
X158494047Y-46436904D01*
X159446428Y-46436904D01*
X159827380Y-46675000D01*
X160017857Y-46913095D01*
X160208333Y-47389285D01*
X160208333Y-47865476D01*
X160017857Y-48579761D01*
X157732142Y-51436904D01*
X160208333Y-51436904D01*
X162684523Y-46436904D02*
X163065476Y-46436904D01*
X163446428Y-46675000D01*
X163636904Y-46913095D01*
X163827380Y-47389285D01*
X164017857Y-48341666D01*
X164017857Y-49532142D01*
X163827380Y-50484523D01*
X163636904Y-50960714D01*
X163446428Y-51198809D01*
X163065476Y-51436904D01*
X162684523Y-51436904D01*
X162303571Y-51198809D01*
X162113095Y-50960714D01*
X161922619Y-50484523D01*
X161732142Y-49532142D01*
X161732142Y-48341666D01*
X161922619Y-47389285D01*
X162113095Y-46913095D01*
X162303571Y-46675000D01*
X162684523Y-46436904D01*
X165541666Y-46913095D02*
X165732142Y-46675000D01*
X166113095Y-46436904D01*
X167065476Y-46436904D01*
X167446428Y-46675000D01*
X167636904Y-46913095D01*
X167827380Y-47389285D01*
X167827380Y-47865476D01*
X167636904Y-48579761D01*
X165351190Y-51436904D01*
X167827380Y-51436904D01*
X169351190Y-46913095D02*
X169541666Y-46675000D01*
X169922619Y-46436904D01*
X170875000Y-46436904D01*
X171255952Y-46675000D01*
X171446428Y-46913095D01*
X171636904Y-47389285D01*
X171636904Y-47865476D01*
X171446428Y-48579761D01*
X169160714Y-51436904D01*
X171636904Y-51436904D01*
X133832142Y-53382142D02*
X135546428Y-53382142D01*
X134689285Y-56382142D02*
X134689285Y-53382142D01*
X136403571Y-55525000D02*
X137832142Y-55525000D01*
X136117857Y-56382142D02*
X137117857Y-53382142D01*
X138117857Y-56382142D01*
X139117857Y-53382142D02*
X139117857Y-55810714D01*
X139260714Y-56096428D01*
X139403571Y-56239285D01*
X139689285Y-56382142D01*
X140260714Y-56382142D01*
X140546428Y-56239285D01*
X140689285Y-56096428D01*
X140832142Y-55810714D01*
X140832142Y-53382142D01*
X146260714Y-56382142D02*
X145260714Y-54953571D01*
X144546428Y-56382142D02*
X144546428Y-53382142D01*
X145689285Y-53382142D01*
X145975000Y-53525000D01*
X146117857Y-53667857D01*
X146260714Y-53953571D01*
X146260714Y-54382142D01*
X146117857Y-54667857D01*
X145975000Y-54810714D01*
X145689285Y-54953571D01*
X144546428Y-54953571D01*
X147546428Y-54810714D02*
X148546428Y-54810714D01*
X148975000Y-56382142D02*
X147546428Y-56382142D01*
X147546428Y-53382142D01*
X148975000Y-53382142D01*
X149832142Y-53382142D02*
X150832142Y-56382142D01*
X151832142Y-53382142D01*
X156689285Y-53525000D02*
X156403571Y-53382142D01*
X155975000Y-53382142D01*
X155546428Y-53525000D01*
X155260714Y-53810714D01*
X155117857Y-54096428D01*
X154975000Y-54667857D01*
X154975000Y-55096428D01*
X155117857Y-55667857D01*
X155260714Y-55953571D01*
X155546428Y-56239285D01*
X155975000Y-56382142D01*
X156260714Y-56382142D01*
X156689285Y-56239285D01*
X156832142Y-56096428D01*
X156832142Y-55096428D01*
X156260714Y-55096428D01*
%TO.C,R0*%
X150658333Y-90202380D02*
X150325000Y-89726190D01*
X150086904Y-90202380D02*
X150086904Y-89202380D01*
X150467857Y-89202380D01*
X150563095Y-89250000D01*
X150610714Y-89297619D01*
X150658333Y-89392857D01*
X150658333Y-89535714D01*
X150610714Y-89630952D01*
X150563095Y-89678571D01*
X150467857Y-89726190D01*
X150086904Y-89726190D01*
X151277380Y-89202380D02*
X151372619Y-89202380D01*
X151467857Y-89250000D01*
X151515476Y-89297619D01*
X151563095Y-89392857D01*
X151610714Y-89583333D01*
X151610714Y-89821428D01*
X151563095Y-90011904D01*
X151515476Y-90107142D01*
X151467857Y-90154761D01*
X151372619Y-90202380D01*
X151277380Y-90202380D01*
X151182142Y-90154761D01*
X151134523Y-90107142D01*
X151086904Y-90011904D01*
X151039285Y-89821428D01*
X151039285Y-89583333D01*
X151086904Y-89392857D01*
X151134523Y-89297619D01*
X151182142Y-89250000D01*
X151277380Y-89202380D01*
%TO.C,U1*%
X128613095Y-99777380D02*
X128613095Y-100586904D01*
X128660714Y-100682142D01*
X128708333Y-100729761D01*
X128803571Y-100777380D01*
X128994047Y-100777380D01*
X129089285Y-100729761D01*
X129136904Y-100682142D01*
X129184523Y-100586904D01*
X129184523Y-99777380D01*
X130184523Y-100777380D02*
X129613095Y-100777380D01*
X129898809Y-100777380D02*
X129898809Y-99777380D01*
X129803571Y-99920238D01*
X129708333Y-100015476D01*
X129613095Y-100063095D01*
X124009523Y-106477380D02*
X123533333Y-106477380D01*
X123533333Y-105477380D01*
X124342857Y-106477380D02*
X124342857Y-105477380D01*
X124676190Y-106191666D01*
X125009523Y-105477380D01*
X125009523Y-106477380D01*
X125485714Y-106477380D02*
X125485714Y-105477380D01*
X125485714Y-105953571D02*
X126057142Y-105953571D01*
X126057142Y-106477380D02*
X126057142Y-105477380D01*
X126961904Y-105477380D02*
X126771428Y-105477380D01*
X126676190Y-105525000D01*
X126628571Y-105572619D01*
X126533333Y-105715476D01*
X126485714Y-105905952D01*
X126485714Y-106286904D01*
X126533333Y-106382142D01*
X126580952Y-106429761D01*
X126676190Y-106477380D01*
X126866666Y-106477380D01*
X126961904Y-106429761D01*
X127009523Y-106382142D01*
X127057142Y-106286904D01*
X127057142Y-106048809D01*
X127009523Y-105953571D01*
X126961904Y-105905952D01*
X126866666Y-105858333D01*
X126676190Y-105858333D01*
X126580952Y-105905952D01*
X126533333Y-105953571D01*
X126485714Y-106048809D01*
X127914285Y-105477380D02*
X127723809Y-105477380D01*
X127628571Y-105525000D01*
X127580952Y-105572619D01*
X127485714Y-105715476D01*
X127438095Y-105905952D01*
X127438095Y-106286904D01*
X127485714Y-106382142D01*
X127533333Y-106429761D01*
X127628571Y-106477380D01*
X127819047Y-106477380D01*
X127914285Y-106429761D01*
X127961904Y-106382142D01*
X128009523Y-106286904D01*
X128009523Y-106048809D01*
X127961904Y-105953571D01*
X127914285Y-105905952D01*
X127819047Y-105858333D01*
X127628571Y-105858333D01*
X127533333Y-105905952D01*
X127485714Y-105953571D01*
X127438095Y-106048809D01*
X128390476Y-105572619D02*
X128438095Y-105525000D01*
X128533333Y-105477380D01*
X128771428Y-105477380D01*
X128866666Y-105525000D01*
X128914285Y-105572619D01*
X128961904Y-105667857D01*
X128961904Y-105763095D01*
X128914285Y-105905952D01*
X128342857Y-106477380D01*
X128961904Y-106477380D01*
X129438095Y-106477380D02*
X129628571Y-106477380D01*
X129723809Y-106429761D01*
X129771428Y-106382142D01*
X129866666Y-106239285D01*
X129914285Y-106048809D01*
X129914285Y-105667857D01*
X129866666Y-105572619D01*
X129819047Y-105525000D01*
X129723809Y-105477380D01*
X129533333Y-105477380D01*
X129438095Y-105525000D01*
X129390476Y-105572619D01*
X129342857Y-105667857D01*
X129342857Y-105905952D01*
X129390476Y-106001190D01*
X129438095Y-106048809D01*
X129533333Y-106096428D01*
X129723809Y-106096428D01*
X129819047Y-106048809D01*
X129866666Y-106001190D01*
X129914285Y-105905952D01*
X130342857Y-106477380D02*
X130342857Y-105477380D01*
X130676190Y-106191666D01*
X131009523Y-105477380D01*
X131009523Y-106477380D01*
X131819047Y-105953571D02*
X131485714Y-105953571D01*
X131485714Y-106477380D02*
X131485714Y-105477380D01*
X131961904Y-105477380D01*
%TO.C,R5*%
X109608333Y-81977380D02*
X109275000Y-81501190D01*
X109036904Y-81977380D02*
X109036904Y-80977380D01*
X109417857Y-80977380D01*
X109513095Y-81025000D01*
X109560714Y-81072619D01*
X109608333Y-81167857D01*
X109608333Y-81310714D01*
X109560714Y-81405952D01*
X109513095Y-81453571D01*
X109417857Y-81501190D01*
X109036904Y-81501190D01*
X110513095Y-80977380D02*
X110036904Y-80977380D01*
X109989285Y-81453571D01*
X110036904Y-81405952D01*
X110132142Y-81358333D01*
X110370238Y-81358333D01*
X110465476Y-81405952D01*
X110513095Y-81453571D01*
X110560714Y-81548809D01*
X110560714Y-81786904D01*
X110513095Y-81882142D01*
X110465476Y-81929761D01*
X110370238Y-81977380D01*
X110132142Y-81977380D01*
X110036904Y-81929761D01*
X109989285Y-81882142D01*
%TO.C,R8*%
X117783333Y-61002380D02*
X117450000Y-60526190D01*
X117211904Y-61002380D02*
X117211904Y-60002380D01*
X117592857Y-60002380D01*
X117688095Y-60050000D01*
X117735714Y-60097619D01*
X117783333Y-60192857D01*
X117783333Y-60335714D01*
X117735714Y-60430952D01*
X117688095Y-60478571D01*
X117592857Y-60526190D01*
X117211904Y-60526190D01*
X118354761Y-60430952D02*
X118259523Y-60383333D01*
X118211904Y-60335714D01*
X118164285Y-60240476D01*
X118164285Y-60192857D01*
X118211904Y-60097619D01*
X118259523Y-60050000D01*
X118354761Y-60002380D01*
X118545238Y-60002380D01*
X118640476Y-60050000D01*
X118688095Y-60097619D01*
X118735714Y-60192857D01*
X118735714Y-60240476D01*
X118688095Y-60335714D01*
X118640476Y-60383333D01*
X118545238Y-60430952D01*
X118354761Y-60430952D01*
X118259523Y-60478571D01*
X118211904Y-60526190D01*
X118164285Y-60621428D01*
X118164285Y-60811904D01*
X118211904Y-60907142D01*
X118259523Y-60954761D01*
X118354761Y-61002380D01*
X118545238Y-61002380D01*
X118640476Y-60954761D01*
X118688095Y-60907142D01*
X118735714Y-60811904D01*
X118735714Y-60621428D01*
X118688095Y-60526190D01*
X118640476Y-60478571D01*
X118545238Y-60430952D01*
%TO.C,C6*%
X111008333Y-61057142D02*
X110960714Y-61104761D01*
X110817857Y-61152380D01*
X110722619Y-61152380D01*
X110579761Y-61104761D01*
X110484523Y-61009523D01*
X110436904Y-60914285D01*
X110389285Y-60723809D01*
X110389285Y-60580952D01*
X110436904Y-60390476D01*
X110484523Y-60295238D01*
X110579761Y-60200000D01*
X110722619Y-60152380D01*
X110817857Y-60152380D01*
X110960714Y-60200000D01*
X111008333Y-60247619D01*
X111865476Y-60152380D02*
X111675000Y-60152380D01*
X111579761Y-60200000D01*
X111532142Y-60247619D01*
X111436904Y-60390476D01*
X111389285Y-60580952D01*
X111389285Y-60961904D01*
X111436904Y-61057142D01*
X111484523Y-61104761D01*
X111579761Y-61152380D01*
X111770238Y-61152380D01*
X111865476Y-61104761D01*
X111913095Y-61057142D01*
X111960714Y-60961904D01*
X111960714Y-60723809D01*
X111913095Y-60628571D01*
X111865476Y-60580952D01*
X111770238Y-60533333D01*
X111579761Y-60533333D01*
X111484523Y-60580952D01*
X111436904Y-60628571D01*
X111389285Y-60723809D01*
%TO.C,ProbeGND1*%
X104045238Y-48077380D02*
X104045238Y-47077380D01*
X104426190Y-47077380D01*
X104521428Y-47125000D01*
X104569047Y-47172619D01*
X104616666Y-47267857D01*
X104616666Y-47410714D01*
X104569047Y-47505952D01*
X104521428Y-47553571D01*
X104426190Y-47601190D01*
X104045238Y-47601190D01*
X105045238Y-48077380D02*
X105045238Y-47410714D01*
X105045238Y-47601190D02*
X105092857Y-47505952D01*
X105140476Y-47458333D01*
X105235714Y-47410714D01*
X105330952Y-47410714D01*
X105807142Y-48077380D02*
X105711904Y-48029761D01*
X105664285Y-47982142D01*
X105616666Y-47886904D01*
X105616666Y-47601190D01*
X105664285Y-47505952D01*
X105711904Y-47458333D01*
X105807142Y-47410714D01*
X105950000Y-47410714D01*
X106045238Y-47458333D01*
X106092857Y-47505952D01*
X106140476Y-47601190D01*
X106140476Y-47886904D01*
X106092857Y-47982142D01*
X106045238Y-48029761D01*
X105950000Y-48077380D01*
X105807142Y-48077380D01*
X106569047Y-48077380D02*
X106569047Y-47077380D01*
X106569047Y-47458333D02*
X106664285Y-47410714D01*
X106854761Y-47410714D01*
X106950000Y-47458333D01*
X106997619Y-47505952D01*
X107045238Y-47601190D01*
X107045238Y-47886904D01*
X106997619Y-47982142D01*
X106950000Y-48029761D01*
X106854761Y-48077380D01*
X106664285Y-48077380D01*
X106569047Y-48029761D01*
X107854761Y-48029761D02*
X107759523Y-48077380D01*
X107569047Y-48077380D01*
X107473809Y-48029761D01*
X107426190Y-47934523D01*
X107426190Y-47553571D01*
X107473809Y-47458333D01*
X107569047Y-47410714D01*
X107759523Y-47410714D01*
X107854761Y-47458333D01*
X107902380Y-47553571D01*
X107902380Y-47648809D01*
X107426190Y-47744047D01*
X108854761Y-47125000D02*
X108759523Y-47077380D01*
X108616666Y-47077380D01*
X108473809Y-47125000D01*
X108378571Y-47220238D01*
X108330952Y-47315476D01*
X108283333Y-47505952D01*
X108283333Y-47648809D01*
X108330952Y-47839285D01*
X108378571Y-47934523D01*
X108473809Y-48029761D01*
X108616666Y-48077380D01*
X108711904Y-48077380D01*
X108854761Y-48029761D01*
X108902380Y-47982142D01*
X108902380Y-47648809D01*
X108711904Y-47648809D01*
X109330952Y-48077380D02*
X109330952Y-47077380D01*
X109902380Y-48077380D01*
X109902380Y-47077380D01*
X110378571Y-48077380D02*
X110378571Y-47077380D01*
X110616666Y-47077380D01*
X110759523Y-47125000D01*
X110854761Y-47220238D01*
X110902380Y-47315476D01*
X110950000Y-47505952D01*
X110950000Y-47648809D01*
X110902380Y-47839285D01*
X110854761Y-47934523D01*
X110759523Y-48029761D01*
X110616666Y-48077380D01*
X110378571Y-48077380D01*
X111902380Y-48077380D02*
X111330952Y-48077380D01*
X111616666Y-48077380D02*
X111616666Y-47077380D01*
X111521428Y-47220238D01*
X111426190Y-47315476D01*
X111330952Y-47363095D01*
%TO.C,C15*%
X114182142Y-100057142D02*
X114134523Y-100104761D01*
X113991666Y-100152380D01*
X113896428Y-100152380D01*
X113753571Y-100104761D01*
X113658333Y-100009523D01*
X113610714Y-99914285D01*
X113563095Y-99723809D01*
X113563095Y-99580952D01*
X113610714Y-99390476D01*
X113658333Y-99295238D01*
X113753571Y-99200000D01*
X113896428Y-99152380D01*
X113991666Y-99152380D01*
X114134523Y-99200000D01*
X114182142Y-99247619D01*
X115134523Y-100152380D02*
X114563095Y-100152380D01*
X114848809Y-100152380D02*
X114848809Y-99152380D01*
X114753571Y-99295238D01*
X114658333Y-99390476D01*
X114563095Y-99438095D01*
X116039285Y-99152380D02*
X115563095Y-99152380D01*
X115515476Y-99628571D01*
X115563095Y-99580952D01*
X115658333Y-99533333D01*
X115896428Y-99533333D01*
X115991666Y-99580952D01*
X116039285Y-99628571D01*
X116086904Y-99723809D01*
X116086904Y-99961904D01*
X116039285Y-100057142D01*
X115991666Y-100104761D01*
X115896428Y-100152380D01*
X115658333Y-100152380D01*
X115563095Y-100104761D01*
X115515476Y-100057142D01*
%TO.C,TP2*%
X102813095Y-102354380D02*
X103384523Y-102354380D01*
X103098809Y-103354380D02*
X103098809Y-102354380D01*
X103717857Y-103354380D02*
X103717857Y-102354380D01*
X104098809Y-102354380D01*
X104194047Y-102402000D01*
X104241666Y-102449619D01*
X104289285Y-102544857D01*
X104289285Y-102687714D01*
X104241666Y-102782952D01*
X104194047Y-102830571D01*
X104098809Y-102878190D01*
X103717857Y-102878190D01*
X104670238Y-102449619D02*
X104717857Y-102402000D01*
X104813095Y-102354380D01*
X105051190Y-102354380D01*
X105146428Y-102402000D01*
X105194047Y-102449619D01*
X105241666Y-102544857D01*
X105241666Y-102640095D01*
X105194047Y-102782952D01*
X104622619Y-103354380D01*
X105241666Y-103354380D01*
%TO.C,C8*%
X128408333Y-81357142D02*
X128360714Y-81404761D01*
X128217857Y-81452380D01*
X128122619Y-81452380D01*
X127979761Y-81404761D01*
X127884523Y-81309523D01*
X127836904Y-81214285D01*
X127789285Y-81023809D01*
X127789285Y-80880952D01*
X127836904Y-80690476D01*
X127884523Y-80595238D01*
X127979761Y-80500000D01*
X128122619Y-80452380D01*
X128217857Y-80452380D01*
X128360714Y-80500000D01*
X128408333Y-80547619D01*
X128979761Y-80880952D02*
X128884523Y-80833333D01*
X128836904Y-80785714D01*
X128789285Y-80690476D01*
X128789285Y-80642857D01*
X128836904Y-80547619D01*
X128884523Y-80500000D01*
X128979761Y-80452380D01*
X129170238Y-80452380D01*
X129265476Y-80500000D01*
X129313095Y-80547619D01*
X129360714Y-80642857D01*
X129360714Y-80690476D01*
X129313095Y-80785714D01*
X129265476Y-80833333D01*
X129170238Y-80880952D01*
X128979761Y-80880952D01*
X128884523Y-80928571D01*
X128836904Y-80976190D01*
X128789285Y-81071428D01*
X128789285Y-81261904D01*
X128836904Y-81357142D01*
X128884523Y-81404761D01*
X128979761Y-81452380D01*
X129170238Y-81452380D01*
X129265476Y-81404761D01*
X129313095Y-81357142D01*
X129360714Y-81261904D01*
X129360714Y-81071428D01*
X129313095Y-80976190D01*
X129265476Y-80928571D01*
X129170238Y-80880952D01*
%TO.C,R2*%
X130908333Y-115927380D02*
X130575000Y-115451190D01*
X130336904Y-115927380D02*
X130336904Y-114927380D01*
X130717857Y-114927380D01*
X130813095Y-114975000D01*
X130860714Y-115022619D01*
X130908333Y-115117857D01*
X130908333Y-115260714D01*
X130860714Y-115355952D01*
X130813095Y-115403571D01*
X130717857Y-115451190D01*
X130336904Y-115451190D01*
X131289285Y-115022619D02*
X131336904Y-114975000D01*
X131432142Y-114927380D01*
X131670238Y-114927380D01*
X131765476Y-114975000D01*
X131813095Y-115022619D01*
X131860714Y-115117857D01*
X131860714Y-115213095D01*
X131813095Y-115355952D01*
X131241666Y-115927380D01*
X131860714Y-115927380D01*
%TO.C,R7*%
X114283333Y-53402380D02*
X113950000Y-52926190D01*
X113711904Y-53402380D02*
X113711904Y-52402380D01*
X114092857Y-52402380D01*
X114188095Y-52450000D01*
X114235714Y-52497619D01*
X114283333Y-52592857D01*
X114283333Y-52735714D01*
X114235714Y-52830952D01*
X114188095Y-52878571D01*
X114092857Y-52926190D01*
X113711904Y-52926190D01*
X114616666Y-52402380D02*
X115283333Y-52402380D01*
X114854761Y-53402380D01*
%TO.C,U2*%
X147363095Y-92402380D02*
X147363095Y-93211904D01*
X147410714Y-93307142D01*
X147458333Y-93354761D01*
X147553571Y-93402380D01*
X147744047Y-93402380D01*
X147839285Y-93354761D01*
X147886904Y-93307142D01*
X147934523Y-93211904D01*
X147934523Y-92402380D01*
X148363095Y-92497619D02*
X148410714Y-92450000D01*
X148505952Y-92402380D01*
X148744047Y-92402380D01*
X148839285Y-92450000D01*
X148886904Y-92497619D01*
X148934523Y-92592857D01*
X148934523Y-92688095D01*
X148886904Y-92830952D01*
X148315476Y-93402380D01*
X148934523Y-93402380D01*
X145103571Y-98827380D02*
X145103571Y-97827380D01*
X145436904Y-98541666D01*
X145770238Y-97827380D01*
X145770238Y-98827380D01*
X146198809Y-98541666D02*
X146675000Y-98541666D01*
X146103571Y-98827380D02*
X146436904Y-97827380D01*
X146770238Y-98827380D01*
X147008333Y-97827380D02*
X147675000Y-98827380D01*
X147675000Y-97827380D02*
X147008333Y-98827380D01*
X147960714Y-97827380D02*
X148579761Y-97827380D01*
X148246428Y-98208333D01*
X148389285Y-98208333D01*
X148484523Y-98255952D01*
X148532142Y-98303571D01*
X148579761Y-98398809D01*
X148579761Y-98636904D01*
X148532142Y-98732142D01*
X148484523Y-98779761D01*
X148389285Y-98827380D01*
X148103571Y-98827380D01*
X148008333Y-98779761D01*
X147960714Y-98732142D01*
X148913095Y-97827380D02*
X149579761Y-97827380D01*
X149151190Y-98827380D01*
X150389285Y-98160714D02*
X150389285Y-98827380D01*
X150151190Y-97779761D02*
X149913095Y-98494047D01*
X150532142Y-98494047D01*
X150817857Y-97827380D02*
X151484523Y-97827380D01*
X151055952Y-98827380D01*
X151817857Y-98541666D02*
X152294047Y-98541666D01*
X151722619Y-98827380D02*
X152055952Y-97827380D01*
X152389285Y-98827380D01*
X145000000Y-93477380D02*
X145000000Y-93715476D01*
X144761904Y-93620238D02*
X145000000Y-93715476D01*
X145238095Y-93620238D01*
X144857142Y-93905952D02*
X145000000Y-93715476D01*
X145142857Y-93905952D01*
%TO.C,C16*%
X108707142Y-99907142D02*
X108659523Y-99954761D01*
X108516666Y-100002380D01*
X108421428Y-100002380D01*
X108278571Y-99954761D01*
X108183333Y-99859523D01*
X108135714Y-99764285D01*
X108088095Y-99573809D01*
X108088095Y-99430952D01*
X108135714Y-99240476D01*
X108183333Y-99145238D01*
X108278571Y-99050000D01*
X108421428Y-99002380D01*
X108516666Y-99002380D01*
X108659523Y-99050000D01*
X108707142Y-99097619D01*
X109659523Y-100002380D02*
X109088095Y-100002380D01*
X109373809Y-100002380D02*
X109373809Y-99002380D01*
X109278571Y-99145238D01*
X109183333Y-99240476D01*
X109088095Y-99288095D01*
X110516666Y-99002380D02*
X110326190Y-99002380D01*
X110230952Y-99050000D01*
X110183333Y-99097619D01*
X110088095Y-99240476D01*
X110040476Y-99430952D01*
X110040476Y-99811904D01*
X110088095Y-99907142D01*
X110135714Y-99954761D01*
X110230952Y-100002380D01*
X110421428Y-100002380D01*
X110516666Y-99954761D01*
X110564285Y-99907142D01*
X110611904Y-99811904D01*
X110611904Y-99573809D01*
X110564285Y-99478571D01*
X110516666Y-99430952D01*
X110421428Y-99383333D01*
X110230952Y-99383333D01*
X110135714Y-99430952D01*
X110088095Y-99478571D01*
X110040476Y-99573809D01*
%TO.C,C19*%
X94607142Y-70582142D02*
X94559523Y-70629761D01*
X94416666Y-70677380D01*
X94321428Y-70677380D01*
X94178571Y-70629761D01*
X94083333Y-70534523D01*
X94035714Y-70439285D01*
X93988095Y-70248809D01*
X93988095Y-70105952D01*
X94035714Y-69915476D01*
X94083333Y-69820238D01*
X94178571Y-69725000D01*
X94321428Y-69677380D01*
X94416666Y-69677380D01*
X94559523Y-69725000D01*
X94607142Y-69772619D01*
X95559523Y-70677380D02*
X94988095Y-70677380D01*
X95273809Y-70677380D02*
X95273809Y-69677380D01*
X95178571Y-69820238D01*
X95083333Y-69915476D01*
X94988095Y-69963095D01*
X96035714Y-70677380D02*
X96226190Y-70677380D01*
X96321428Y-70629761D01*
X96369047Y-70582142D01*
X96464285Y-70439285D01*
X96511904Y-70248809D01*
X96511904Y-69867857D01*
X96464285Y-69772619D01*
X96416666Y-69725000D01*
X96321428Y-69677380D01*
X96130952Y-69677380D01*
X96035714Y-69725000D01*
X95988095Y-69772619D01*
X95940476Y-69867857D01*
X95940476Y-70105952D01*
X95988095Y-70201190D01*
X96035714Y-70248809D01*
X96130952Y-70296428D01*
X96321428Y-70296428D01*
X96416666Y-70248809D01*
X96464285Y-70201190D01*
X96511904Y-70105952D01*
%TO.C,C17*%
X119232142Y-100232142D02*
X119184523Y-100279761D01*
X119041666Y-100327380D01*
X118946428Y-100327380D01*
X118803571Y-100279761D01*
X118708333Y-100184523D01*
X118660714Y-100089285D01*
X118613095Y-99898809D01*
X118613095Y-99755952D01*
X118660714Y-99565476D01*
X118708333Y-99470238D01*
X118803571Y-99375000D01*
X118946428Y-99327380D01*
X119041666Y-99327380D01*
X119184523Y-99375000D01*
X119232142Y-99422619D01*
X120184523Y-100327380D02*
X119613095Y-100327380D01*
X119898809Y-100327380D02*
X119898809Y-99327380D01*
X119803571Y-99470238D01*
X119708333Y-99565476D01*
X119613095Y-99613095D01*
X120517857Y-99327380D02*
X121184523Y-99327380D01*
X120755952Y-100327380D01*
%TO.C,U4*%
X121288095Y-73477380D02*
X121288095Y-74286904D01*
X121335714Y-74382142D01*
X121383333Y-74429761D01*
X121478571Y-74477380D01*
X121669047Y-74477380D01*
X121764285Y-74429761D01*
X121811904Y-74382142D01*
X121859523Y-74286904D01*
X121859523Y-73477380D01*
X122764285Y-73810714D02*
X122764285Y-74477380D01*
X122526190Y-73429761D02*
X122288095Y-74144047D01*
X122907142Y-74144047D01*
X116428571Y-79752380D02*
X115952380Y-79752380D01*
X115952380Y-78752380D01*
X116761904Y-79752380D02*
X116761904Y-78752380D01*
X117095238Y-79466666D01*
X117428571Y-78752380D01*
X117428571Y-79752380D01*
X117809523Y-78752380D02*
X118428571Y-78752380D01*
X118095238Y-79133333D01*
X118238095Y-79133333D01*
X118333333Y-79180952D01*
X118380952Y-79228571D01*
X118428571Y-79323809D01*
X118428571Y-79561904D01*
X118380952Y-79657142D01*
X118333333Y-79704761D01*
X118238095Y-79752380D01*
X117952380Y-79752380D01*
X117857142Y-79704761D01*
X117809523Y-79657142D01*
X119380952Y-79752380D02*
X118809523Y-79752380D01*
X119095238Y-79752380D02*
X119095238Y-78752380D01*
X119000000Y-78895238D01*
X118904761Y-78990476D01*
X118809523Y-79038095D01*
X119714285Y-78752380D02*
X120380952Y-78752380D01*
X119952380Y-79752380D01*
X120619047Y-78752380D02*
X121190476Y-78752380D01*
X120904761Y-79752380D02*
X120904761Y-78752380D01*
X109525000Y-75977380D02*
X109525000Y-76215476D01*
X109286904Y-76120238D02*
X109525000Y-76215476D01*
X109763095Y-76120238D01*
X109382142Y-76405952D02*
X109525000Y-76215476D01*
X109667857Y-76405952D01*
%TO.C,R12*%
X136432142Y-81652380D02*
X136098809Y-81176190D01*
X135860714Y-81652380D02*
X135860714Y-80652380D01*
X136241666Y-80652380D01*
X136336904Y-80700000D01*
X136384523Y-80747619D01*
X136432142Y-80842857D01*
X136432142Y-80985714D01*
X136384523Y-81080952D01*
X136336904Y-81128571D01*
X136241666Y-81176190D01*
X135860714Y-81176190D01*
X137384523Y-81652380D02*
X136813095Y-81652380D01*
X137098809Y-81652380D02*
X137098809Y-80652380D01*
X137003571Y-80795238D01*
X136908333Y-80890476D01*
X136813095Y-80938095D01*
X137765476Y-80747619D02*
X137813095Y-80700000D01*
X137908333Y-80652380D01*
X138146428Y-80652380D01*
X138241666Y-80700000D01*
X138289285Y-80747619D01*
X138336904Y-80842857D01*
X138336904Y-80938095D01*
X138289285Y-81080952D01*
X137717857Y-81652380D01*
X138336904Y-81652380D01*
%TO.C,C10*%
X150082142Y-103507142D02*
X150034523Y-103554761D01*
X149891666Y-103602380D01*
X149796428Y-103602380D01*
X149653571Y-103554761D01*
X149558333Y-103459523D01*
X149510714Y-103364285D01*
X149463095Y-103173809D01*
X149463095Y-103030952D01*
X149510714Y-102840476D01*
X149558333Y-102745238D01*
X149653571Y-102650000D01*
X149796428Y-102602380D01*
X149891666Y-102602380D01*
X150034523Y-102650000D01*
X150082142Y-102697619D01*
X151034523Y-103602380D02*
X150463095Y-103602380D01*
X150748809Y-103602380D02*
X150748809Y-102602380D01*
X150653571Y-102745238D01*
X150558333Y-102840476D01*
X150463095Y-102888095D01*
X151653571Y-102602380D02*
X151748809Y-102602380D01*
X151844047Y-102650000D01*
X151891666Y-102697619D01*
X151939285Y-102792857D01*
X151986904Y-102983333D01*
X151986904Y-103221428D01*
X151939285Y-103411904D01*
X151891666Y-103507142D01*
X151844047Y-103554761D01*
X151748809Y-103602380D01*
X151653571Y-103602380D01*
X151558333Y-103554761D01*
X151510714Y-103507142D01*
X151463095Y-103411904D01*
X151415476Y-103221428D01*
X151415476Y-102983333D01*
X151463095Y-102792857D01*
X151510714Y-102697619D01*
X151558333Y-102650000D01*
X151653571Y-102602380D01*
%TO.C,R10*%
X127582142Y-86452380D02*
X127248809Y-85976190D01*
X127010714Y-86452380D02*
X127010714Y-85452380D01*
X127391666Y-85452380D01*
X127486904Y-85500000D01*
X127534523Y-85547619D01*
X127582142Y-85642857D01*
X127582142Y-85785714D01*
X127534523Y-85880952D01*
X127486904Y-85928571D01*
X127391666Y-85976190D01*
X127010714Y-85976190D01*
X128534523Y-86452380D02*
X127963095Y-86452380D01*
X128248809Y-86452380D02*
X128248809Y-85452380D01*
X128153571Y-85595238D01*
X128058333Y-85690476D01*
X127963095Y-85738095D01*
X129153571Y-85452380D02*
X129248809Y-85452380D01*
X129344047Y-85500000D01*
X129391666Y-85547619D01*
X129439285Y-85642857D01*
X129486904Y-85833333D01*
X129486904Y-86071428D01*
X129439285Y-86261904D01*
X129391666Y-86357142D01*
X129344047Y-86404761D01*
X129248809Y-86452380D01*
X129153571Y-86452380D01*
X129058333Y-86404761D01*
X129010714Y-86357142D01*
X128963095Y-86261904D01*
X128915476Y-86071428D01*
X128915476Y-85833333D01*
X128963095Y-85642857D01*
X129010714Y-85547619D01*
X129058333Y-85500000D01*
X129153571Y-85452380D01*
%TO.C,D1*%
X98122180Y-95547104D02*
X98122180Y-94547104D01*
X98360276Y-94547104D01*
X98503133Y-94594724D01*
X98598371Y-94689962D01*
X98645990Y-94785200D01*
X98693609Y-94975676D01*
X98693609Y-95118533D01*
X98645990Y-95309009D01*
X98598371Y-95404247D01*
X98503133Y-95499485D01*
X98360276Y-95547104D01*
X98122180Y-95547104D01*
X99645990Y-95547104D02*
X99074561Y-95547104D01*
X99360276Y-95547104D02*
X99360276Y-94547104D01*
X99265037Y-94689962D01*
X99169799Y-94785200D01*
X99074561Y-94832819D01*
%TO.C,C2*%
X98683333Y-114882142D02*
X98635714Y-114929761D01*
X98492857Y-114977380D01*
X98397619Y-114977380D01*
X98254761Y-114929761D01*
X98159523Y-114834523D01*
X98111904Y-114739285D01*
X98064285Y-114548809D01*
X98064285Y-114405952D01*
X98111904Y-114215476D01*
X98159523Y-114120238D01*
X98254761Y-114025000D01*
X98397619Y-113977380D01*
X98492857Y-113977380D01*
X98635714Y-114025000D01*
X98683333Y-114072619D01*
X99064285Y-114072619D02*
X99111904Y-114025000D01*
X99207142Y-113977380D01*
X99445238Y-113977380D01*
X99540476Y-114025000D01*
X99588095Y-114072619D01*
X99635714Y-114167857D01*
X99635714Y-114263095D01*
X99588095Y-114405952D01*
X99016666Y-114977380D01*
X99635714Y-114977380D01*
%TO.C,R3*%
X99183333Y-109227380D02*
X98850000Y-108751190D01*
X98611904Y-109227380D02*
X98611904Y-108227380D01*
X98992857Y-108227380D01*
X99088095Y-108275000D01*
X99135714Y-108322619D01*
X99183333Y-108417857D01*
X99183333Y-108560714D01*
X99135714Y-108655952D01*
X99088095Y-108703571D01*
X98992857Y-108751190D01*
X98611904Y-108751190D01*
X99516666Y-108227380D02*
X100135714Y-108227380D01*
X99802380Y-108608333D01*
X99945238Y-108608333D01*
X100040476Y-108655952D01*
X100088095Y-108703571D01*
X100135714Y-108798809D01*
X100135714Y-109036904D01*
X100088095Y-109132142D01*
X100040476Y-109179761D01*
X99945238Y-109227380D01*
X99659523Y-109227380D01*
X99564285Y-109179761D01*
X99516666Y-109132142D01*
%TO.C,TP4*%
X140263095Y-75429380D02*
X140834523Y-75429380D01*
X140548809Y-76429380D02*
X140548809Y-75429380D01*
X141167857Y-76429380D02*
X141167857Y-75429380D01*
X141548809Y-75429380D01*
X141644047Y-75477000D01*
X141691666Y-75524619D01*
X141739285Y-75619857D01*
X141739285Y-75762714D01*
X141691666Y-75857952D01*
X141644047Y-75905571D01*
X141548809Y-75953190D01*
X141167857Y-75953190D01*
X142596428Y-75762714D02*
X142596428Y-76429380D01*
X142358333Y-75381761D02*
X142120238Y-76096047D01*
X142739285Y-76096047D01*
%TO.C,TP1*%
X133188095Y-93927380D02*
X133759523Y-93927380D01*
X133473809Y-94927380D02*
X133473809Y-93927380D01*
X134092857Y-94927380D02*
X134092857Y-93927380D01*
X134473809Y-93927380D01*
X134569047Y-93975000D01*
X134616666Y-94022619D01*
X134664285Y-94117857D01*
X134664285Y-94260714D01*
X134616666Y-94355952D01*
X134569047Y-94403571D01*
X134473809Y-94451190D01*
X134092857Y-94451190D01*
X135616666Y-94927380D02*
X135045238Y-94927380D01*
X135330952Y-94927380D02*
X135330952Y-93927380D01*
X135235714Y-94070238D01*
X135140476Y-94165476D01*
X135045238Y-94213095D01*
%TO.C,L1*%
X95883333Y-65302380D02*
X95407142Y-65302380D01*
X95407142Y-64302380D01*
X96740476Y-65302380D02*
X96169047Y-65302380D01*
X96454761Y-65302380D02*
X96454761Y-64302380D01*
X96359523Y-64445238D01*
X96264285Y-64540476D01*
X96169047Y-64588095D01*
%TO.C,C7*%
X150758333Y-86832142D02*
X150710714Y-86879761D01*
X150567857Y-86927380D01*
X150472619Y-86927380D01*
X150329761Y-86879761D01*
X150234523Y-86784523D01*
X150186904Y-86689285D01*
X150139285Y-86498809D01*
X150139285Y-86355952D01*
X150186904Y-86165476D01*
X150234523Y-86070238D01*
X150329761Y-85975000D01*
X150472619Y-85927380D01*
X150567857Y-85927380D01*
X150710714Y-85975000D01*
X150758333Y-86022619D01*
X151091666Y-85927380D02*
X151758333Y-85927380D01*
X151329761Y-86927380D01*
%TO.C,J3*%
X144391666Y-107777380D02*
X144391666Y-108491666D01*
X144344047Y-108634523D01*
X144248809Y-108729761D01*
X144105952Y-108777380D01*
X144010714Y-108777380D01*
X144772619Y-107777380D02*
X145391666Y-107777380D01*
X145058333Y-108158333D01*
X145201190Y-108158333D01*
X145296428Y-108205952D01*
X145344047Y-108253571D01*
X145391666Y-108348809D01*
X145391666Y-108586904D01*
X145344047Y-108682142D01*
X145296428Y-108729761D01*
X145201190Y-108777380D01*
X144915476Y-108777380D01*
X144820238Y-108729761D01*
X144772619Y-108682142D01*
%TO.C,C13*%
X150957142Y-76632142D02*
X150909523Y-76679761D01*
X150766666Y-76727380D01*
X150671428Y-76727380D01*
X150528571Y-76679761D01*
X150433333Y-76584523D01*
X150385714Y-76489285D01*
X150338095Y-76298809D01*
X150338095Y-76155952D01*
X150385714Y-75965476D01*
X150433333Y-75870238D01*
X150528571Y-75775000D01*
X150671428Y-75727380D01*
X150766666Y-75727380D01*
X150909523Y-75775000D01*
X150957142Y-75822619D01*
X151909523Y-76727380D02*
X151338095Y-76727380D01*
X151623809Y-76727380D02*
X151623809Y-75727380D01*
X151528571Y-75870238D01*
X151433333Y-75965476D01*
X151338095Y-76013095D01*
X152242857Y-75727380D02*
X152861904Y-75727380D01*
X152528571Y-76108333D01*
X152671428Y-76108333D01*
X152766666Y-76155952D01*
X152814285Y-76203571D01*
X152861904Y-76298809D01*
X152861904Y-76536904D01*
X152814285Y-76632142D01*
X152766666Y-76679761D01*
X152671428Y-76727380D01*
X152385714Y-76727380D01*
X152290476Y-76679761D01*
X152242857Y-76632142D01*
%TO.C,TP3*%
X114613095Y-110804380D02*
X115184523Y-110804380D01*
X114898809Y-111804380D02*
X114898809Y-110804380D01*
X115517857Y-111804380D02*
X115517857Y-110804380D01*
X115898809Y-110804380D01*
X115994047Y-110852000D01*
X116041666Y-110899619D01*
X116089285Y-110994857D01*
X116089285Y-111137714D01*
X116041666Y-111232952D01*
X115994047Y-111280571D01*
X115898809Y-111328190D01*
X115517857Y-111328190D01*
X116422619Y-110804380D02*
X117041666Y-110804380D01*
X116708333Y-111185333D01*
X116851190Y-111185333D01*
X116946428Y-111232952D01*
X116994047Y-111280571D01*
X117041666Y-111375809D01*
X117041666Y-111613904D01*
X116994047Y-111709142D01*
X116946428Y-111756761D01*
X116851190Y-111804380D01*
X116565476Y-111804380D01*
X116470238Y-111756761D01*
X116422619Y-111709142D01*
%TO.C,C18*%
X94507142Y-75832142D02*
X94459523Y-75879761D01*
X94316666Y-75927380D01*
X94221428Y-75927380D01*
X94078571Y-75879761D01*
X93983333Y-75784523D01*
X93935714Y-75689285D01*
X93888095Y-75498809D01*
X93888095Y-75355952D01*
X93935714Y-75165476D01*
X93983333Y-75070238D01*
X94078571Y-74975000D01*
X94221428Y-74927380D01*
X94316666Y-74927380D01*
X94459523Y-74975000D01*
X94507142Y-75022619D01*
X95459523Y-75927380D02*
X94888095Y-75927380D01*
X95173809Y-75927380D02*
X95173809Y-74927380D01*
X95078571Y-75070238D01*
X94983333Y-75165476D01*
X94888095Y-75213095D01*
X96030952Y-75355952D02*
X95935714Y-75308333D01*
X95888095Y-75260714D01*
X95840476Y-75165476D01*
X95840476Y-75117857D01*
X95888095Y-75022619D01*
X95935714Y-74975000D01*
X96030952Y-74927380D01*
X96221428Y-74927380D01*
X96316666Y-74975000D01*
X96364285Y-75022619D01*
X96411904Y-75117857D01*
X96411904Y-75165476D01*
X96364285Y-75260714D01*
X96316666Y-75308333D01*
X96221428Y-75355952D01*
X96030952Y-75355952D01*
X95935714Y-75403571D01*
X95888095Y-75451190D01*
X95840476Y-75546428D01*
X95840476Y-75736904D01*
X95888095Y-75832142D01*
X95935714Y-75879761D01*
X96030952Y-75927380D01*
X96221428Y-75927380D01*
X96316666Y-75879761D01*
X96364285Y-75832142D01*
X96411904Y-75736904D01*
X96411904Y-75546428D01*
X96364285Y-75451190D01*
X96316666Y-75403571D01*
X96221428Y-75355952D01*
%TO.C,TP7*%
X165063095Y-84004380D02*
X165634523Y-84004380D01*
X165348809Y-85004380D02*
X165348809Y-84004380D01*
X165967857Y-85004380D02*
X165967857Y-84004380D01*
X166348809Y-84004380D01*
X166444047Y-84052000D01*
X166491666Y-84099619D01*
X166539285Y-84194857D01*
X166539285Y-84337714D01*
X166491666Y-84432952D01*
X166444047Y-84480571D01*
X166348809Y-84528190D01*
X165967857Y-84528190D01*
X166872619Y-84004380D02*
X167539285Y-84004380D01*
X167110714Y-85004380D01*
%TO.C,C12*%
X150982142Y-81532142D02*
X150934523Y-81579761D01*
X150791666Y-81627380D01*
X150696428Y-81627380D01*
X150553571Y-81579761D01*
X150458333Y-81484523D01*
X150410714Y-81389285D01*
X150363095Y-81198809D01*
X150363095Y-81055952D01*
X150410714Y-80865476D01*
X150458333Y-80770238D01*
X150553571Y-80675000D01*
X150696428Y-80627380D01*
X150791666Y-80627380D01*
X150934523Y-80675000D01*
X150982142Y-80722619D01*
X151934523Y-81627380D02*
X151363095Y-81627380D01*
X151648809Y-81627380D02*
X151648809Y-80627380D01*
X151553571Y-80770238D01*
X151458333Y-80865476D01*
X151363095Y-80913095D01*
X152315476Y-80722619D02*
X152363095Y-80675000D01*
X152458333Y-80627380D01*
X152696428Y-80627380D01*
X152791666Y-80675000D01*
X152839285Y-80722619D01*
X152886904Y-80817857D01*
X152886904Y-80913095D01*
X152839285Y-81055952D01*
X152267857Y-81627380D01*
X152886904Y-81627380D01*
%TO.C,R6*%
X107158333Y-90477380D02*
X106825000Y-90001190D01*
X106586904Y-90477380D02*
X106586904Y-89477380D01*
X106967857Y-89477380D01*
X107063095Y-89525000D01*
X107110714Y-89572619D01*
X107158333Y-89667857D01*
X107158333Y-89810714D01*
X107110714Y-89905952D01*
X107063095Y-89953571D01*
X106967857Y-90001190D01*
X106586904Y-90001190D01*
X108015476Y-89477380D02*
X107825000Y-89477380D01*
X107729761Y-89525000D01*
X107682142Y-89572619D01*
X107586904Y-89715476D01*
X107539285Y-89905952D01*
X107539285Y-90286904D01*
X107586904Y-90382142D01*
X107634523Y-90429761D01*
X107729761Y-90477380D01*
X107920238Y-90477380D01*
X108015476Y-90429761D01*
X108063095Y-90382142D01*
X108110714Y-90286904D01*
X108110714Y-90048809D01*
X108063095Y-89953571D01*
X108015476Y-89905952D01*
X107920238Y-89858333D01*
X107729761Y-89858333D01*
X107634523Y-89905952D01*
X107586904Y-89953571D01*
X107539285Y-90048809D01*
%TO.C,C14*%
X151057142Y-71932142D02*
X151009523Y-71979761D01*
X150866666Y-72027380D01*
X150771428Y-72027380D01*
X150628571Y-71979761D01*
X150533333Y-71884523D01*
X150485714Y-71789285D01*
X150438095Y-71598809D01*
X150438095Y-71455952D01*
X150485714Y-71265476D01*
X150533333Y-71170238D01*
X150628571Y-71075000D01*
X150771428Y-71027380D01*
X150866666Y-71027380D01*
X151009523Y-71075000D01*
X151057142Y-71122619D01*
X152009523Y-72027380D02*
X151438095Y-72027380D01*
X151723809Y-72027380D02*
X151723809Y-71027380D01*
X151628571Y-71170238D01*
X151533333Y-71265476D01*
X151438095Y-71313095D01*
X152866666Y-71360714D02*
X152866666Y-72027380D01*
X152628571Y-70979761D02*
X152390476Y-71694047D01*
X153009523Y-71694047D01*
%TO.C,C11*%
X164532142Y-103802142D02*
X164484523Y-103849761D01*
X164341666Y-103897380D01*
X164246428Y-103897380D01*
X164103571Y-103849761D01*
X164008333Y-103754523D01*
X163960714Y-103659285D01*
X163913095Y-103468809D01*
X163913095Y-103325952D01*
X163960714Y-103135476D01*
X164008333Y-103040238D01*
X164103571Y-102945000D01*
X164246428Y-102897380D01*
X164341666Y-102897380D01*
X164484523Y-102945000D01*
X164532142Y-102992619D01*
X165484523Y-103897380D02*
X164913095Y-103897380D01*
X165198809Y-103897380D02*
X165198809Y-102897380D01*
X165103571Y-103040238D01*
X165008333Y-103135476D01*
X164913095Y-103183095D01*
X166436904Y-103897380D02*
X165865476Y-103897380D01*
X166151190Y-103897380D02*
X166151190Y-102897380D01*
X166055952Y-103040238D01*
X165960714Y-103135476D01*
X165865476Y-103183095D01*
%TO.C,C1*%
X100908333Y-86427142D02*
X100860714Y-86474761D01*
X100717857Y-86522380D01*
X100622619Y-86522380D01*
X100479761Y-86474761D01*
X100384523Y-86379523D01*
X100336904Y-86284285D01*
X100289285Y-86093809D01*
X100289285Y-85950952D01*
X100336904Y-85760476D01*
X100384523Y-85665238D01*
X100479761Y-85570000D01*
X100622619Y-85522380D01*
X100717857Y-85522380D01*
X100860714Y-85570000D01*
X100908333Y-85617619D01*
X101860714Y-86522380D02*
X101289285Y-86522380D01*
X101575000Y-86522380D02*
X101575000Y-85522380D01*
X101479761Y-85665238D01*
X101384523Y-85760476D01*
X101289285Y-85808095D01*
%TO.C,R9*%
X128408333Y-91902380D02*
X128075000Y-91426190D01*
X127836904Y-91902380D02*
X127836904Y-90902380D01*
X128217857Y-90902380D01*
X128313095Y-90950000D01*
X128360714Y-90997619D01*
X128408333Y-91092857D01*
X128408333Y-91235714D01*
X128360714Y-91330952D01*
X128313095Y-91378571D01*
X128217857Y-91426190D01*
X127836904Y-91426190D01*
X128884523Y-91902380D02*
X129075000Y-91902380D01*
X129170238Y-91854761D01*
X129217857Y-91807142D01*
X129313095Y-91664285D01*
X129360714Y-91473809D01*
X129360714Y-91092857D01*
X129313095Y-90997619D01*
X129265476Y-90950000D01*
X129170238Y-90902380D01*
X128979761Y-90902380D01*
X128884523Y-90950000D01*
X128836904Y-90997619D01*
X128789285Y-91092857D01*
X128789285Y-91330952D01*
X128836904Y-91426190D01*
X128884523Y-91473809D01*
X128979761Y-91521428D01*
X129170238Y-91521428D01*
X129265476Y-91473809D01*
X129313095Y-91426190D01*
X129360714Y-91330952D01*
%TO.C,R11*%
X136032142Y-92939880D02*
X135698809Y-92463690D01*
X135460714Y-92939880D02*
X135460714Y-91939880D01*
X135841666Y-91939880D01*
X135936904Y-91987500D01*
X135984523Y-92035119D01*
X136032142Y-92130357D01*
X136032142Y-92273214D01*
X135984523Y-92368452D01*
X135936904Y-92416071D01*
X135841666Y-92463690D01*
X135460714Y-92463690D01*
X136984523Y-92939880D02*
X136413095Y-92939880D01*
X136698809Y-92939880D02*
X136698809Y-91939880D01*
X136603571Y-92082738D01*
X136508333Y-92177976D01*
X136413095Y-92225595D01*
X137936904Y-92939880D02*
X137365476Y-92939880D01*
X137651190Y-92939880D02*
X137651190Y-91939880D01*
X137555952Y-92082738D01*
X137460714Y-92177976D01*
X137365476Y-92225595D01*
%TO.C,C3*%
X125433333Y-115932142D02*
X125385714Y-115979761D01*
X125242857Y-116027380D01*
X125147619Y-116027380D01*
X125004761Y-115979761D01*
X124909523Y-115884523D01*
X124861904Y-115789285D01*
X124814285Y-115598809D01*
X124814285Y-115455952D01*
X124861904Y-115265476D01*
X124909523Y-115170238D01*
X125004761Y-115075000D01*
X125147619Y-115027380D01*
X125242857Y-115027380D01*
X125385714Y-115075000D01*
X125433333Y-115122619D01*
X125766666Y-115027380D02*
X126385714Y-115027380D01*
X126052380Y-115408333D01*
X126195238Y-115408333D01*
X126290476Y-115455952D01*
X126338095Y-115503571D01*
X126385714Y-115598809D01*
X126385714Y-115836904D01*
X126338095Y-115932142D01*
X126290476Y-115979761D01*
X126195238Y-116027380D01*
X125909523Y-116027380D01*
X125814285Y-115979761D01*
X125766666Y-115932142D01*
%TO.C,C5*%
X112008333Y-90382142D02*
X111960714Y-90429761D01*
X111817857Y-90477380D01*
X111722619Y-90477380D01*
X111579761Y-90429761D01*
X111484523Y-90334523D01*
X111436904Y-90239285D01*
X111389285Y-90048809D01*
X111389285Y-89905952D01*
X111436904Y-89715476D01*
X111484523Y-89620238D01*
X111579761Y-89525000D01*
X111722619Y-89477380D01*
X111817857Y-89477380D01*
X111960714Y-89525000D01*
X112008333Y-89572619D01*
X112913095Y-89477380D02*
X112436904Y-89477380D01*
X112389285Y-89953571D01*
X112436904Y-89905952D01*
X112532142Y-89858333D01*
X112770238Y-89858333D01*
X112865476Y-89905952D01*
X112913095Y-89953571D01*
X112960714Y-90048809D01*
X112960714Y-90286904D01*
X112913095Y-90382142D01*
X112865476Y-90429761D01*
X112770238Y-90477380D01*
X112532142Y-90477380D01*
X112436904Y-90429761D01*
X112389285Y-90382142D01*
%TO.C,C9*%
X140958333Y-85607142D02*
X140910714Y-85654761D01*
X140767857Y-85702380D01*
X140672619Y-85702380D01*
X140529761Y-85654761D01*
X140434523Y-85559523D01*
X140386904Y-85464285D01*
X140339285Y-85273809D01*
X140339285Y-85130952D01*
X140386904Y-84940476D01*
X140434523Y-84845238D01*
X140529761Y-84750000D01*
X140672619Y-84702380D01*
X140767857Y-84702380D01*
X140910714Y-84750000D01*
X140958333Y-84797619D01*
X141434523Y-85702380D02*
X141625000Y-85702380D01*
X141720238Y-85654761D01*
X141767857Y-85607142D01*
X141863095Y-85464285D01*
X141910714Y-85273809D01*
X141910714Y-84892857D01*
X141863095Y-84797619D01*
X141815476Y-84750000D01*
X141720238Y-84702380D01*
X141529761Y-84702380D01*
X141434523Y-84750000D01*
X141386904Y-84797619D01*
X141339285Y-84892857D01*
X141339285Y-85130952D01*
X141386904Y-85226190D01*
X141434523Y-85273809D01*
X141529761Y-85321428D01*
X141720238Y-85321428D01*
X141815476Y-85273809D01*
X141863095Y-85226190D01*
X141910714Y-85130952D01*
%TO.C,J4*%
X158891666Y-107877380D02*
X158891666Y-108591666D01*
X158844047Y-108734523D01*
X158748809Y-108829761D01*
X158605952Y-108877380D01*
X158510714Y-108877380D01*
X159796428Y-108210714D02*
X159796428Y-108877380D01*
X159558333Y-107829761D02*
X159320238Y-108544047D01*
X159939285Y-108544047D01*
%TO.C,TP5*%
X154863095Y-95754380D02*
X155434523Y-95754380D01*
X155148809Y-96754380D02*
X155148809Y-95754380D01*
X155767857Y-96754380D02*
X155767857Y-95754380D01*
X156148809Y-95754380D01*
X156244047Y-95802000D01*
X156291666Y-95849619D01*
X156339285Y-95944857D01*
X156339285Y-96087714D01*
X156291666Y-96182952D01*
X156244047Y-96230571D01*
X156148809Y-96278190D01*
X155767857Y-96278190D01*
X157244047Y-95754380D02*
X156767857Y-95754380D01*
X156720238Y-96230571D01*
X156767857Y-96182952D01*
X156863095Y-96135333D01*
X157101190Y-96135333D01*
X157196428Y-96182952D01*
X157244047Y-96230571D01*
X157291666Y-96325809D01*
X157291666Y-96563904D01*
X157244047Y-96659142D01*
X157196428Y-96706761D01*
X157101190Y-96754380D01*
X156863095Y-96754380D01*
X156767857Y-96706761D01*
X156720238Y-96659142D01*
%TO.C,R4*%
X96783333Y-86577380D02*
X96450000Y-86101190D01*
X96211904Y-86577380D02*
X96211904Y-85577380D01*
X96592857Y-85577380D01*
X96688095Y-85625000D01*
X96735714Y-85672619D01*
X96783333Y-85767857D01*
X96783333Y-85910714D01*
X96735714Y-86005952D01*
X96688095Y-86053571D01*
X96592857Y-86101190D01*
X96211904Y-86101190D01*
X97640476Y-85910714D02*
X97640476Y-86577380D01*
X97402380Y-85529761D02*
X97164285Y-86244047D01*
X97783333Y-86244047D01*
%TO.C,C4*%
X121133333Y-116007142D02*
X121085714Y-116054761D01*
X120942857Y-116102380D01*
X120847619Y-116102380D01*
X120704761Y-116054761D01*
X120609523Y-115959523D01*
X120561904Y-115864285D01*
X120514285Y-115673809D01*
X120514285Y-115530952D01*
X120561904Y-115340476D01*
X120609523Y-115245238D01*
X120704761Y-115150000D01*
X120847619Y-115102380D01*
X120942857Y-115102380D01*
X121085714Y-115150000D01*
X121133333Y-115197619D01*
X121990476Y-115435714D02*
X121990476Y-116102380D01*
X121752380Y-115054761D02*
X121514285Y-115769047D01*
X122133333Y-115769047D01*
%TO.C,R1*%
X105158333Y-113527380D02*
X104825000Y-113051190D01*
X104586904Y-113527380D02*
X104586904Y-112527380D01*
X104967857Y-112527380D01*
X105063095Y-112575000D01*
X105110714Y-112622619D01*
X105158333Y-112717857D01*
X105158333Y-112860714D01*
X105110714Y-112955952D01*
X105063095Y-113003571D01*
X104967857Y-113051190D01*
X104586904Y-113051190D01*
X106110714Y-113527380D02*
X105539285Y-113527380D01*
X105825000Y-113527380D02*
X105825000Y-112527380D01*
X105729761Y-112670238D01*
X105634523Y-112765476D01*
X105539285Y-112813095D01*
%TO.C,J1*%
X99316666Y-49052380D02*
X99316666Y-49766666D01*
X99269047Y-49909523D01*
X99173809Y-50004761D01*
X99030952Y-50052380D01*
X98935714Y-50052380D01*
X100316666Y-50052380D02*
X99745238Y-50052380D01*
X100030952Y-50052380D02*
X100030952Y-49052380D01*
X99935714Y-49195238D01*
X99840476Y-49290476D01*
X99745238Y-49338095D01*
%TO.C,TP6*%
X162213095Y-95904380D02*
X162784523Y-95904380D01*
X162498809Y-96904380D02*
X162498809Y-95904380D01*
X163117857Y-96904380D02*
X163117857Y-95904380D01*
X163498809Y-95904380D01*
X163594047Y-95952000D01*
X163641666Y-95999619D01*
X163689285Y-96094857D01*
X163689285Y-96237714D01*
X163641666Y-96332952D01*
X163594047Y-96380571D01*
X163498809Y-96428190D01*
X163117857Y-96428190D01*
X164546428Y-95904380D02*
X164355952Y-95904380D01*
X164260714Y-95952000D01*
X164213095Y-95999619D01*
X164117857Y-96142476D01*
X164070238Y-96332952D01*
X164070238Y-96713904D01*
X164117857Y-96809142D01*
X164165476Y-96856761D01*
X164260714Y-96904380D01*
X164451190Y-96904380D01*
X164546428Y-96856761D01*
X164594047Y-96809142D01*
X164641666Y-96713904D01*
X164641666Y-96475809D01*
X164594047Y-96380571D01*
X164546428Y-96332952D01*
X164451190Y-96285333D01*
X164260714Y-96285333D01*
X164165476Y-96332952D01*
X164117857Y-96380571D01*
X164070238Y-96475809D01*
%TO.C,U3*%
X121413095Y-65552380D02*
X121413095Y-66361904D01*
X121460714Y-66457142D01*
X121508333Y-66504761D01*
X121603571Y-66552380D01*
X121794047Y-66552380D01*
X121889285Y-66504761D01*
X121936904Y-66457142D01*
X121984523Y-66361904D01*
X121984523Y-65552380D01*
X122365476Y-65552380D02*
X122984523Y-65552380D01*
X122651190Y-65933333D01*
X122794047Y-65933333D01*
X122889285Y-65980952D01*
X122936904Y-66028571D01*
X122984523Y-66123809D01*
X122984523Y-66361904D01*
X122936904Y-66457142D01*
X122889285Y-66504761D01*
X122794047Y-66552380D01*
X122508333Y-66552380D01*
X122413095Y-66504761D01*
X122365476Y-66457142D01*
X116178571Y-65277380D02*
X115702380Y-65277380D01*
X115702380Y-64277380D01*
X116511904Y-65277380D02*
X116511904Y-64277380D01*
X116845238Y-64991666D01*
X117178571Y-64277380D01*
X117178571Y-65277380D01*
X117559523Y-64277380D02*
X118178571Y-64277380D01*
X117845238Y-64658333D01*
X117988095Y-64658333D01*
X118083333Y-64705952D01*
X118130952Y-64753571D01*
X118178571Y-64848809D01*
X118178571Y-65086904D01*
X118130952Y-65182142D01*
X118083333Y-65229761D01*
X117988095Y-65277380D01*
X117702380Y-65277380D01*
X117607142Y-65229761D01*
X117559523Y-65182142D01*
X119130952Y-65277380D02*
X118559523Y-65277380D01*
X118845238Y-65277380D02*
X118845238Y-64277380D01*
X118750000Y-64420238D01*
X118654761Y-64515476D01*
X118559523Y-64563095D01*
X119464285Y-64277380D02*
X120130952Y-64277380D01*
X119702380Y-65277380D01*
X120369047Y-64277380D02*
X120940476Y-64277380D01*
X120654761Y-65277380D02*
X120654761Y-64277380D01*
%TO.C,R22*%
X159507142Y-88777380D02*
X159173809Y-88301190D01*
X158935714Y-88777380D02*
X158935714Y-87777380D01*
X159316666Y-87777380D01*
X159411904Y-87825000D01*
X159459523Y-87872619D01*
X159507142Y-87967857D01*
X159507142Y-88110714D01*
X159459523Y-88205952D01*
X159411904Y-88253571D01*
X159316666Y-88301190D01*
X158935714Y-88301190D01*
X159888095Y-87872619D02*
X159935714Y-87825000D01*
X160030952Y-87777380D01*
X160269047Y-87777380D01*
X160364285Y-87825000D01*
X160411904Y-87872619D01*
X160459523Y-87967857D01*
X160459523Y-88063095D01*
X160411904Y-88205952D01*
X159840476Y-88777380D01*
X160459523Y-88777380D01*
X160840476Y-87872619D02*
X160888095Y-87825000D01*
X160983333Y-87777380D01*
X161221428Y-87777380D01*
X161316666Y-87825000D01*
X161364285Y-87872619D01*
X161411904Y-87967857D01*
X161411904Y-88063095D01*
X161364285Y-88205952D01*
X160792857Y-88777380D01*
X161411904Y-88777380D01*
D11*
%TO.C,R0*%
X147897936Y-88915000D02*
X148352064Y-88915000D01*
X147897936Y-90385000D02*
X148352064Y-90385000D01*
%TO.C,U1*%
X126669735Y-101248900D02*
X125899265Y-101248900D01*
X125899265Y-104246100D02*
X126669735Y-104246100D01*
X125446300Y-102407140D02*
X125446300Y-103087860D01*
%TO.C,R5*%
X109939564Y-82540000D02*
X109485436Y-82540000D01*
X109939564Y-84010000D02*
X109485436Y-84010000D01*
%TO.C,R8*%
X118785000Y-57822936D02*
X118785000Y-58277064D01*
X117315000Y-57822936D02*
X117315000Y-58277064D01*
%TO.C,C6*%
X112010000Y-57788748D02*
X112010000Y-58311252D01*
X110540000Y-57788748D02*
X110540000Y-58311252D01*
%TO.C,ProbeGND1*%
X106725000Y-49050000D02*
X109125000Y-49050000D01*
X106725000Y-51450000D02*
X106725000Y-49050000D01*
X109125000Y-51450000D02*
X106725000Y-51450000D01*
X109125000Y-49050000D02*
X109125000Y-51450000D01*
%TO.C,C15*%
X115485000Y-102013748D02*
X115485000Y-102536252D01*
X114015000Y-102013748D02*
X114015000Y-102536252D01*
%TO.C,TP2*%
X102875000Y-106100000D02*
X102875000Y-103700000D01*
X105275000Y-103700000D02*
X105275000Y-106100000D01*
X102875000Y-103700000D02*
X105275000Y-103700000D01*
X105275000Y-106100000D02*
X102875000Y-106100000D01*
%TO.C,C8*%
X131786252Y-81710000D02*
X131263748Y-81710000D01*
X131786252Y-80240000D02*
X131263748Y-80240000D01*
%TO.C,R2*%
X130315000Y-112610436D02*
X130315000Y-113064564D01*
X131785000Y-112610436D02*
X131785000Y-113064564D01*
%TO.C,R7*%
X114222936Y-55335000D02*
X114677064Y-55335000D01*
X114222936Y-53865000D02*
X114677064Y-53865000D01*
%TO.C,U2*%
X146449000Y-97176000D02*
X149751000Y-97176000D01*
X149751000Y-93874000D02*
X146449000Y-93874000D01*
G36*
X151490900Y-94715499D02*
G01*
X151236900Y-94715499D01*
X151236900Y-94334499D01*
X151490900Y-94334499D01*
X151490900Y-94715499D01*
G37*
D12*
X151490900Y-94715499D02*
X151236900Y-94715499D01*
X151236900Y-94334499D01*
X151490900Y-94334499D01*
X151490900Y-94715499D01*
D11*
%TO.C,C16*%
X108915000Y-101938748D02*
X108915000Y-102461252D01*
X110385000Y-101938748D02*
X110385000Y-102461252D01*
%TO.C,C19*%
X98438748Y-69565000D02*
X98961252Y-69565000D01*
X98438748Y-71035000D02*
X98961252Y-71035000D01*
%TO.C,C17*%
X120560000Y-102213748D02*
X120560000Y-102736252D01*
X119090000Y-102213748D02*
X119090000Y-102736252D01*
%TO.C,U4*%
X120803600Y-78300700D02*
X120803600Y-73449300D01*
X110135600Y-73449300D02*
X110135600Y-78300700D01*
X120803600Y-73449300D02*
X110135600Y-73449300D01*
X110135600Y-78300700D02*
X120803600Y-78300700D01*
X108560800Y-76306800D02*
G75*
G03*
X108560800Y-76306800I-203200J0D01*
G01*
%TO.C,R12*%
X136215000Y-83789564D02*
X136215000Y-83335436D01*
X137685000Y-83789564D02*
X137685000Y-83335436D01*
%TO.C,C10*%
X150886252Y-105710000D02*
X150363748Y-105710000D01*
X150886252Y-104240000D02*
X150363748Y-104240000D01*
%TO.C,R10*%
X131702064Y-86635000D02*
X131247936Y-86635000D01*
X131702064Y-85165000D02*
X131247936Y-85165000D01*
%TO.C,D1*%
X95375828Y-96620225D02*
X96287995Y-97532393D01*
X97277945Y-96542443D02*
X96365777Y-95630276D01*
X96365777Y-95630276D02*
X95375828Y-96620225D01*
X96288126Y-97532180D02*
G75*
G03*
X97277945Y-96542443I2572150J-1582544D01*
G01*
%TO.C,C2*%
X98688748Y-110690000D02*
X99211252Y-110690000D01*
X98688748Y-112160000D02*
X99211252Y-112160000D01*
%TO.C,R3*%
X99577064Y-106390000D02*
X99122936Y-106390000D01*
X99577064Y-107860000D02*
X99122936Y-107860000D01*
%TO.C,TP4*%
X140325000Y-76775000D02*
X142725000Y-76775000D01*
X142725000Y-79175000D02*
X140325000Y-79175000D01*
X142725000Y-76775000D02*
X142725000Y-79175000D01*
X140325000Y-79175000D02*
X140325000Y-76775000D01*
%TO.C,TP1*%
X133300000Y-95450000D02*
X135700000Y-95450000D01*
X135700000Y-97850000D02*
X133300000Y-97850000D01*
X133300000Y-97850000D02*
X133300000Y-95450000D01*
X135700000Y-95450000D02*
X135700000Y-97850000D01*
%TO.C,L1*%
X98475378Y-65585000D02*
X99274622Y-65585000D01*
X98475378Y-64465000D02*
X99274622Y-64465000D01*
%TO.C,C7*%
X148361252Y-85615000D02*
X147838748Y-85615000D01*
X148361252Y-87085000D02*
X147838748Y-87085000D01*
%TO.C,J3*%
X146619800Y-112850000D02*
X146619800Y-110850000D01*
X149125000Y-108344800D02*
X151125000Y-108344800D01*
X153630200Y-110850000D02*
X153630200Y-112850000D01*
X151125000Y-115355200D02*
X149125000Y-115355200D01*
%TO.C,C13*%
X148188748Y-77110000D02*
X148711252Y-77110000D01*
X148188748Y-75640000D02*
X148711252Y-75640000D01*
%TO.C,TP3*%
X114675000Y-112150000D02*
X117075000Y-112150000D01*
X117075000Y-112150000D02*
X117075000Y-114550000D01*
X114675000Y-114550000D02*
X114675000Y-112150000D01*
X117075000Y-114550000D02*
X114675000Y-114550000D01*
%TO.C,C18*%
X98363748Y-76235000D02*
X98886252Y-76235000D01*
X98363748Y-74765000D02*
X98886252Y-74765000D01*
%TO.C,TP7*%
X165125000Y-87750000D02*
X165125000Y-85350000D01*
X165125000Y-85350000D02*
X167525000Y-85350000D01*
X167525000Y-87750000D02*
X165125000Y-87750000D01*
X167525000Y-85350000D02*
X167525000Y-87750000D01*
%TO.C,C12*%
X148038748Y-80415000D02*
X148561252Y-80415000D01*
X148038748Y-81885000D02*
X148561252Y-81885000D01*
%TO.C,R6*%
X108160000Y-87802064D02*
X108160000Y-87347936D01*
X106690000Y-87802064D02*
X106690000Y-87347936D01*
%TO.C,C14*%
X148263748Y-72310000D02*
X148786252Y-72310000D01*
X148263748Y-70840000D02*
X148786252Y-70840000D01*
%TO.C,C11*%
X164913748Y-105860000D02*
X165436252Y-105860000D01*
X164913748Y-104390000D02*
X165436252Y-104390000D01*
%TO.C,C1*%
X100813748Y-87015000D02*
X101336252Y-87015000D01*
X100813748Y-88485000D02*
X101336252Y-88485000D01*
%TO.C,R9*%
X131827064Y-90565000D02*
X131372936Y-90565000D01*
X131827064Y-92035000D02*
X131372936Y-92035000D01*
%TO.C,R11*%
X137435000Y-89647936D02*
X137435000Y-90102064D01*
X135965000Y-89647936D02*
X135965000Y-90102064D01*
%TO.C,C3*%
X126210000Y-113361252D02*
X126210000Y-112838748D01*
X124740000Y-113361252D02*
X124740000Y-112838748D01*
%TO.C,C5*%
X111540000Y-87836252D02*
X111540000Y-87313748D01*
X113010000Y-87836252D02*
X113010000Y-87313748D01*
%TO.C,C9*%
X141685000Y-87338748D02*
X141685000Y-87861252D01*
X140215000Y-87338748D02*
X140215000Y-87861252D01*
%TO.C,J4*%
X167980200Y-111050000D02*
X167980200Y-113050000D01*
X165475000Y-115555200D02*
X163475000Y-115555200D01*
X163475000Y-108544800D02*
X165475000Y-108544800D01*
X160969800Y-113050000D02*
X160969800Y-111050000D01*
%TO.C,TP5*%
X157325000Y-99500000D02*
X154925000Y-99500000D01*
X154925000Y-99500000D02*
X154925000Y-97100000D01*
X154925000Y-97100000D02*
X157325000Y-97100000D01*
X157325000Y-97100000D02*
X157325000Y-99500000D01*
%TO.C,R4*%
X96722936Y-87040000D02*
X97177064Y-87040000D01*
X96722936Y-88510000D02*
X97177064Y-88510000D01*
%TO.C,C4*%
X120615000Y-112863748D02*
X120615000Y-113386252D01*
X122085000Y-112863748D02*
X122085000Y-113386252D01*
%TO.C,R1*%
X105552064Y-110690000D02*
X105097936Y-110690000D01*
X105552064Y-112160000D02*
X105097936Y-112160000D01*
%TO.C,J1*%
X95840000Y-55810000D02*
X102460000Y-55810000D01*
X102460000Y-55810000D02*
X103460000Y-54810000D01*
X103460000Y-54810000D02*
X103460000Y-50690000D01*
X95540000Y-53700000D02*
X95540000Y-56110000D01*
X95540000Y-56110000D02*
X97950000Y-56110000D01*
X103460000Y-50690000D02*
X95840000Y-50690000D01*
X95840000Y-50690000D02*
X95840000Y-55810000D01*
%TO.C,TP6*%
X162275000Y-97250000D02*
X164675000Y-97250000D01*
X164675000Y-99650000D02*
X162275000Y-99650000D01*
X164675000Y-97250000D02*
X164675000Y-99650000D01*
X162275000Y-99650000D02*
X162275000Y-97250000D01*
%TO.C,U3*%
X110110600Y-65849300D02*
X110110600Y-70700700D01*
X120778600Y-70700700D02*
X120778600Y-65849300D01*
X110110600Y-70700700D02*
X120778600Y-70700700D01*
X120778600Y-65849300D02*
X110110600Y-65849300D01*
X108535800Y-68706800D02*
G75*
G03*
X108535800Y-68706800I-203200J0D01*
G01*
%TO.C,R22*%
X159215000Y-90947936D02*
X159215000Y-91402064D01*
X160685000Y-90947936D02*
X160685000Y-91402064D01*
%TD*%
M02*
