M48
; DRILL file {KiCad (6.0.4-0)} date Wednesday, April 13, 2022 at 06:09:18 PM
; FORMAT={-:-/ absolute / inch / decimal}
; #@! TF.CreationDate,2022-04-13T18:09:18-07:00
; #@! TF.GenerationSoftware,Kicad,Pcbnew,(6.0.4-0)
; #@! TF.FileFunction,Plated,1,2,PTH
FMAT,2
INCH
; #@! TA.AperFunction,Plated,PTH,ViaDrill
T1C0.0157
; #@! TA.AperFunction,Plated,PTH,ComponentDrill
T2C0.0276
; #@! TA.AperFunction,Plated,PTH,ComponentDrill
T3C0.0335
; #@! TA.AperFunction,Plated,PTH,ComponentDrill
T4C0.0450
; #@! TA.AperFunction,Plated,PTH,ComponentDrill
T5C0.0472
; #@! TA.AperFunction,Plated,PTH,ComponentDrill
T6C0.0669
%
G90
G05
T1
X3.5659Y-3.752
X3.6299Y-2.498
X3.6339Y-3.2894
X3.6407Y-2.8189
X3.6476Y-4.2717
X3.6654Y-1.8809
X3.936Y-2.56
X4.0974Y-4.1299
X4.3435Y-4.4262
X4.3848Y-1.9035
X4.4203Y-3.4104
X4.4203Y-3.4852
X4.5177Y-3.9892
X4.5177Y-4.064
X4.6503Y-2.3241
X4.716Y-3.9956
X4.7844Y-4.4154
X4.8868Y-3.2569
X4.8898Y-3.6476
X4.9238Y-4.0077
X4.94Y-4.4154
X4.94Y-4.4902
X5.0217Y-4.0453
X5.0217Y-4.0856
X5.0374Y-2.3031
X5.2126Y-3.3819
X5.248Y-4.0571
X5.2972Y-3.8051
X5.3337Y-2.8278
X5.5118Y-4.56
X5.5482Y-3.813
X5.5709Y-4.1142
X5.6073Y-3.7402
X5.6368Y-3.5994
X5.6752Y-3.6388
X5.686Y-3.8396
X5.7953Y-3.3996
X5.8681Y-3.5325
X5.8696Y-3.3981
X5.9213Y-2.5207
X5.9774Y-3.9075
X6.0157Y-3.7982
X6.2608Y-2.8061
X6.2805Y-4.1191
X6.2972Y-3.6255
X6.3445Y-3.3356
X6.4478Y-2.3789
X6.4902Y-2.7736
X6.6161Y-3.625
X6.6417Y-3.188
T2
X3.8421Y-3.9022
X3.8921Y-3.9522
X3.9421Y-3.9022
T3
X3.874Y-2.122
X3.9724Y-2.122
T4
X4.4451Y-2.705
X4.446Y-3.0042
X4.5451Y-2.705
X4.546Y-3.0042
X4.6451Y-2.705
X4.646Y-3.0042
T5
X5.9104Y-4.4035
X6.4754Y-4.4114
T6
X5.8104Y-4.3035
X5.8104Y-4.5035
X6.0104Y-4.3035
X6.0104Y-4.5035
X6.3754Y-4.3114
X6.3754Y-4.5114
X6.5754Y-4.3114
X6.5754Y-4.5114
T0
M30
