%TF.GenerationSoftware,KiCad,Pcbnew,(6.0.4-0)*%
%TF.CreationDate,2022-04-13T18:08:54-07:00*%
%TF.ProjectId,TAU_REVG,5441555f-5245-4564-972e-6b696361645f,G*%
%TF.SameCoordinates,Original*%
%TF.FileFunction,OtherDrawing,Comment*%
%FSLAX46Y46*%
G04 Gerber Fmt 4.6, Leading zero omitted, Abs format (unit mm)*
G04 Created by KiCad (PCBNEW (6.0.4-0)) date 2022-04-13 18:08:54*
%MOMM*%
%LPD*%
G01*
G04 APERTURE LIST*
%ADD10C,0.175400*%
%ADD11C,0.150000*%
G04 APERTURE END LIST*
D10*
X27682238Y-25628948D02*
X27858038Y-24222548D01*
X28485895Y-25628948D01*
X28661695Y-24222548D01*
X29599295Y-24222548D02*
X29867181Y-24222548D01*
X29992752Y-24289520D01*
X30109952Y-24423462D01*
X30143438Y-24691348D01*
X30084838Y-25160148D01*
X29984381Y-25428034D01*
X29833695Y-25561977D01*
X29691381Y-25628948D01*
X29423495Y-25628948D01*
X29297924Y-25561977D01*
X29180724Y-25428034D01*
X29147238Y-25160148D01*
X29205838Y-24691348D01*
X29306295Y-24423462D01*
X29456981Y-24289520D01*
X29599295Y-24222548D01*
X30603867Y-24222548D02*
X31407524Y-24222548D01*
X30829895Y-25628948D02*
X31005695Y-24222548D01*
X31792610Y-24892262D02*
X32261410Y-24892262D01*
X32370238Y-25628948D02*
X31700524Y-25628948D01*
X31876324Y-24222548D01*
X32546038Y-24222548D01*
X32914381Y-25561977D02*
X33106924Y-25628948D01*
X33441781Y-25628948D01*
X33584095Y-25561977D01*
X33659438Y-25495005D01*
X33743152Y-25361062D01*
X33759895Y-25227120D01*
X33709667Y-25093177D01*
X33651067Y-25026205D01*
X33525495Y-24959234D01*
X33265981Y-24892262D01*
X33140410Y-24825291D01*
X33081810Y-24758320D01*
X33031581Y-24624377D01*
X33048324Y-24490434D01*
X33132038Y-24356491D01*
X33207381Y-24289520D01*
X33349695Y-24222548D01*
X33684552Y-24222548D01*
X33877095Y-24289520D01*
X34329152Y-25495005D02*
X34387752Y-25561977D01*
X34312410Y-25628948D01*
X34253810Y-25561977D01*
X34329152Y-25495005D01*
X34312410Y-25628948D01*
X34421238Y-24758320D02*
X34479838Y-24825291D01*
X34404495Y-24892262D01*
X34345895Y-24825291D01*
X34421238Y-24758320D01*
X34404495Y-24892262D01*
X28418924Y-27893252D02*
X27615267Y-27893252D01*
X28017095Y-27893252D02*
X28192895Y-26486852D01*
X28033838Y-26687766D01*
X27883152Y-26821709D01*
X27740838Y-26888681D01*
X29038410Y-27759309D02*
X29097010Y-27826281D01*
X29021667Y-27893252D01*
X28963067Y-27826281D01*
X29038410Y-27759309D01*
X29021667Y-27893252D01*
X30762924Y-27893252D02*
X30938724Y-26486852D01*
X31281952Y-27491424D01*
X31876324Y-26486852D01*
X31700524Y-27893252D01*
X32353495Y-27491424D02*
X33023210Y-27491424D01*
X32169324Y-27893252D02*
X32813924Y-26486852D01*
X33106924Y-27893252D01*
X33550610Y-26486852D02*
X34354267Y-26486852D01*
X33776638Y-27893252D02*
X33952438Y-26486852D01*
X34739352Y-27156566D02*
X35208152Y-27156566D01*
X35316981Y-27893252D02*
X34647267Y-27893252D01*
X34823067Y-26486852D01*
X35492781Y-26486852D01*
X36723381Y-27893252D02*
X36338295Y-27223538D01*
X35919724Y-27893252D02*
X36095524Y-26486852D01*
X36631295Y-26486852D01*
X36756867Y-26553824D01*
X36815467Y-26620795D01*
X36865695Y-26754738D01*
X36840581Y-26955652D01*
X36756867Y-27089595D01*
X36681524Y-27156566D01*
X36539210Y-27223538D01*
X36003438Y-27223538D01*
X37326124Y-27893252D02*
X37501924Y-26486852D01*
X37979095Y-27491424D02*
X38648810Y-27491424D01*
X37794924Y-27893252D02*
X38439524Y-26486852D01*
X38732524Y-27893252D01*
X39871038Y-27893252D02*
X39201324Y-27893252D01*
X39377124Y-26486852D01*
X41972267Y-27156566D02*
X42164810Y-27223538D01*
X42223410Y-27290509D01*
X42273638Y-27424452D01*
X42248524Y-27625366D01*
X42164810Y-27759309D01*
X42089467Y-27826281D01*
X41947152Y-27893252D01*
X41411381Y-27893252D01*
X41587181Y-26486852D01*
X42055981Y-26486852D01*
X42181552Y-26553824D01*
X42240152Y-26620795D01*
X42290381Y-26754738D01*
X42273638Y-26888681D01*
X42189924Y-27022624D01*
X42114581Y-27089595D01*
X41972267Y-27156566D01*
X41503467Y-27156566D01*
X42801038Y-27491424D02*
X43470752Y-27491424D01*
X42616867Y-27893252D02*
X43261467Y-26486852D01*
X43554467Y-27893252D01*
X43964667Y-27826281D02*
X44157210Y-27893252D01*
X44492067Y-27893252D01*
X44634381Y-27826281D01*
X44709724Y-27759309D01*
X44793438Y-27625366D01*
X44810181Y-27491424D01*
X44759952Y-27357481D01*
X44701352Y-27290509D01*
X44575781Y-27223538D01*
X44316267Y-27156566D01*
X44190695Y-27089595D01*
X44132095Y-27022624D01*
X44081867Y-26888681D01*
X44098610Y-26754738D01*
X44182324Y-26620795D01*
X44257667Y-26553824D01*
X44399981Y-26486852D01*
X44734838Y-26486852D01*
X44927381Y-26553824D01*
X45454781Y-27156566D02*
X45923581Y-27156566D01*
X46032410Y-27893252D02*
X45362695Y-27893252D01*
X45538495Y-26486852D01*
X46208210Y-26486852D01*
X47648095Y-27826281D02*
X47840638Y-27893252D01*
X48175495Y-27893252D01*
X48317810Y-27826281D01*
X48393152Y-27759309D01*
X48476867Y-27625366D01*
X48493610Y-27491424D01*
X48443381Y-27357481D01*
X48384781Y-27290509D01*
X48259210Y-27223538D01*
X47999695Y-27156566D01*
X47874124Y-27089595D01*
X47815524Y-27022624D01*
X47765295Y-26888681D01*
X47782038Y-26754738D01*
X47865752Y-26620795D01*
X47941095Y-26553824D01*
X48083410Y-26486852D01*
X48418267Y-26486852D01*
X48610810Y-26553824D01*
X49046124Y-27893252D02*
X49221924Y-26486852D01*
X49138210Y-27156566D02*
X49941867Y-27156566D01*
X49849781Y-27893252D02*
X50025581Y-26486852D01*
X50963181Y-26486852D02*
X51231067Y-26486852D01*
X51356638Y-26553824D01*
X51473838Y-26687766D01*
X51507324Y-26955652D01*
X51448724Y-27424452D01*
X51348267Y-27692338D01*
X51197581Y-27826281D01*
X51055267Y-27893252D01*
X50787381Y-27893252D01*
X50661810Y-27826281D01*
X50544610Y-27692338D01*
X50511124Y-27424452D01*
X50569724Y-26955652D01*
X50670181Y-26687766D01*
X50820867Y-26553824D01*
X50963181Y-26486852D01*
X52168667Y-26486852D02*
X52026352Y-27625366D01*
X52076581Y-27759309D01*
X52135181Y-27826281D01*
X52260752Y-27893252D01*
X52528638Y-27893252D01*
X52670952Y-27826281D01*
X52746295Y-27759309D01*
X52830010Y-27625366D01*
X52972324Y-26486852D01*
X54135952Y-27893252D02*
X53466238Y-27893252D01*
X53642038Y-26486852D01*
X54604752Y-27893252D02*
X54780552Y-26486852D01*
X55115410Y-26486852D01*
X55307952Y-26553824D01*
X55425152Y-26687766D01*
X55475381Y-26821709D01*
X55508867Y-27089595D01*
X55483752Y-27290509D01*
X55383295Y-27558395D01*
X55299581Y-27692338D01*
X55148895Y-27826281D01*
X54939610Y-27893252D01*
X54604752Y-27893252D01*
X57643581Y-27156566D02*
X57836124Y-27223538D01*
X57894724Y-27290509D01*
X57944952Y-27424452D01*
X57919838Y-27625366D01*
X57836124Y-27759309D01*
X57760781Y-27826281D01*
X57618467Y-27893252D01*
X57082695Y-27893252D01*
X57258495Y-26486852D01*
X57727295Y-26486852D01*
X57852867Y-26553824D01*
X57911467Y-26620795D01*
X57961695Y-26754738D01*
X57944952Y-26888681D01*
X57861238Y-27022624D01*
X57785895Y-27089595D01*
X57643581Y-27156566D01*
X57174781Y-27156566D01*
X58581181Y-27156566D02*
X59049981Y-27156566D01*
X59158810Y-27893252D02*
X58489095Y-27893252D01*
X58664895Y-26486852D01*
X59334610Y-26486852D01*
X61393981Y-27156566D02*
X60925181Y-27156566D01*
X60833095Y-27893252D02*
X61008895Y-26486852D01*
X61678610Y-26486852D01*
X62842238Y-27893252D02*
X62457152Y-27223538D01*
X62038581Y-27893252D02*
X62214381Y-26486852D01*
X62750152Y-26486852D01*
X62875724Y-26553824D01*
X62934324Y-26620795D01*
X62984552Y-26754738D01*
X62959438Y-26955652D01*
X62875724Y-27089595D01*
X62800381Y-27156566D01*
X62658067Y-27223538D01*
X62122295Y-27223538D01*
X63511952Y-27357481D02*
X64583495Y-27357481D01*
X65906181Y-26955652D02*
X65788981Y-27893252D01*
X65638295Y-26419881D02*
X65177867Y-27424452D01*
X66048495Y-27424452D01*
X27774324Y-31149403D02*
X27849667Y-31082432D01*
X27991981Y-31015460D01*
X28326838Y-31015460D01*
X28452410Y-31082432D01*
X28511010Y-31149403D01*
X28561238Y-31283346D01*
X28544495Y-31417289D01*
X28452410Y-31618203D01*
X27548295Y-32421860D01*
X28418924Y-32421860D01*
X29038410Y-32287917D02*
X29097010Y-32354889D01*
X29021667Y-32421860D01*
X28963067Y-32354889D01*
X29038410Y-32287917D01*
X29021667Y-32421860D01*
X30704324Y-32354889D02*
X30896867Y-32421860D01*
X31231724Y-32421860D01*
X31374038Y-32354889D01*
X31449381Y-32287917D01*
X31533095Y-32153974D01*
X31549838Y-32020032D01*
X31499610Y-31886089D01*
X31441010Y-31819117D01*
X31315438Y-31752146D01*
X31055924Y-31685174D01*
X30930352Y-31618203D01*
X30871752Y-31551232D01*
X30821524Y-31417289D01*
X30838267Y-31283346D01*
X30921981Y-31149403D01*
X30997324Y-31082432D01*
X31139638Y-31015460D01*
X31474495Y-31015460D01*
X31667038Y-31082432D01*
X32546038Y-31015460D02*
X32813924Y-31015460D01*
X32939495Y-31082432D01*
X33056695Y-31216374D01*
X33090181Y-31484260D01*
X33031581Y-31953060D01*
X32931124Y-32220946D01*
X32780438Y-32354889D01*
X32638124Y-32421860D01*
X32370238Y-32421860D01*
X32244667Y-32354889D01*
X32127467Y-32220946D01*
X32093981Y-31953060D01*
X32152581Y-31484260D01*
X32253038Y-31216374D01*
X32403724Y-31082432D01*
X32546038Y-31015460D01*
X34245438Y-32421860D02*
X33575724Y-32421860D01*
X33751524Y-31015460D01*
X34714238Y-32421860D02*
X34890038Y-31015460D01*
X35224895Y-31015460D01*
X35417438Y-31082432D01*
X35534638Y-31216374D01*
X35584867Y-31350317D01*
X35618352Y-31618203D01*
X35593238Y-31819117D01*
X35492781Y-32087003D01*
X35409067Y-32220946D01*
X35258381Y-32354889D01*
X35049095Y-32421860D01*
X34714238Y-32421860D01*
X36212724Y-31685174D02*
X36681524Y-31685174D01*
X36790352Y-32421860D02*
X36120638Y-32421860D01*
X36296438Y-31015460D01*
X36966152Y-31015460D01*
X38196752Y-32421860D02*
X37811667Y-31752146D01*
X37393095Y-32421860D02*
X37568895Y-31015460D01*
X38104667Y-31015460D01*
X38230238Y-31082432D01*
X38288838Y-31149403D01*
X38339067Y-31283346D01*
X38313952Y-31484260D01*
X38230238Y-31618203D01*
X38154895Y-31685174D01*
X38012581Y-31752146D01*
X37476810Y-31752146D01*
X38799495Y-32421860D02*
X38975295Y-31015460D01*
X39318524Y-32020032D01*
X39912895Y-31015460D01*
X39737095Y-32421860D01*
X40390067Y-32020032D02*
X41059781Y-32020032D01*
X40205895Y-32421860D02*
X40850495Y-31015460D01*
X41143495Y-32421860D01*
X41553695Y-32354889D02*
X41746238Y-32421860D01*
X42081095Y-32421860D01*
X42223410Y-32354889D01*
X42298752Y-32287917D01*
X42382467Y-32153974D01*
X42399210Y-32020032D01*
X42348981Y-31886089D01*
X42290381Y-31819117D01*
X42164810Y-31752146D01*
X41905295Y-31685174D01*
X41779724Y-31618203D01*
X41721124Y-31551232D01*
X41670895Y-31417289D01*
X41687638Y-31283346D01*
X41771352Y-31149403D01*
X41846695Y-31082432D01*
X41989010Y-31015460D01*
X42323867Y-31015460D01*
X42516410Y-31082432D01*
X42951724Y-32421860D02*
X43127524Y-31015460D01*
X43755381Y-32421860D02*
X43253095Y-31618203D01*
X43931181Y-31015460D02*
X43027067Y-31819117D01*
X44374867Y-32287917D02*
X44433467Y-32354889D01*
X44358124Y-32421860D01*
X44299524Y-32354889D01*
X44374867Y-32287917D01*
X44358124Y-32421860D01*
X44466952Y-31551232D02*
X44525552Y-31618203D01*
X44450210Y-31685174D01*
X44391610Y-31618203D01*
X44466952Y-31551232D01*
X44450210Y-31685174D01*
X46660267Y-31685174D02*
X46852810Y-31752146D01*
X46911410Y-31819117D01*
X46961638Y-31953060D01*
X46936524Y-32153974D01*
X46852810Y-32287917D01*
X46777467Y-32354889D01*
X46635152Y-32421860D01*
X46099381Y-32421860D01*
X46275181Y-31015460D01*
X46743981Y-31015460D01*
X46869552Y-31082432D01*
X46928152Y-31149403D01*
X46978381Y-31283346D01*
X46961638Y-31417289D01*
X46877924Y-31551232D01*
X46802581Y-31618203D01*
X46660267Y-31685174D01*
X46191467Y-31685174D01*
X48175495Y-32421860D02*
X47505781Y-32421860D01*
X47681581Y-31015460D01*
X48820095Y-31015460D02*
X48677781Y-32153974D01*
X48728010Y-32287917D01*
X48786610Y-32354889D01*
X48912181Y-32421860D01*
X49180067Y-32421860D01*
X49322381Y-32354889D01*
X49397724Y-32287917D01*
X49481438Y-32153974D01*
X49623752Y-31015460D01*
X50209752Y-31685174D02*
X50678552Y-31685174D01*
X50787381Y-32421860D02*
X50117667Y-32421860D01*
X50293467Y-31015460D01*
X50963181Y-31015460D01*
X52905352Y-31015460D02*
X53173238Y-31015460D01*
X53298810Y-31082432D01*
X53416010Y-31216374D01*
X53449495Y-31484260D01*
X53390895Y-31953060D01*
X53290438Y-32220946D01*
X53139752Y-32354889D01*
X52997438Y-32421860D01*
X52729552Y-32421860D01*
X52603981Y-32354889D01*
X52486781Y-32220946D01*
X52453295Y-31953060D01*
X52511895Y-31484260D01*
X52612352Y-31216374D01*
X52763038Y-31082432D01*
X52905352Y-31015460D01*
X54738695Y-32421860D02*
X54353610Y-31752146D01*
X53935038Y-32421860D02*
X54110838Y-31015460D01*
X54646610Y-31015460D01*
X54772181Y-31082432D01*
X54830781Y-31149403D01*
X54881010Y-31283346D01*
X54855895Y-31484260D01*
X54772181Y-31618203D01*
X54696838Y-31685174D01*
X54554524Y-31752146D01*
X54018752Y-31752146D01*
X56412981Y-32421860D02*
X56588781Y-31015460D01*
X56923638Y-31015460D01*
X57116181Y-31082432D01*
X57233381Y-31216374D01*
X57283610Y-31350317D01*
X57317095Y-31618203D01*
X57291981Y-31819117D01*
X57191524Y-32087003D01*
X57107810Y-32220946D01*
X56957124Y-32354889D01*
X56747838Y-32421860D01*
X56412981Y-32421860D01*
X57802638Y-32020032D02*
X58472352Y-32020032D01*
X57618467Y-32421860D02*
X58263067Y-31015460D01*
X58556067Y-32421860D01*
X59828524Y-32421860D02*
X59443438Y-31752146D01*
X59024867Y-32421860D02*
X59200667Y-31015460D01*
X59736438Y-31015460D01*
X59862010Y-31082432D01*
X59920610Y-31149403D01*
X59970838Y-31283346D01*
X59945724Y-31484260D01*
X59862010Y-31618203D01*
X59786667Y-31685174D01*
X59644352Y-31752146D01*
X59108581Y-31752146D01*
X60431267Y-32421860D02*
X60607067Y-31015460D01*
X61234924Y-32421860D02*
X60732638Y-31618203D01*
X61410724Y-31015460D02*
X60506610Y-31819117D01*
X63470095Y-31685174D02*
X63662638Y-31752146D01*
X63721238Y-31819117D01*
X63771467Y-31953060D01*
X63746352Y-32153974D01*
X63662638Y-32287917D01*
X63587295Y-32354889D01*
X63444981Y-32421860D01*
X62909210Y-32421860D01*
X63085010Y-31015460D01*
X63553810Y-31015460D01*
X63679381Y-31082432D01*
X63737981Y-31149403D01*
X63788210Y-31283346D01*
X63771467Y-31417289D01*
X63687752Y-31551232D01*
X63612410Y-31618203D01*
X63470095Y-31685174D01*
X63001295Y-31685174D01*
X64985324Y-32421860D02*
X64315610Y-32421860D01*
X64491410Y-31015460D01*
X65629924Y-31015460D02*
X65487610Y-32153974D01*
X65537838Y-32287917D01*
X65596438Y-32354889D01*
X65722010Y-32421860D01*
X65989895Y-32421860D01*
X66132210Y-32354889D01*
X66207552Y-32287917D01*
X66291267Y-32153974D01*
X66433581Y-31015460D01*
X67019581Y-31685174D02*
X67488381Y-31685174D01*
X67597210Y-32421860D02*
X66927495Y-32421860D01*
X67103295Y-31015460D01*
X67773010Y-31015460D01*
X33065067Y-33413707D02*
X33140410Y-33346736D01*
X33282724Y-33279764D01*
X33617581Y-33279764D01*
X33743152Y-33346736D01*
X33801752Y-33413707D01*
X33851981Y-33547650D01*
X33835238Y-33681593D01*
X33743152Y-33882507D01*
X32839038Y-34686164D01*
X33709667Y-34686164D01*
X34295667Y-34284336D02*
X34965381Y-34284336D01*
X34111495Y-34686164D02*
X34756095Y-33279764D01*
X35049095Y-34686164D01*
X35534638Y-34552221D02*
X35593238Y-34619193D01*
X35517895Y-34686164D01*
X35459295Y-34619193D01*
X35534638Y-34552221D01*
X35517895Y-34686164D01*
X37259152Y-34686164D02*
X37434952Y-33279764D01*
X37769810Y-33279764D01*
X37962352Y-33346736D01*
X38079552Y-33480678D01*
X38129781Y-33614621D01*
X38163267Y-33882507D01*
X38138152Y-34083421D01*
X38037695Y-34351307D01*
X37953981Y-34485250D01*
X37803295Y-34619193D01*
X37594010Y-34686164D01*
X37259152Y-34686164D01*
X38648810Y-34284336D02*
X39318524Y-34284336D01*
X38464638Y-34686164D02*
X39109238Y-33279764D01*
X39402238Y-34686164D01*
X40674695Y-34686164D02*
X40289610Y-34016450D01*
X39871038Y-34686164D02*
X40046838Y-33279764D01*
X40582610Y-33279764D01*
X40708181Y-33346736D01*
X40766781Y-33413707D01*
X40817010Y-33547650D01*
X40791895Y-33748564D01*
X40708181Y-33882507D01*
X40632838Y-33949478D01*
X40490524Y-34016450D01*
X39954752Y-34016450D01*
X41277438Y-34686164D02*
X41453238Y-33279764D01*
X42081095Y-34686164D02*
X41578810Y-33882507D01*
X42256895Y-33279764D02*
X41352781Y-34083421D01*
X44316267Y-33949478D02*
X44508810Y-34016450D01*
X44567410Y-34083421D01*
X44617638Y-34217364D01*
X44592524Y-34418278D01*
X44508810Y-34552221D01*
X44433467Y-34619193D01*
X44291152Y-34686164D01*
X43755381Y-34686164D01*
X43931181Y-33279764D01*
X44399981Y-33279764D01*
X44525552Y-33346736D01*
X44584152Y-33413707D01*
X44634381Y-33547650D01*
X44617638Y-33681593D01*
X44533924Y-33815536D01*
X44458581Y-33882507D01*
X44316267Y-33949478D01*
X43847467Y-33949478D01*
X45831495Y-34686164D02*
X45161781Y-34686164D01*
X45337581Y-33279764D01*
X46476095Y-33279764D02*
X46333781Y-34418278D01*
X46384010Y-34552221D01*
X46442610Y-34619193D01*
X46568181Y-34686164D01*
X46836067Y-34686164D01*
X46978381Y-34619193D01*
X47053724Y-34552221D01*
X47137438Y-34418278D01*
X47279752Y-33279764D01*
X47865752Y-33949478D02*
X48334552Y-33949478D01*
X48443381Y-34686164D02*
X47773667Y-34686164D01*
X47949467Y-33279764D01*
X48619181Y-33279764D01*
X50117667Y-34686164D02*
X50293467Y-33279764D01*
X50829238Y-33279764D01*
X50954810Y-33346736D01*
X51013410Y-33413707D01*
X51063638Y-33547650D01*
X51038524Y-33748564D01*
X50954810Y-33882507D01*
X50879467Y-33949478D01*
X50737152Y-34016450D01*
X50201381Y-34016450D01*
X52327724Y-34686164D02*
X51942638Y-34016450D01*
X51524067Y-34686164D02*
X51699867Y-33279764D01*
X52235638Y-33279764D01*
X52361210Y-33346736D01*
X52419810Y-33413707D01*
X52470038Y-33547650D01*
X52444924Y-33748564D01*
X52361210Y-33882507D01*
X52285867Y-33949478D01*
X52143552Y-34016450D01*
X51607781Y-34016450D01*
X53022552Y-33949478D02*
X53491352Y-33949478D01*
X53600181Y-34686164D02*
X52930467Y-34686164D01*
X53106267Y-33279764D01*
X53775981Y-33279764D01*
X54763810Y-33949478D02*
X54295010Y-33949478D01*
X54202924Y-34686164D02*
X54378724Y-33279764D01*
X55048438Y-33279764D01*
X55500495Y-33949478D02*
X55969295Y-33949478D01*
X56078124Y-34686164D02*
X55408410Y-34686164D01*
X55584210Y-33279764D01*
X56253924Y-33279764D01*
X57484524Y-34686164D02*
X57099438Y-34016450D01*
X56680867Y-34686164D02*
X56856667Y-33279764D01*
X57392438Y-33279764D01*
X57518010Y-33346736D01*
X57576610Y-33413707D01*
X57626838Y-33547650D01*
X57601724Y-33748564D01*
X57518010Y-33882507D01*
X57442667Y-33949478D01*
X57300352Y-34016450D01*
X56764581Y-34016450D01*
X58890924Y-34686164D02*
X58505838Y-34016450D01*
X58087267Y-34686164D02*
X58263067Y-33279764D01*
X58798838Y-33279764D01*
X58924410Y-33346736D01*
X58983010Y-33413707D01*
X59033238Y-33547650D01*
X59008124Y-33748564D01*
X58924410Y-33882507D01*
X58849067Y-33949478D01*
X58706752Y-34016450D01*
X58170981Y-34016450D01*
X59585752Y-33949478D02*
X60054552Y-33949478D01*
X60163381Y-34686164D02*
X59493667Y-34686164D01*
X59669467Y-33279764D01*
X60339181Y-33279764D01*
X60766124Y-34686164D02*
X60941924Y-33279764D01*
X61276781Y-33279764D01*
X61469324Y-33346736D01*
X61586524Y-33480678D01*
X61636752Y-33614621D01*
X61670238Y-33882507D01*
X61645124Y-34083421D01*
X61544667Y-34351307D01*
X61460952Y-34485250D01*
X61310267Y-34619193D01*
X61100981Y-34686164D01*
X60766124Y-34686164D01*
X27724095Y-37808372D02*
X28594724Y-37808372D01*
X28058952Y-38344144D01*
X28259867Y-38344144D01*
X28385438Y-38411115D01*
X28444038Y-38478086D01*
X28494267Y-38612029D01*
X28452410Y-38946886D01*
X28368695Y-39080829D01*
X28293352Y-39147801D01*
X28151038Y-39214772D01*
X27749210Y-39214772D01*
X27623638Y-39147801D01*
X27565038Y-39080829D01*
X29038410Y-39080829D02*
X29097010Y-39147801D01*
X29021667Y-39214772D01*
X28963067Y-39147801D01*
X29038410Y-39080829D01*
X29021667Y-39214772D01*
X30704324Y-39147801D02*
X30896867Y-39214772D01*
X31231724Y-39214772D01*
X31374038Y-39147801D01*
X31449381Y-39080829D01*
X31533095Y-38946886D01*
X31549838Y-38812944D01*
X31499610Y-38679001D01*
X31441010Y-38612029D01*
X31315438Y-38545058D01*
X31055924Y-38478086D01*
X30930352Y-38411115D01*
X30871752Y-38344144D01*
X30821524Y-38210201D01*
X30838267Y-38076258D01*
X30921981Y-37942315D01*
X30997324Y-37875344D01*
X31139638Y-37808372D01*
X31474495Y-37808372D01*
X31667038Y-37875344D01*
X32102352Y-39214772D02*
X32278152Y-37808372D01*
X33441781Y-39214772D02*
X32772067Y-39214772D01*
X32947867Y-37808372D01*
X33910581Y-39214772D02*
X34086381Y-37808372D01*
X34714238Y-39214772D02*
X34211952Y-38411115D01*
X34890038Y-37808372D02*
X33985924Y-38612029D01*
X35258381Y-39147801D02*
X35450924Y-39214772D01*
X35785781Y-39214772D01*
X35928095Y-39147801D01*
X36003438Y-39080829D01*
X36087152Y-38946886D01*
X36103895Y-38812944D01*
X36053667Y-38679001D01*
X35995067Y-38612029D01*
X35869495Y-38545058D01*
X35609981Y-38478086D01*
X35484410Y-38411115D01*
X35425810Y-38344144D01*
X35375581Y-38210201D01*
X35392324Y-38076258D01*
X35476038Y-37942315D01*
X35551381Y-37875344D01*
X35693695Y-37808372D01*
X36028552Y-37808372D01*
X36221095Y-37875344D01*
X37476810Y-39080829D02*
X37401467Y-39147801D01*
X37192181Y-39214772D01*
X37058238Y-39214772D01*
X36865695Y-39147801D01*
X36748495Y-39013858D01*
X36698267Y-38879915D01*
X36664781Y-38612029D01*
X36689895Y-38411115D01*
X36790352Y-38143229D01*
X36874067Y-38009286D01*
X37024752Y-37875344D01*
X37234038Y-37808372D01*
X37367981Y-37808372D01*
X37560524Y-37875344D01*
X37619124Y-37942315D01*
X38866467Y-39214772D02*
X38481381Y-38545058D01*
X38062810Y-39214772D02*
X38238610Y-37808372D01*
X38774381Y-37808372D01*
X38899952Y-37875344D01*
X38958552Y-37942315D01*
X39008781Y-38076258D01*
X38983667Y-38277172D01*
X38899952Y-38411115D01*
X38824610Y-38478086D01*
X38682295Y-38545058D01*
X38146524Y-38545058D01*
X39561295Y-38478086D02*
X40030095Y-38478086D01*
X40138924Y-39214772D02*
X39469210Y-39214772D01*
X39645010Y-37808372D01*
X40314724Y-37808372D01*
X40833752Y-38478086D02*
X41302552Y-38478086D01*
X41411381Y-39214772D02*
X40741667Y-39214772D01*
X40917467Y-37808372D01*
X41587181Y-37808372D01*
X42014124Y-39214772D02*
X42189924Y-37808372D01*
X42817781Y-39214772D01*
X42993581Y-37808372D01*
X45002724Y-37808372D02*
X45270610Y-37808372D01*
X45396181Y-37875344D01*
X45513381Y-38009286D01*
X45546867Y-38277172D01*
X45488267Y-38745972D01*
X45387810Y-39013858D01*
X45237124Y-39147801D01*
X45094810Y-39214772D01*
X44826924Y-39214772D01*
X44701352Y-39147801D01*
X44584152Y-39013858D01*
X44550667Y-38745972D01*
X44609267Y-38277172D01*
X44709724Y-38009286D01*
X44860410Y-37875344D01*
X45002724Y-37808372D01*
X46032410Y-39214772D02*
X46208210Y-37808372D01*
X46836067Y-39214772D01*
X47011867Y-37808372D01*
X49138210Y-38478086D02*
X49330752Y-38545058D01*
X49389352Y-38612029D01*
X49439581Y-38745972D01*
X49414467Y-38946886D01*
X49330752Y-39080829D01*
X49255410Y-39147801D01*
X49113095Y-39214772D01*
X48577324Y-39214772D01*
X48753124Y-37808372D01*
X49221924Y-37808372D01*
X49347495Y-37875344D01*
X49406095Y-37942315D01*
X49456324Y-38076258D01*
X49439581Y-38210201D01*
X49355867Y-38344144D01*
X49280524Y-38411115D01*
X49138210Y-38478086D01*
X48669410Y-38478086D01*
X50427410Y-37808372D02*
X50695295Y-37808372D01*
X50820867Y-37875344D01*
X50938067Y-38009286D01*
X50971552Y-38277172D01*
X50912952Y-38745972D01*
X50812495Y-39013858D01*
X50661810Y-39147801D01*
X50519495Y-39214772D01*
X50251610Y-39214772D01*
X50126038Y-39147801D01*
X50008838Y-39013858D01*
X49975352Y-38745972D01*
X50033952Y-38277172D01*
X50134410Y-38009286D01*
X50285095Y-37875344D01*
X50427410Y-37808372D01*
X51431981Y-37808372D02*
X52235638Y-37808372D01*
X51658010Y-39214772D02*
X51833810Y-37808372D01*
X52528638Y-39214772D02*
X52704438Y-37808372D01*
X52620724Y-38478086D02*
X53424381Y-38478086D01*
X53332295Y-39214772D02*
X53508095Y-37808372D01*
X55014952Y-39147801D02*
X55207495Y-39214772D01*
X55542352Y-39214772D01*
X55684667Y-39147801D01*
X55760010Y-39080829D01*
X55843724Y-38946886D01*
X55860467Y-38812944D01*
X55810238Y-38679001D01*
X55751638Y-38612029D01*
X55626067Y-38545058D01*
X55366552Y-38478086D01*
X55240981Y-38411115D01*
X55182381Y-38344144D01*
X55132152Y-38210201D01*
X55148895Y-38076258D01*
X55232610Y-37942315D01*
X55307952Y-37875344D01*
X55450267Y-37808372D01*
X55785124Y-37808372D01*
X55977667Y-37875344D01*
X56412981Y-39214772D02*
X56588781Y-37808372D01*
X57082695Y-39214772D02*
X57258495Y-37808372D01*
X57593352Y-37808372D01*
X57785895Y-37875344D01*
X57903095Y-38009286D01*
X57953324Y-38143229D01*
X57986810Y-38411115D01*
X57961695Y-38612029D01*
X57861238Y-38879915D01*
X57777524Y-39013858D01*
X57626838Y-39147801D01*
X57417552Y-39214772D01*
X57082695Y-39214772D01*
X58581181Y-38478086D02*
X59049981Y-38478086D01*
X59158810Y-39214772D02*
X58489095Y-39214772D01*
X58664895Y-37808372D01*
X59334610Y-37808372D01*
X61276781Y-37808372D02*
X61544667Y-37808372D01*
X61670238Y-37875344D01*
X61787438Y-38009286D01*
X61820924Y-38277172D01*
X61762324Y-38745972D01*
X61661867Y-39013858D01*
X61511181Y-39147801D01*
X61368867Y-39214772D01*
X61100981Y-39214772D01*
X60975410Y-39147801D01*
X60858210Y-39013858D01*
X60824724Y-38745972D01*
X60883324Y-38277172D01*
X60983781Y-38009286D01*
X61134467Y-37875344D01*
X61276781Y-37808372D01*
X62867352Y-38478086D02*
X62398552Y-38478086D01*
X62306467Y-39214772D02*
X62482267Y-37808372D01*
X63151981Y-37808372D01*
X64558381Y-37808372D02*
X65362038Y-37808372D01*
X64784410Y-39214772D02*
X64960210Y-37808372D01*
X65655038Y-39214772D02*
X65830838Y-37808372D01*
X65747124Y-38478086D02*
X66550781Y-38478086D01*
X66458695Y-39214772D02*
X66634495Y-37808372D01*
X67220495Y-38478086D02*
X67689295Y-38478086D01*
X67798124Y-39214772D02*
X67128410Y-39214772D01*
X67304210Y-37808372D01*
X67973924Y-37808372D01*
X69472410Y-39214772D02*
X69648210Y-37808372D01*
X70183981Y-37808372D01*
X70309552Y-37875344D01*
X70368152Y-37942315D01*
X70418381Y-38076258D01*
X70393267Y-38277172D01*
X70309552Y-38411115D01*
X70234210Y-38478086D01*
X70091895Y-38545058D01*
X69556124Y-38545058D01*
X71699210Y-39080829D02*
X71623867Y-39147801D01*
X71414581Y-39214772D01*
X71280638Y-39214772D01*
X71088095Y-39147801D01*
X70970895Y-39013858D01*
X70920667Y-38879915D01*
X70887181Y-38612029D01*
X70912295Y-38411115D01*
X71012752Y-38143229D01*
X71096467Y-38009286D01*
X71247152Y-37875344D01*
X71456438Y-37808372D01*
X71590381Y-37808372D01*
X71782924Y-37875344D01*
X71841524Y-37942315D01*
X72846095Y-38478086D02*
X73038638Y-38545058D01*
X73097238Y-38612029D01*
X73147467Y-38745972D01*
X73122352Y-38946886D01*
X73038638Y-39080829D01*
X72963295Y-39147801D01*
X72820981Y-39214772D01*
X72285210Y-39214772D01*
X72461010Y-37808372D01*
X72929810Y-37808372D01*
X73055381Y-37875344D01*
X73113981Y-37942315D01*
X73164210Y-38076258D01*
X73147467Y-38210201D01*
X73063752Y-38344144D01*
X72988410Y-38411115D01*
X72846095Y-38478086D01*
X72377295Y-38478086D01*
X73708352Y-39080829D02*
X73766952Y-39147801D01*
X73691610Y-39214772D01*
X73633010Y-39147801D01*
X73708352Y-39080829D01*
X73691610Y-39214772D01*
X73800438Y-38344144D02*
X73859038Y-38411115D01*
X73783695Y-38478086D01*
X73725095Y-38411115D01*
X73800438Y-38344144D01*
X73783695Y-38478086D01*
X33014838Y-40072676D02*
X33885467Y-40072676D01*
X33349695Y-40608448D01*
X33550610Y-40608448D01*
X33676181Y-40675419D01*
X33734781Y-40742390D01*
X33785010Y-40876333D01*
X33743152Y-41211190D01*
X33659438Y-41345133D01*
X33584095Y-41412105D01*
X33441781Y-41479076D01*
X33039952Y-41479076D01*
X32914381Y-41412105D01*
X32855781Y-41345133D01*
X34295667Y-41077248D02*
X34965381Y-41077248D01*
X34111495Y-41479076D02*
X34756095Y-40072676D01*
X35049095Y-41479076D01*
X35534638Y-41345133D02*
X35593238Y-41412105D01*
X35517895Y-41479076D01*
X35459295Y-41412105D01*
X35534638Y-41345133D01*
X35517895Y-41479076D01*
X37200552Y-41412105D02*
X37393095Y-41479076D01*
X37727952Y-41479076D01*
X37870267Y-41412105D01*
X37945610Y-41345133D01*
X38029324Y-41211190D01*
X38046067Y-41077248D01*
X37995838Y-40943305D01*
X37937238Y-40876333D01*
X37811667Y-40809362D01*
X37552152Y-40742390D01*
X37426581Y-40675419D01*
X37367981Y-40608448D01*
X37317752Y-40474505D01*
X37334495Y-40340562D01*
X37418210Y-40206619D01*
X37493552Y-40139648D01*
X37635867Y-40072676D01*
X37970724Y-40072676D01*
X38163267Y-40139648D01*
X38598581Y-41479076D02*
X38774381Y-40072676D01*
X39938010Y-41479076D02*
X39268295Y-41479076D01*
X39444095Y-40072676D01*
X40406810Y-41479076D02*
X40582610Y-40072676D01*
X41210467Y-41479076D02*
X40708181Y-40675419D01*
X41386267Y-40072676D02*
X40482152Y-40876333D01*
X41754610Y-41412105D02*
X41947152Y-41479076D01*
X42282010Y-41479076D01*
X42424324Y-41412105D01*
X42499667Y-41345133D01*
X42583381Y-41211190D01*
X42600124Y-41077248D01*
X42549895Y-40943305D01*
X42491295Y-40876333D01*
X42365724Y-40809362D01*
X42106210Y-40742390D01*
X41980638Y-40675419D01*
X41922038Y-40608448D01*
X41871810Y-40474505D01*
X41888552Y-40340562D01*
X41972267Y-40206619D01*
X42047610Y-40139648D01*
X42189924Y-40072676D01*
X42524781Y-40072676D01*
X42717324Y-40139648D01*
X43973038Y-41345133D02*
X43897695Y-41412105D01*
X43688410Y-41479076D01*
X43554467Y-41479076D01*
X43361924Y-41412105D01*
X43244724Y-41278162D01*
X43194495Y-41144219D01*
X43161010Y-40876333D01*
X43186124Y-40675419D01*
X43286581Y-40407533D01*
X43370295Y-40273590D01*
X43520981Y-40139648D01*
X43730267Y-40072676D01*
X43864210Y-40072676D01*
X44056752Y-40139648D01*
X44115352Y-40206619D01*
X45362695Y-41479076D02*
X44977610Y-40809362D01*
X44559038Y-41479076D02*
X44734838Y-40072676D01*
X45270610Y-40072676D01*
X45396181Y-40139648D01*
X45454781Y-40206619D01*
X45505010Y-40340562D01*
X45479895Y-40541476D01*
X45396181Y-40675419D01*
X45320838Y-40742390D01*
X45178524Y-40809362D01*
X44642752Y-40809362D01*
X46057524Y-40742390D02*
X46526324Y-40742390D01*
X46635152Y-41479076D02*
X45965438Y-41479076D01*
X46141238Y-40072676D01*
X46810952Y-40072676D01*
X47329981Y-40742390D02*
X47798781Y-40742390D01*
X47907610Y-41479076D02*
X47237895Y-41479076D01*
X47413695Y-40072676D01*
X48083410Y-40072676D01*
X48510352Y-41479076D02*
X48686152Y-40072676D01*
X49314010Y-41479076D01*
X49489810Y-40072676D01*
X51875667Y-41345133D02*
X51800324Y-41412105D01*
X51591038Y-41479076D01*
X51457095Y-41479076D01*
X51264552Y-41412105D01*
X51147352Y-41278162D01*
X51097124Y-41144219D01*
X51063638Y-40876333D01*
X51088752Y-40675419D01*
X51189210Y-40407533D01*
X51272924Y-40273590D01*
X51423610Y-40139648D01*
X51632895Y-40072676D01*
X51766838Y-40072676D01*
X51959381Y-40139648D01*
X52017981Y-40206619D01*
X52905352Y-40072676D02*
X53173238Y-40072676D01*
X53298810Y-40139648D01*
X53416010Y-40273590D01*
X53449495Y-40541476D01*
X53390895Y-41010276D01*
X53290438Y-41278162D01*
X53139752Y-41412105D01*
X52997438Y-41479076D01*
X52729552Y-41479076D01*
X52603981Y-41412105D01*
X52486781Y-41278162D01*
X52453295Y-41010276D01*
X52511895Y-40541476D01*
X52612352Y-40273590D01*
X52763038Y-40139648D01*
X52905352Y-40072676D01*
X54604752Y-41479076D02*
X53935038Y-41479076D01*
X54110838Y-40072676D01*
X55517238Y-40072676D02*
X55785124Y-40072676D01*
X55910695Y-40139648D01*
X56027895Y-40273590D01*
X56061381Y-40541476D01*
X56002781Y-41010276D01*
X55902324Y-41278162D01*
X55751638Y-41412105D01*
X55609324Y-41479076D01*
X55341438Y-41479076D01*
X55215867Y-41412105D01*
X55098667Y-41278162D01*
X55065181Y-41010276D01*
X55123781Y-40541476D01*
X55224238Y-40273590D01*
X55374924Y-40139648D01*
X55517238Y-40072676D01*
X57350581Y-41479076D02*
X56965495Y-40809362D01*
X56546924Y-41479076D02*
X56722724Y-40072676D01*
X57258495Y-40072676D01*
X57384067Y-40139648D01*
X57442667Y-40206619D01*
X57492895Y-40340562D01*
X57467781Y-40541476D01*
X57384067Y-40675419D01*
X57308724Y-40742390D01*
X57166410Y-40809362D01*
X56630638Y-40809362D01*
X57970067Y-41345133D02*
X58028667Y-41412105D01*
X57953324Y-41479076D01*
X57894724Y-41412105D01*
X57970067Y-41345133D01*
X57953324Y-41479076D01*
X58062152Y-40608448D02*
X58120752Y-40675419D01*
X58045410Y-40742390D01*
X57986810Y-40675419D01*
X58062152Y-40608448D01*
X58045410Y-40742390D01*
X59736438Y-40072676D02*
X59895495Y-41479076D01*
X60288952Y-40474505D01*
X60431267Y-41479076D01*
X60941924Y-40072676D01*
X61301895Y-41479076D02*
X61477695Y-40072676D01*
X61393981Y-40742390D02*
X62197638Y-40742390D01*
X62105552Y-41479076D02*
X62281352Y-40072676D01*
X62775267Y-41479076D02*
X62951067Y-40072676D01*
X63419867Y-40072676D02*
X64223524Y-40072676D01*
X63645895Y-41479076D02*
X63821695Y-40072676D01*
X64608610Y-40742390D02*
X65077410Y-40742390D01*
X65186238Y-41479076D02*
X64516524Y-41479076D01*
X64692324Y-40072676D01*
X65362038Y-40072676D01*
X28402181Y-45070084D02*
X28284981Y-46007684D01*
X28134295Y-44534313D02*
X27673867Y-45538884D01*
X28544495Y-45538884D01*
X29038410Y-45873741D02*
X29097010Y-45940713D01*
X29021667Y-46007684D01*
X28963067Y-45940713D01*
X29038410Y-45873741D01*
X29021667Y-46007684D01*
X31323810Y-45270998D02*
X31516352Y-45337970D01*
X31574952Y-45404941D01*
X31625181Y-45538884D01*
X31600067Y-45739798D01*
X31516352Y-45873741D01*
X31441010Y-45940713D01*
X31298695Y-46007684D01*
X30762924Y-46007684D01*
X30938724Y-44601284D01*
X31407524Y-44601284D01*
X31533095Y-44668256D01*
X31591695Y-44735227D01*
X31641924Y-44869170D01*
X31625181Y-45003113D01*
X31541467Y-45137056D01*
X31466124Y-45204027D01*
X31323810Y-45270998D01*
X30855010Y-45270998D01*
X32613010Y-44601284D02*
X32880895Y-44601284D01*
X33006467Y-44668256D01*
X33123667Y-44802198D01*
X33157152Y-45070084D01*
X33098552Y-45538884D01*
X32998095Y-45806770D01*
X32847410Y-45940713D01*
X32705095Y-46007684D01*
X32437210Y-46007684D01*
X32311638Y-45940713D01*
X32194438Y-45806770D01*
X32160952Y-45538884D01*
X32219552Y-45070084D01*
X32320010Y-44802198D01*
X32470695Y-44668256D01*
X32613010Y-44601284D01*
X33625952Y-45605856D02*
X34295667Y-45605856D01*
X33441781Y-46007684D02*
X34086381Y-44601284D01*
X34379381Y-46007684D01*
X35651838Y-46007684D02*
X35266752Y-45337970D01*
X34848181Y-46007684D02*
X35023981Y-44601284D01*
X35559752Y-44601284D01*
X35685324Y-44668256D01*
X35743924Y-44735227D01*
X35794152Y-44869170D01*
X35769038Y-45070084D01*
X35685324Y-45204027D01*
X35609981Y-45270998D01*
X35467667Y-45337970D01*
X34931895Y-45337970D01*
X36254581Y-46007684D02*
X36430381Y-44601284D01*
X36765238Y-44601284D01*
X36957781Y-44668256D01*
X37074981Y-44802198D01*
X37125210Y-44936141D01*
X37158695Y-45204027D01*
X37133581Y-45404941D01*
X37033124Y-45672827D01*
X36949410Y-45806770D01*
X36798724Y-45940713D01*
X36589438Y-46007684D01*
X36254581Y-46007684D01*
X39293410Y-45270998D02*
X38824610Y-45270998D01*
X38732524Y-46007684D02*
X38908324Y-44601284D01*
X39578038Y-44601284D01*
X39938010Y-46007684D02*
X40113810Y-44601284D01*
X40607724Y-46007684D02*
X40783524Y-44601284D01*
X41411381Y-46007684D01*
X41587181Y-44601284D01*
X42081095Y-46007684D02*
X42256895Y-44601284D01*
X42692210Y-45940713D02*
X42884752Y-46007684D01*
X43219610Y-46007684D01*
X43361924Y-45940713D01*
X43437267Y-45873741D01*
X43520981Y-45739798D01*
X43537724Y-45605856D01*
X43487495Y-45471913D01*
X43428895Y-45404941D01*
X43303324Y-45337970D01*
X43043810Y-45270998D01*
X42918238Y-45204027D01*
X42859638Y-45137056D01*
X42809410Y-45003113D01*
X42826152Y-44869170D01*
X42909867Y-44735227D01*
X42985210Y-44668256D01*
X43127524Y-44601284D01*
X43462381Y-44601284D01*
X43654924Y-44668256D01*
X44090238Y-46007684D02*
X44266038Y-44601284D01*
X44182324Y-45270998D02*
X44985981Y-45270998D01*
X44893895Y-46007684D02*
X45069695Y-44601284D01*
X45580352Y-45873741D02*
X45638952Y-45940713D01*
X45563610Y-46007684D01*
X45505010Y-45940713D01*
X45580352Y-45873741D01*
X45563610Y-46007684D01*
X45672438Y-45137056D02*
X45731038Y-45204027D01*
X45655695Y-45270998D01*
X45597095Y-45204027D01*
X45672438Y-45137056D01*
X45655695Y-45270998D01*
X47304867Y-46007684D02*
X47480667Y-44601284D01*
X47396952Y-45270998D02*
X48200610Y-45270998D01*
X48108524Y-46007684D02*
X48284324Y-44601284D01*
X48761495Y-45605856D02*
X49431210Y-45605856D01*
X48577324Y-46007684D02*
X49221924Y-44601284D01*
X49514924Y-46007684D01*
X50653438Y-46007684D02*
X49983724Y-46007684D01*
X50159524Y-44601284D01*
X51063638Y-45940713D02*
X51256181Y-46007684D01*
X51591038Y-46007684D01*
X51733352Y-45940713D01*
X51808695Y-45873741D01*
X51892410Y-45739798D01*
X51909152Y-45605856D01*
X51858924Y-45471913D01*
X51800324Y-45404941D01*
X51674752Y-45337970D01*
X51415238Y-45270998D01*
X51289667Y-45204027D01*
X51231067Y-45137056D01*
X51180838Y-45003113D01*
X51197581Y-44869170D01*
X51281295Y-44735227D01*
X51356638Y-44668256D01*
X51498952Y-44601284D01*
X51833810Y-44601284D01*
X52026352Y-44668256D01*
X53976895Y-44601284D02*
X54244781Y-44601284D01*
X54370352Y-44668256D01*
X54487552Y-44802198D01*
X54521038Y-45070084D01*
X54462438Y-45538884D01*
X54361981Y-45806770D01*
X54211295Y-45940713D01*
X54068981Y-46007684D01*
X53801095Y-46007684D01*
X53675524Y-45940713D01*
X53558324Y-45806770D01*
X53524838Y-45538884D01*
X53583438Y-45070084D01*
X53683895Y-44802198D01*
X53834581Y-44668256D01*
X53976895Y-44601284D01*
X55810238Y-46007684D02*
X55425152Y-45337970D01*
X55006581Y-46007684D02*
X55182381Y-44601284D01*
X55718152Y-44601284D01*
X55843724Y-44668256D01*
X55902324Y-44735227D01*
X55952552Y-44869170D01*
X55927438Y-45070084D01*
X55843724Y-45204027D01*
X55768381Y-45270998D01*
X55626067Y-45337970D01*
X55090295Y-45337970D01*
X57576610Y-45270998D02*
X58045410Y-45270998D01*
X58154238Y-46007684D02*
X57484524Y-46007684D01*
X57660324Y-44601284D01*
X58330038Y-44601284D01*
X58756981Y-46007684D02*
X58932781Y-44601284D01*
X59560638Y-46007684D01*
X59736438Y-44601284D01*
X60230352Y-46007684D02*
X60406152Y-44601284D01*
X61804181Y-44668256D02*
X61678610Y-44601284D01*
X61477695Y-44601284D01*
X61268410Y-44668256D01*
X61117724Y-44802198D01*
X61034010Y-44936141D01*
X60933552Y-45204027D01*
X60908438Y-45404941D01*
X60941924Y-45672827D01*
X60992152Y-45806770D01*
X61109352Y-45940713D01*
X61301895Y-46007684D01*
X61435838Y-46007684D01*
X61645124Y-45940713D01*
X61720467Y-45873741D01*
X61779067Y-45404941D01*
X61511181Y-45404941D01*
X28527752Y-49129892D02*
X27858038Y-49129892D01*
X27707352Y-49799606D01*
X27782695Y-49732635D01*
X27925010Y-49665664D01*
X28259867Y-49665664D01*
X28385438Y-49732635D01*
X28444038Y-49799606D01*
X28494267Y-49933549D01*
X28452410Y-50268406D01*
X28368695Y-50402349D01*
X28293352Y-50469321D01*
X28151038Y-50536292D01*
X27816181Y-50536292D01*
X27690610Y-50469321D01*
X27632010Y-50402349D01*
X29038410Y-50402349D02*
X29097010Y-50469321D01*
X29021667Y-50536292D01*
X28963067Y-50469321D01*
X29038410Y-50402349D01*
X29021667Y-50536292D01*
X31432638Y-50536292D02*
X30762924Y-50536292D01*
X30938724Y-49129892D01*
X31993524Y-49799606D02*
X32462324Y-49799606D01*
X32571152Y-50536292D02*
X31901438Y-50536292D01*
X32077238Y-49129892D01*
X32746952Y-49129892D01*
X33157152Y-50134464D02*
X33826867Y-50134464D01*
X32972981Y-50536292D02*
X33617581Y-49129892D01*
X33910581Y-50536292D01*
X34379381Y-50536292D02*
X34555181Y-49129892D01*
X34890038Y-49129892D01*
X35082581Y-49196864D01*
X35199781Y-49330806D01*
X35250010Y-49464749D01*
X35283495Y-49732635D01*
X35258381Y-49933549D01*
X35157924Y-50201435D01*
X35074210Y-50335378D01*
X34923524Y-50469321D01*
X34714238Y-50536292D01*
X34379381Y-50536292D01*
X35877867Y-49799606D02*
X36346667Y-49799606D01*
X36455495Y-50536292D02*
X35785781Y-50536292D01*
X35961581Y-49129892D01*
X36631295Y-49129892D01*
X37058238Y-50536292D02*
X37234038Y-49129892D01*
X37568895Y-49129892D01*
X37761438Y-49196864D01*
X37878638Y-49330806D01*
X37928867Y-49464749D01*
X37962352Y-49732635D01*
X37937238Y-49933549D01*
X37836781Y-50201435D01*
X37753067Y-50335378D01*
X37602381Y-50469321D01*
X37393095Y-50536292D01*
X37058238Y-50536292D01*
X28460781Y-53658500D02*
X28192895Y-53658500D01*
X28050581Y-53725472D01*
X27975238Y-53792443D01*
X27816181Y-53993357D01*
X27715724Y-54261243D01*
X27648752Y-54797014D01*
X27698981Y-54930957D01*
X27757581Y-54997929D01*
X27883152Y-55064900D01*
X28151038Y-55064900D01*
X28293352Y-54997929D01*
X28368695Y-54930957D01*
X28452410Y-54797014D01*
X28494267Y-54462157D01*
X28444038Y-54328214D01*
X28385438Y-54261243D01*
X28259867Y-54194272D01*
X27991981Y-54194272D01*
X27849667Y-54261243D01*
X27774324Y-54328214D01*
X27690610Y-54462157D01*
X29038410Y-54930957D02*
X29097010Y-54997929D01*
X29021667Y-55064900D01*
X28963067Y-54997929D01*
X29038410Y-54930957D01*
X29021667Y-55064900D01*
X30855010Y-53792443D02*
X30930352Y-53725472D01*
X31072667Y-53658500D01*
X31407524Y-53658500D01*
X31533095Y-53725472D01*
X31591695Y-53792443D01*
X31641924Y-53926386D01*
X31625181Y-54060329D01*
X31533095Y-54261243D01*
X30628981Y-55064900D01*
X31499610Y-55064900D01*
X33843610Y-55064900D02*
X33173895Y-55064900D01*
X33349695Y-53658500D01*
X34295667Y-54663072D02*
X34965381Y-54663072D01*
X34111495Y-55064900D02*
X34756095Y-53658500D01*
X35049095Y-55064900D01*
X35869495Y-54395186D02*
X35785781Y-55064900D01*
X35492781Y-53658500D02*
X35869495Y-54395186D01*
X36430381Y-53658500D01*
X36815467Y-54328214D02*
X37284267Y-54328214D01*
X37393095Y-55064900D02*
X36723381Y-55064900D01*
X36899181Y-53658500D01*
X37568895Y-53658500D01*
X38799495Y-55064900D02*
X38414410Y-54395186D01*
X37995838Y-55064900D02*
X38171638Y-53658500D01*
X38707410Y-53658500D01*
X38832981Y-53725472D01*
X38891581Y-53792443D01*
X38941810Y-53926386D01*
X38916695Y-54127300D01*
X38832981Y-54261243D01*
X38757638Y-54328214D01*
X38615324Y-54395186D01*
X38079552Y-54395186D01*
X40473781Y-55064900D02*
X40649581Y-53658500D01*
X41185352Y-53658500D01*
X41310924Y-53725472D01*
X41369524Y-53792443D01*
X41419752Y-53926386D01*
X41394638Y-54127300D01*
X41310924Y-54261243D01*
X41235581Y-54328214D01*
X41093267Y-54395186D01*
X40557495Y-54395186D01*
X42700581Y-54930957D02*
X42625238Y-54997929D01*
X42415952Y-55064900D01*
X42282010Y-55064900D01*
X42089467Y-54997929D01*
X41972267Y-54863986D01*
X41922038Y-54730043D01*
X41888552Y-54462157D01*
X41913667Y-54261243D01*
X42014124Y-53993357D01*
X42097838Y-53859414D01*
X42248524Y-53725472D01*
X42457810Y-53658500D01*
X42591752Y-53658500D01*
X42784295Y-53725472D01*
X42842895Y-53792443D01*
X43847467Y-54328214D02*
X44040010Y-54395186D01*
X44098610Y-54462157D01*
X44148838Y-54596100D01*
X44123724Y-54797014D01*
X44040010Y-54930957D01*
X43964667Y-54997929D01*
X43822352Y-55064900D01*
X43286581Y-55064900D01*
X43462381Y-53658500D01*
X43931181Y-53658500D01*
X44056752Y-53725472D01*
X44115352Y-53792443D01*
X44165581Y-53926386D01*
X44148838Y-54060329D01*
X44065124Y-54194272D01*
X43989781Y-54261243D01*
X43847467Y-54328214D01*
X43378667Y-54328214D01*
X33751524Y-55922804D02*
X33483638Y-55922804D01*
X33341324Y-55989776D01*
X33265981Y-56056747D01*
X33106924Y-56257661D01*
X33006467Y-56525547D01*
X32939495Y-57061318D01*
X32989724Y-57195261D01*
X33048324Y-57262233D01*
X33173895Y-57329204D01*
X33441781Y-57329204D01*
X33584095Y-57262233D01*
X33659438Y-57195261D01*
X33743152Y-57061318D01*
X33785010Y-56726461D01*
X33734781Y-56592518D01*
X33676181Y-56525547D01*
X33550610Y-56458576D01*
X33282724Y-56458576D01*
X33140410Y-56525547D01*
X33065067Y-56592518D01*
X32981352Y-56726461D01*
X34295667Y-56927376D02*
X34965381Y-56927376D01*
X34111495Y-57329204D02*
X34756095Y-55922804D01*
X35049095Y-57329204D01*
X35534638Y-57195261D02*
X35593238Y-57262233D01*
X35517895Y-57329204D01*
X35459295Y-57262233D01*
X35534638Y-57195261D01*
X35517895Y-57329204D01*
X38079552Y-57195261D02*
X38004210Y-57262233D01*
X37794924Y-57329204D01*
X37660981Y-57329204D01*
X37468438Y-57262233D01*
X37351238Y-57128290D01*
X37301010Y-56994347D01*
X37267524Y-56726461D01*
X37292638Y-56525547D01*
X37393095Y-56257661D01*
X37476810Y-56123718D01*
X37627495Y-55989776D01*
X37836781Y-55922804D01*
X37970724Y-55922804D01*
X38163267Y-55989776D01*
X38221867Y-56056747D01*
X39109238Y-55922804D02*
X39377124Y-55922804D01*
X39502695Y-55989776D01*
X39619895Y-56123718D01*
X39653381Y-56391604D01*
X39594781Y-56860404D01*
X39494324Y-57128290D01*
X39343638Y-57262233D01*
X39201324Y-57329204D01*
X38933438Y-57329204D01*
X38807867Y-57262233D01*
X38690667Y-57128290D01*
X38657181Y-56860404D01*
X38715781Y-56391604D01*
X38816238Y-56123718D01*
X38966924Y-55989776D01*
X39109238Y-55922804D01*
X40138924Y-57329204D02*
X40314724Y-55922804D01*
X40850495Y-55922804D01*
X40976067Y-55989776D01*
X41034667Y-56056747D01*
X41084895Y-56190690D01*
X41059781Y-56391604D01*
X40976067Y-56525547D01*
X40900724Y-56592518D01*
X40758410Y-56659490D01*
X40222638Y-56659490D01*
X41545324Y-57329204D02*
X41721124Y-55922804D01*
X42256895Y-55922804D01*
X42382467Y-55989776D01*
X42441067Y-56056747D01*
X42491295Y-56190690D01*
X42466181Y-56391604D01*
X42382467Y-56525547D01*
X42307124Y-56592518D01*
X42164810Y-56659490D01*
X41629038Y-56659490D01*
X43043810Y-56592518D02*
X43512610Y-56592518D01*
X43621438Y-57329204D02*
X42951724Y-57329204D01*
X43127524Y-55922804D01*
X43797238Y-55922804D01*
X45027838Y-57329204D02*
X44642752Y-56659490D01*
X44224181Y-57329204D02*
X44399981Y-55922804D01*
X44935752Y-55922804D01*
X45061324Y-55989776D01*
X45119924Y-56056747D01*
X45170152Y-56190690D01*
X45145038Y-56391604D01*
X45061324Y-56525547D01*
X44985981Y-56592518D01*
X44843667Y-56659490D01*
X44307895Y-56659490D01*
X46743981Y-55922804D02*
X46903038Y-57329204D01*
X47296495Y-56324633D01*
X47438810Y-57329204D01*
X47949467Y-55922804D01*
X48401524Y-56592518D02*
X48870324Y-56592518D01*
X48979152Y-57329204D02*
X48309438Y-57329204D01*
X48485238Y-55922804D01*
X49154952Y-55922804D01*
X49581895Y-57329204D02*
X49757695Y-55922804D01*
X51155724Y-55989776D02*
X51030152Y-55922804D01*
X50829238Y-55922804D01*
X50619952Y-55989776D01*
X50469267Y-56123718D01*
X50385552Y-56257661D01*
X50285095Y-56525547D01*
X50259981Y-56726461D01*
X50293467Y-56994347D01*
X50343695Y-57128290D01*
X50460895Y-57262233D01*
X50653438Y-57329204D01*
X50787381Y-57329204D01*
X50996667Y-57262233D01*
X51072010Y-57195261D01*
X51130610Y-56726461D01*
X50862724Y-56726461D01*
X51658010Y-57329204D02*
X51833810Y-55922804D01*
X51750095Y-56592518D02*
X52553752Y-56592518D01*
X52461667Y-57329204D02*
X52637467Y-55922804D01*
X53106267Y-55922804D02*
X53909924Y-55922804D01*
X53332295Y-57329204D02*
X53508095Y-55922804D01*
X54219667Y-57195261D02*
X54278267Y-57262233D01*
X54202924Y-57329204D01*
X54144324Y-57262233D01*
X54219667Y-57195261D01*
X54202924Y-57329204D01*
X54311752Y-56458576D02*
X54370352Y-56525547D01*
X54295010Y-56592518D01*
X54236410Y-56525547D01*
X54311752Y-56458576D01*
X54295010Y-56592518D01*
X56680867Y-57329204D02*
X55877210Y-57329204D01*
X56279038Y-57329204D02*
X56454838Y-55922804D01*
X56295781Y-56123718D01*
X56145095Y-56257661D01*
X56002781Y-56324633D01*
X57300352Y-57195261D02*
X57358952Y-57262233D01*
X57283610Y-57329204D01*
X57225010Y-57262233D01*
X57300352Y-57195261D01*
X57283610Y-57329204D01*
X58397010Y-55922804D02*
X58530952Y-55922804D01*
X58656524Y-55989776D01*
X58715124Y-56056747D01*
X58765352Y-56190690D01*
X58798838Y-56458576D01*
X58756981Y-56793433D01*
X58656524Y-57061318D01*
X58572810Y-57195261D01*
X58497467Y-57262233D01*
X58355152Y-57329204D01*
X58221210Y-57329204D01*
X58095638Y-57262233D01*
X58037038Y-57195261D01*
X57986810Y-57061318D01*
X57953324Y-56793433D01*
X57995181Y-56458576D01*
X58095638Y-56190690D01*
X58179352Y-56056747D01*
X58254695Y-55989776D01*
X58397010Y-55922804D01*
X60807981Y-55922804D02*
X61075867Y-55922804D01*
X61201438Y-55989776D01*
X61318638Y-56123718D01*
X61352124Y-56391604D01*
X61293524Y-56860404D01*
X61193067Y-57128290D01*
X61042381Y-57262233D01*
X60900067Y-57329204D01*
X60632181Y-57329204D01*
X60506610Y-57262233D01*
X60389410Y-57128290D01*
X60355924Y-56860404D01*
X60414524Y-56391604D01*
X60514981Y-56123718D01*
X60665667Y-55989776D01*
X60807981Y-55922804D01*
X61879524Y-55922804D02*
X62817124Y-55922804D01*
X61703724Y-57329204D01*
X62641324Y-57329204D01*
X64248638Y-57329204D02*
X64424438Y-55922804D01*
X64960210Y-55922804D01*
X65085781Y-55989776D01*
X65144381Y-56056747D01*
X65194610Y-56190690D01*
X65169495Y-56391604D01*
X65085781Y-56525547D01*
X65010438Y-56592518D01*
X64868124Y-56659490D01*
X64332352Y-56659490D01*
X65747124Y-56592518D02*
X66215924Y-56592518D01*
X66324752Y-57329204D02*
X65655038Y-57329204D01*
X65830838Y-55922804D01*
X66500552Y-55922804D01*
X67731152Y-57329204D02*
X67346067Y-56659490D01*
X66927495Y-57329204D02*
X67103295Y-55922804D01*
X67639067Y-55922804D01*
X67764638Y-55989776D01*
X67823238Y-56056747D01*
X67873467Y-56190690D01*
X67848352Y-56391604D01*
X67764638Y-56525547D01*
X67689295Y-56592518D01*
X67546981Y-56659490D01*
X67011210Y-56659490D01*
X70075152Y-57329204D02*
X69405438Y-57329204D01*
X69581238Y-55922804D01*
X70527210Y-56927376D02*
X71196924Y-56927376D01*
X70343038Y-57329204D02*
X70987638Y-55922804D01*
X71280638Y-57329204D01*
X72101038Y-56659490D02*
X72017324Y-57329204D01*
X71724324Y-55922804D02*
X72101038Y-56659490D01*
X72661924Y-55922804D01*
X73047010Y-56592518D02*
X73515810Y-56592518D01*
X73624638Y-57329204D02*
X72954924Y-57329204D01*
X73130724Y-55922804D01*
X73800438Y-55922804D01*
X75031038Y-57329204D02*
X74645952Y-56659490D01*
X74227381Y-57329204D02*
X74403181Y-55922804D01*
X74938952Y-55922804D01*
X75064524Y-55989776D01*
X75123124Y-56056747D01*
X75173352Y-56190690D01*
X75148238Y-56391604D01*
X75064524Y-56525547D01*
X74989181Y-56592518D01*
X74846867Y-56659490D01*
X74311095Y-56659490D01*
D11*
X179471428Y-78553571D02*
X179471428Y-77791666D01*
X179852380Y-78172619D02*
X179090476Y-78172619D01*
X178804761Y-76601190D02*
X180090476Y-77458333D01*
X179471428Y-76267857D02*
X179471428Y-75505952D01*
X179852380Y-73744047D02*
X179852380Y-74315476D01*
X179852380Y-74029761D02*
X178852380Y-74029761D01*
X178995238Y-74125000D01*
X179090476Y-74220238D01*
X179138095Y-74315476D01*
X178852380Y-73125000D02*
X178852380Y-73029761D01*
X178900000Y-72934523D01*
X178947619Y-72886904D01*
X179042857Y-72839285D01*
X179233333Y-72791666D01*
X179471428Y-72791666D01*
X179661904Y-72839285D01*
X179757142Y-72886904D01*
X179804761Y-72934523D01*
X179852380Y-73029761D01*
X179852380Y-73125000D01*
X179804761Y-73220238D01*
X179757142Y-73267857D01*
X179661904Y-73315476D01*
X179471428Y-73363095D01*
X179233333Y-73363095D01*
X179042857Y-73315476D01*
X178947619Y-73267857D01*
X178900000Y-73220238D01*
X178852380Y-73125000D01*
X179852380Y-72410714D02*
X178852380Y-71648809D01*
X178852380Y-72267857D02*
X178900000Y-72172619D01*
X178995238Y-72125000D01*
X179090476Y-72172619D01*
X179138095Y-72267857D01*
X179090476Y-72363095D01*
X178995238Y-72410714D01*
X178900000Y-72363095D01*
X178852380Y-72267857D01*
X179804761Y-71696428D02*
X179709523Y-71648809D01*
X179614285Y-71696428D01*
X179566666Y-71791666D01*
X179614285Y-71886904D01*
X179709523Y-71934523D01*
X179804761Y-71886904D01*
X179852380Y-71791666D01*
X179804761Y-71696428D01*
X134971428Y-127171428D02*
X135733333Y-127171428D01*
X135352380Y-127552380D02*
X135352380Y-126790476D01*
X136923809Y-126504761D02*
X136066666Y-127790476D01*
X137257142Y-127171428D02*
X138019047Y-127171428D01*
X139780952Y-127552380D02*
X139209523Y-127552380D01*
X139495238Y-127552380D02*
X139495238Y-126552380D01*
X139400000Y-126695238D01*
X139304761Y-126790476D01*
X139209523Y-126838095D01*
X140400000Y-126552380D02*
X140495238Y-126552380D01*
X140590476Y-126600000D01*
X140638095Y-126647619D01*
X140685714Y-126742857D01*
X140733333Y-126933333D01*
X140733333Y-127171428D01*
X140685714Y-127361904D01*
X140638095Y-127457142D01*
X140590476Y-127504761D01*
X140495238Y-127552380D01*
X140400000Y-127552380D01*
X140304761Y-127504761D01*
X140257142Y-127457142D01*
X140209523Y-127361904D01*
X140161904Y-127171428D01*
X140161904Y-126933333D01*
X140209523Y-126742857D01*
X140257142Y-126647619D01*
X140304761Y-126600000D01*
X140400000Y-126552380D01*
X141114285Y-127552380D02*
X141876190Y-126552380D01*
X141257142Y-126552380D02*
X141352380Y-126600000D01*
X141400000Y-126695238D01*
X141352380Y-126790476D01*
X141257142Y-126838095D01*
X141161904Y-126790476D01*
X141114285Y-126695238D01*
X141161904Y-126600000D01*
X141257142Y-126552380D01*
X141828571Y-127504761D02*
X141876190Y-127409523D01*
X141828571Y-127314285D01*
X141733333Y-127266666D01*
X141638095Y-127314285D01*
X141590476Y-127409523D01*
X141638095Y-127504761D01*
X141733333Y-127552380D01*
X141828571Y-127504761D01*
X127276470Y-126792865D02*
X127895517Y-126793597D01*
X127561734Y-127174155D01*
X127704591Y-127174324D01*
X127799773Y-127222056D01*
X127847336Y-127269731D01*
X127894842Y-127365025D01*
X127894561Y-127603120D01*
X127846829Y-127698302D01*
X127799154Y-127745865D01*
X127703859Y-127793371D01*
X127418145Y-127793034D01*
X127322964Y-127745302D01*
X127275401Y-127697627D01*
X128323019Y-127698865D02*
X128370582Y-127746540D01*
X128322907Y-127794103D01*
X128275344Y-127746428D01*
X128323019Y-127698865D01*
X128322907Y-127794103D01*
X128705041Y-126794554D02*
X129324088Y-126795286D01*
X128990304Y-127175844D01*
X129133161Y-127176013D01*
X129228343Y-127223744D01*
X129275906Y-127271420D01*
X129323412Y-127366714D01*
X129323131Y-127604809D01*
X129275399Y-127699991D01*
X129227724Y-127747553D01*
X129132430Y-127795060D01*
X128846716Y-127794722D01*
X128751534Y-127746991D01*
X128703971Y-127699315D01*
X129657421Y-126795680D02*
X130276468Y-126796412D01*
X129942685Y-127176970D01*
X130085542Y-127177138D01*
X130180724Y-127224870D01*
X130228286Y-127272545D01*
X130275793Y-127367840D01*
X130275511Y-127605935D01*
X130227780Y-127701117D01*
X130180104Y-127748679D01*
X130084810Y-127796186D01*
X129799096Y-127795848D01*
X129703914Y-127748116D01*
X129656351Y-127700441D01*
X130895515Y-126797143D02*
X130990753Y-126797256D01*
X131085935Y-126844987D01*
X131133498Y-126892663D01*
X131181004Y-126987957D01*
X131228398Y-127178489D01*
X131228117Y-127416584D01*
X131180273Y-127607004D01*
X131132541Y-127702186D01*
X131084866Y-127749749D01*
X130989571Y-127797255D01*
X130894333Y-127797143D01*
X130799152Y-127749411D01*
X130751589Y-127701736D01*
X130704082Y-127606441D01*
X130656689Y-127415909D01*
X130656970Y-127177814D01*
X130704814Y-126987394D01*
X130752546Y-126892212D01*
X130800221Y-126844650D01*
X130895515Y-126797143D01*
X131562182Y-126797931D02*
X132228848Y-126798719D01*
X131799095Y-127798212D01*
X133370522Y-127800070D02*
X133371310Y-127133403D01*
X133371704Y-126800070D02*
X133324029Y-126847633D01*
X133371591Y-126895308D01*
X133419267Y-126847746D01*
X133371704Y-126800070D01*
X133371591Y-126895308D01*
X133847500Y-127133966D02*
X133846712Y-127800632D01*
X133847388Y-127229204D02*
X133895063Y-127181641D01*
X133990357Y-127134135D01*
X134133214Y-127134304D01*
X134228396Y-127182035D01*
X134275902Y-127277330D01*
X134275283Y-127801139D01*
X88524409Y-126475000D02*
X88521388Y-129031097D01*
X173124409Y-126575000D02*
X173121388Y-129131097D01*
X88522081Y-128444677D02*
X173122081Y-128544677D01*
X88522081Y-128444677D02*
X173122081Y-128544677D01*
X88522081Y-128444677D02*
X89647891Y-129032429D01*
X88522081Y-128444677D02*
X89649277Y-127859588D01*
X173122081Y-128544677D02*
X171996271Y-127956925D01*
X173122081Y-128544677D02*
X171994885Y-129129766D01*
X178864939Y-86547238D02*
X178866334Y-85928192D01*
X179246534Y-86262383D01*
X179246856Y-86119527D01*
X179294689Y-86024396D01*
X179342416Y-85976884D01*
X179437761Y-85929480D01*
X179675855Y-85930017D01*
X179770986Y-85977850D01*
X179818498Y-86025577D01*
X179865902Y-86120922D01*
X179865258Y-86406635D01*
X179817424Y-86501766D01*
X179769698Y-86549277D01*
X179772059Y-85501661D02*
X179819785Y-85454149D01*
X179867297Y-85501876D01*
X179819571Y-85549387D01*
X179772059Y-85501661D01*
X179867297Y-85501876D01*
X178868802Y-84832957D02*
X178869017Y-84737719D01*
X178916850Y-84642589D01*
X178964577Y-84595077D01*
X179059922Y-84547673D01*
X179250505Y-84500483D01*
X179488599Y-84501020D01*
X179678968Y-84549068D01*
X179774098Y-84596901D01*
X179821610Y-84644628D01*
X179869014Y-84739973D01*
X179868800Y-84835211D01*
X179820966Y-84930341D01*
X179773240Y-84977853D01*
X179677895Y-85025257D01*
X179487312Y-85072447D01*
X179249217Y-85071910D01*
X179058848Y-85023862D01*
X178963718Y-84976028D01*
X178916206Y-84928302D01*
X178868802Y-84832957D01*
X178871592Y-83594865D02*
X178870519Y-84071054D01*
X179346601Y-84119746D01*
X179299090Y-84072020D01*
X179251685Y-83976675D01*
X179252222Y-83738580D01*
X179300055Y-83643450D01*
X179347782Y-83595938D01*
X179443127Y-83548534D01*
X179681221Y-83549070D01*
X179776352Y-83596904D01*
X179823864Y-83644630D01*
X179871268Y-83739975D01*
X179870731Y-83978070D01*
X179822898Y-84073201D01*
X179775171Y-84120712D01*
X178872451Y-83213914D02*
X178873953Y-82547249D01*
X179872985Y-82978073D01*
X179875990Y-81644743D02*
X179874702Y-82216170D01*
X179875346Y-81930456D02*
X178875349Y-81928202D01*
X179017991Y-82023762D01*
X179113014Y-82119215D01*
X179160418Y-82214560D01*
X179878673Y-80454269D02*
X179212008Y-80452767D01*
X178878675Y-80452016D02*
X178926187Y-80499742D01*
X178973913Y-80452230D01*
X178926402Y-80404504D01*
X178878675Y-80452016D01*
X178973913Y-80452230D01*
X179213081Y-79976578D02*
X179879746Y-79978080D01*
X179308319Y-79976792D02*
X179260807Y-79929066D01*
X179213403Y-79833721D01*
X179213725Y-79690864D01*
X179261559Y-79595734D01*
X179356904Y-79548329D01*
X179880712Y-79549510D01*
X179624999Y-44176127D02*
X181244468Y-44179777D01*
X179449999Y-121826127D02*
X181069468Y-121829777D01*
X180658049Y-44178455D02*
X180483049Y-121828455D01*
X180658049Y-44178455D02*
X180483049Y-121828455D01*
X180658049Y-44178455D02*
X180069091Y-45303634D01*
X180658049Y-44178455D02*
X181241929Y-45306278D01*
X180483049Y-121828455D02*
X181072007Y-120703276D01*
X180483049Y-121828455D02*
X179899169Y-120700632D01*
M02*
