%TF.GenerationSoftware,KiCad,Pcbnew,(6.0.4-0)*%
%TF.CreationDate,2022-04-10T15:11:43-07:00*%
%TF.ProjectId,TAU REV F,54415520-5245-4562-9046-2e6b69636164,F*%
%TF.SameCoordinates,Original*%
%TF.FileFunction,Copper,L2,Bot*%
%TF.FilePolarity,Positive*%
%FSLAX46Y46*%
G04 Gerber Fmt 4.6, Leading zero omitted, Abs format (unit mm)*
G04 Created by KiCad (PCBNEW (6.0.4-0)) date 2022-04-10 15:11:43*
%MOMM*%
%LPD*%
G01*
G04 APERTURE LIST*
G04 Aperture macros list*
%AMRoundRect*
0 Rectangle with rounded corners*
0 $1 Rounding radius*
0 $2 $3 $4 $5 $6 $7 $8 $9 X,Y pos of 4 corners*
0 Add a 4 corners polygon primitive as box body*
4,1,4,$2,$3,$4,$5,$6,$7,$8,$9,$2,$3,0*
0 Add four circle primitives for the rounded corners*
1,1,$1+$1,$2,$3*
1,1,$1+$1,$4,$5*
1,1,$1+$1,$6,$7*
1,1,$1+$1,$8,$9*
0 Add four rect primitives between the rounded corners*
20,1,$1+$1,$2,$3,$4,$5,0*
20,1,$1+$1,$4,$5,$6,$7,0*
20,1,$1+$1,$6,$7,$8,$9,0*
20,1,$1+$1,$8,$9,$2,$3,0*%
G04 Aperture macros list end*
%TA.AperFunction,ComponentPad*%
%ADD10R,1.651000X1.651000*%
%TD*%
%TA.AperFunction,ComponentPad*%
%ADD11C,1.651000*%
%TD*%
%TA.AperFunction,ComponentPad*%
%ADD12O,1.600000X1.200000*%
%TD*%
%TA.AperFunction,ComponentPad*%
%ADD13O,1.200000X1.200000*%
%TD*%
%TA.AperFunction,ComponentPad*%
%ADD14C,2.240000*%
%TD*%
%TA.AperFunction,ComponentPad*%
%ADD15C,2.740000*%
%TD*%
%TA.AperFunction,ComponentPad*%
%ADD16RoundRect,0.250000X-0.600000X-0.675000X0.600000X-0.675000X0.600000X0.675000X-0.600000X0.675000X0*%
%TD*%
%TA.AperFunction,ComponentPad*%
%ADD17O,1.700000X1.850000*%
%TD*%
%TA.AperFunction,ViaPad*%
%ADD18C,0.800000*%
%TD*%
%TA.AperFunction,Conductor*%
%ADD19C,0.250000*%
%TD*%
G04 APERTURE END LIST*
D10*
%TO.P,U4,1,ADJ*%
%TO.N,Net-(R5-Pad2)*%
X112929600Y-76306800D03*
D11*
%TO.P,U4,2,OUTPUT*%
%TO.N,Net-(C15-Pad2)*%
X115469600Y-76306800D03*
%TO.P,U4,3,INPUT*%
%TO.N,Net-(C18-Pad1)*%
X118009600Y-76306800D03*
%TD*%
D12*
%TO.P,D1,1,K*%
%TO.N,Net-(C1-Pad1)*%
X97590276Y-99114724D03*
D13*
%TO.P,D1,2,C*%
%TO.N,0*%
X98860276Y-100384724D03*
%TO.P,D1,3,A*%
%TO.N,Net-(C3-Pad2)*%
X100130276Y-99114724D03*
%TD*%
D14*
%TO.P,J3,1,In*%
%TO.N,Net-(C10-Pad2)*%
X150125000Y-111850000D03*
D15*
%TO.P,J3,2,Ext*%
%TO.N,0*%
X147585000Y-114390000D03*
X152665000Y-114390000D03*
X147585000Y-109310000D03*
X152665000Y-109310000D03*
%TD*%
D14*
%TO.P,J4,1,In*%
%TO.N,Net-(C11-Pad2)*%
X164475000Y-112050000D03*
D15*
%TO.P,J4,2,Ext*%
%TO.N,0*%
X167015000Y-109510000D03*
X167015000Y-114590000D03*
X161935000Y-109510000D03*
X161935000Y-114590000D03*
%TD*%
D16*
%TO.P,J1,1,Pin_1*%
%TO.N,Net-(J1-Pad1)*%
X98400000Y-53900000D03*
D17*
%TO.P,J1,2,Pin_2*%
%TO.N,0*%
X100900000Y-53900000D03*
%TD*%
D10*
%TO.P,U3,1,ADJ*%
%TO.N,Net-(R7-Pad2)*%
X112904600Y-68706800D03*
D11*
%TO.P,U3,2,OUTPUT*%
%TO.N,Net-(C12-Pad1)*%
X115444600Y-68706800D03*
%TO.P,U3,3,INPUT*%
%TO.N,Net-(C18-Pad1)*%
X117984600Y-68706800D03*
%TD*%
D18*
%TO.N,0*%
X159025000Y-71275000D03*
X90575000Y-95300000D03*
X161150000Y-84725000D03*
X112275000Y-88525000D03*
X151825000Y-99250000D03*
X92200000Y-63450000D03*
X92475000Y-71600000D03*
X111375000Y-48350000D03*
X119787500Y-101487500D03*
X127950000Y-58500000D03*
X168700000Y-80975000D03*
X168050000Y-92075000D03*
X140000000Y-115825000D03*
X127550000Y-102750000D03*
X163775000Y-60425000D03*
X164850000Y-70450000D03*
X133300000Y-103050000D03*
X92300000Y-83550000D03*
X135475000Y-71825000D03*
X92650000Y-108500000D03*
X93100000Y-47775000D03*
X110325000Y-112425000D03*
X114750000Y-101325000D03*
X150400000Y-64025000D03*
X149087500Y-86312500D03*
X141500000Y-104500000D03*
X159525000Y-104625000D03*
X124200000Y-92650000D03*
X124125000Y-82725000D03*
%TO.N,Net-(C2-Pad2)*%
X104075000Y-104900000D03*
X124925000Y-101800000D03*
%TO.N,Net-(C3-Pad1)*%
X127550000Y-103775000D03*
X125475000Y-114050000D03*
%TO.N,Net-(C4-Pad1)*%
X121525000Y-112150000D03*
X134550000Y-96650000D03*
X142425000Y-95000000D03*
%TO.N,Net-(C15-Pad2)*%
X114750000Y-103225000D03*
X112275000Y-86625000D03*
%TO.N,Net-(C7-Pad2)*%
X132400000Y-85900000D03*
X143175000Y-91425000D03*
X147200000Y-86350000D03*
%TO.N,Net-(C9-Pad2)*%
X144425000Y-97525000D03*
X140925000Y-96850000D03*
%TO.N,Net-(C18-Pad1)*%
X99975000Y-65025000D03*
%TO.N,Net-(R7-Pad2)*%
X118118750Y-59031250D03*
%TD*%
D19*
%TO.N,0*%
X90575000Y-95300000D02*
X95659724Y-100384724D01*
X168050000Y-91625000D02*
X161150000Y-84725000D01*
X159025000Y-71275000D02*
X161150000Y-73400000D01*
X155625000Y-106350000D02*
X155625000Y-103425000D01*
X129962500Y-102537500D02*
X130050000Y-102450000D01*
X154150000Y-96925000D02*
X154150000Y-86425000D01*
X130050000Y-102450000D02*
X130050000Y-100100000D01*
X159025000Y-71275000D02*
X157650000Y-71275000D01*
X96650000Y-117400000D02*
X92875000Y-113625000D01*
X110325000Y-112425000D02*
X110325000Y-116325000D01*
X124125000Y-77600000D02*
X124125000Y-82725000D01*
X155625000Y-103425000D02*
X155625000Y-103050000D01*
X127550000Y-102750000D02*
X129750000Y-102750000D01*
X135475000Y-71825000D02*
X129900000Y-71825000D01*
X153975000Y-86250000D02*
X159625000Y-86250000D01*
X161900000Y-73400000D02*
X161150000Y-73400000D01*
X95659724Y-100384724D02*
X98860276Y-100384724D01*
X159625000Y-86250000D02*
X161150000Y-84725000D01*
X109250000Y-117400000D02*
X96650000Y-117400000D01*
X121425000Y-99850000D02*
X119787500Y-101487500D01*
X163775000Y-60425000D02*
X163775000Y-69375000D01*
X110325000Y-116325000D02*
X109250000Y-117400000D01*
X130050000Y-100100000D02*
X129800000Y-99850000D01*
X164900000Y-80975000D02*
X161150000Y-84725000D01*
X168050000Y-92075000D02*
X168050000Y-91625000D01*
X149150000Y-86250000D02*
X149087500Y-86312500D01*
X153975000Y-86250000D02*
X149150000Y-86250000D01*
X168700000Y-80975000D02*
X164900000Y-80975000D01*
X157650000Y-71275000D02*
X150400000Y-64025000D01*
X133300000Y-103050000D02*
X130475000Y-103050000D01*
X129800000Y-99850000D02*
X121425000Y-99850000D01*
X154150000Y-86425000D02*
X153975000Y-86250000D01*
X92725000Y-113625000D02*
X92650000Y-113550000D01*
X151825000Y-99250000D02*
X154150000Y-96925000D01*
X164850000Y-70450000D02*
X161900000Y-73400000D01*
X92875000Y-113625000D02*
X92725000Y-113625000D01*
X155625000Y-103050000D02*
X151825000Y-99250000D01*
X161150000Y-73400000D02*
X161150000Y-84725000D01*
X129900000Y-71825000D02*
X124125000Y-77600000D01*
X152665000Y-109310000D02*
X155625000Y-106350000D01*
X130475000Y-103050000D02*
X129962500Y-102537500D01*
X129750000Y-102750000D02*
X129962500Y-102537500D01*
X92650000Y-113550000D02*
X92650000Y-108500000D01*
X163775000Y-69375000D02*
X164850000Y-70450000D01*
%TO.N,Net-(C2-Pad2)*%
X121575000Y-107600000D02*
X122275000Y-106900000D01*
X122275000Y-106900000D02*
X122275000Y-101800000D01*
X104075000Y-104900000D02*
X106400000Y-104900000D01*
X106400000Y-104900000D02*
X108050000Y-106550000D01*
X122275000Y-101800000D02*
X124925000Y-101800000D01*
X109100000Y-107600000D02*
X121575000Y-107600000D01*
X108050000Y-106550000D02*
X109100000Y-107600000D01*
%TO.N,Net-(C3-Pad1)*%
X127550000Y-103775000D02*
X127550000Y-113975000D01*
X127475000Y-114050000D02*
X125475000Y-114050000D01*
X127550000Y-113975000D02*
X127475000Y-114050000D01*
%TO.N,Net-(C4-Pad1)*%
X123250000Y-112150000D02*
X121525000Y-112150000D01*
X134550000Y-96650000D02*
X138200000Y-96650000D01*
X123375000Y-112275000D02*
X123250000Y-112150000D01*
X139775000Y-95075000D02*
X139850000Y-95000000D01*
X134100000Y-117125000D02*
X123500000Y-117125000D01*
X134500000Y-116725000D02*
X134100000Y-117125000D01*
X123375000Y-117000000D02*
X123375000Y-112275000D01*
X139850000Y-95000000D02*
X142425000Y-95000000D01*
X138200000Y-96650000D02*
X139775000Y-95075000D01*
X134500000Y-96650000D02*
X134500000Y-116725000D01*
X123500000Y-117125000D02*
X123375000Y-117000000D01*
X134500000Y-96650000D02*
X134550000Y-96650000D01*
%TO.N,Net-(C15-Pad2)*%
X114775000Y-105125000D02*
X114725000Y-105075000D01*
X117250000Y-104400000D02*
X116525000Y-105125000D01*
X114725000Y-105075000D02*
X114725000Y-103250000D01*
X114725000Y-103250000D02*
X114750000Y-103225000D01*
X117250000Y-88975000D02*
X117250000Y-104400000D01*
X116525000Y-105125000D02*
X114775000Y-105125000D01*
X112275000Y-86625000D02*
X114900000Y-86625000D01*
X114900000Y-86625000D02*
X117250000Y-88975000D01*
%TO.N,Net-(C7-Pad2)*%
X143175000Y-91425000D02*
X143175000Y-90375000D01*
X145875000Y-85025000D02*
X147200000Y-86350000D01*
X139000000Y-85900000D02*
X139875000Y-85025000D01*
X143175000Y-90375000D02*
X147200000Y-86350000D01*
X139875000Y-85025000D02*
X145875000Y-85025000D01*
X132400000Y-85900000D02*
X139000000Y-85900000D01*
%TO.N,Net-(C9-Pad2)*%
X143400000Y-98550000D02*
X144425000Y-97525000D01*
X142625000Y-98550000D02*
X143200000Y-98550000D01*
X140925000Y-96850000D02*
X142625000Y-98550000D01*
X143200000Y-98550000D02*
X143400000Y-98550000D01*
%TO.N,Net-(C18-Pad1)*%
X116050000Y-72025000D02*
X106975000Y-72025000D01*
X117984600Y-70090400D02*
X116050000Y-72025000D01*
X106975000Y-72025000D02*
X99975000Y-65025000D01*
X118009600Y-73984600D02*
X116050000Y-72025000D01*
X117984600Y-68706800D02*
X117984600Y-70090400D01*
X118009600Y-76306800D02*
X118009600Y-73984600D01*
%TO.N,Net-(R7-Pad2)*%
X112875000Y-64275000D02*
X112750000Y-64275000D01*
X118118750Y-59031250D02*
X112875000Y-64275000D01*
X112750000Y-64275000D02*
X112904600Y-64429600D01*
X112904600Y-64429600D02*
X112904600Y-68706800D01*
%TD*%
%TA.AperFunction,Conductor*%
%TO.N,0*%
G36*
X172483621Y-44878502D02*
G01*
X172530114Y-44932158D01*
X172541500Y-44984500D01*
X172541500Y-121040500D01*
X172521498Y-121108621D01*
X172467842Y-121155114D01*
X172415500Y-121166500D01*
X89234500Y-121166500D01*
X89166379Y-121146498D01*
X89119886Y-121092842D01*
X89108500Y-121040500D01*
X89108500Y-112150000D01*
X120611496Y-112150000D01*
X120612186Y-112156565D01*
X120630117Y-112327165D01*
X120631458Y-112339928D01*
X120690473Y-112521556D01*
X120693776Y-112527278D01*
X120693777Y-112527279D01*
X120696150Y-112531389D01*
X120785960Y-112686944D01*
X120790378Y-112691851D01*
X120790379Y-112691852D01*
X120880588Y-112792039D01*
X120913747Y-112828866D01*
X121068248Y-112941118D01*
X121074276Y-112943802D01*
X121074278Y-112943803D01*
X121232324Y-113014169D01*
X121242712Y-113018794D01*
X121336113Y-113038647D01*
X121423056Y-113057128D01*
X121423061Y-113057128D01*
X121429513Y-113058500D01*
X121620487Y-113058500D01*
X121626939Y-113057128D01*
X121626944Y-113057128D01*
X121713887Y-113038647D01*
X121807288Y-113018794D01*
X121817676Y-113014169D01*
X121975722Y-112943803D01*
X121975724Y-112943802D01*
X121981752Y-112941118D01*
X122136253Y-112828866D01*
X122140668Y-112823963D01*
X122145580Y-112819540D01*
X122146705Y-112820789D01*
X122200014Y-112787949D01*
X122233200Y-112783500D01*
X122615500Y-112783500D01*
X122683621Y-112803502D01*
X122730114Y-112857158D01*
X122741500Y-112909500D01*
X122741500Y-116921233D01*
X122740973Y-116932416D01*
X122739298Y-116939909D01*
X122739547Y-116947835D01*
X122739547Y-116947836D01*
X122741438Y-117007986D01*
X122741500Y-117011945D01*
X122741500Y-117039856D01*
X122741997Y-117043790D01*
X122741997Y-117043791D01*
X122742005Y-117043856D01*
X122742938Y-117055693D01*
X122744327Y-117099889D01*
X122749978Y-117119339D01*
X122753987Y-117138700D01*
X122756526Y-117158797D01*
X122759445Y-117166168D01*
X122759445Y-117166170D01*
X122772804Y-117199912D01*
X122776649Y-117211142D01*
X122786771Y-117245983D01*
X122788982Y-117253593D01*
X122793015Y-117260412D01*
X122793017Y-117260417D01*
X122799293Y-117271028D01*
X122807988Y-117288776D01*
X122815448Y-117307617D01*
X122820110Y-117314033D01*
X122820110Y-117314034D01*
X122841436Y-117343387D01*
X122847952Y-117353307D01*
X122870458Y-117391362D01*
X122884779Y-117405683D01*
X122897619Y-117420716D01*
X122909528Y-117437107D01*
X122915634Y-117442158D01*
X122943605Y-117465298D01*
X122952384Y-117473288D01*
X122996343Y-117517247D01*
X123003887Y-117525537D01*
X123008000Y-117532018D01*
X123013777Y-117537443D01*
X123057667Y-117578658D01*
X123060509Y-117581413D01*
X123080231Y-117601135D01*
X123083373Y-117603572D01*
X123083433Y-117603619D01*
X123092445Y-117611317D01*
X123105878Y-117623931D01*
X123124679Y-117641586D01*
X123131622Y-117645403D01*
X123142431Y-117651345D01*
X123158953Y-117662198D01*
X123174959Y-117674614D01*
X123182237Y-117677764D01*
X123182238Y-117677764D01*
X123215537Y-117692174D01*
X123226187Y-117697391D01*
X123264940Y-117718695D01*
X123272615Y-117720666D01*
X123272616Y-117720666D01*
X123284562Y-117723733D01*
X123303267Y-117730137D01*
X123321855Y-117738181D01*
X123329678Y-117739420D01*
X123329688Y-117739423D01*
X123365524Y-117745099D01*
X123377144Y-117747505D01*
X123408959Y-117755673D01*
X123419970Y-117758500D01*
X123440224Y-117758500D01*
X123459934Y-117760051D01*
X123479943Y-117763220D01*
X123487835Y-117762474D01*
X123506580Y-117760702D01*
X123523962Y-117759059D01*
X123535819Y-117758500D01*
X134021233Y-117758500D01*
X134032416Y-117759027D01*
X134039909Y-117760702D01*
X134047835Y-117760453D01*
X134047836Y-117760453D01*
X134107986Y-117758562D01*
X134111945Y-117758500D01*
X134139856Y-117758500D01*
X134143791Y-117758003D01*
X134143856Y-117757995D01*
X134155693Y-117757062D01*
X134187951Y-117756048D01*
X134191970Y-117755922D01*
X134199889Y-117755673D01*
X134219343Y-117750021D01*
X134238700Y-117746013D01*
X134250930Y-117744468D01*
X134250931Y-117744468D01*
X134258797Y-117743474D01*
X134266168Y-117740555D01*
X134266170Y-117740555D01*
X134299912Y-117727196D01*
X134311142Y-117723351D01*
X134345983Y-117713229D01*
X134345984Y-117713229D01*
X134353593Y-117711018D01*
X134360412Y-117706985D01*
X134360417Y-117706983D01*
X134371028Y-117700707D01*
X134388776Y-117692012D01*
X134407617Y-117684552D01*
X134443387Y-117658564D01*
X134453307Y-117652048D01*
X134484535Y-117633580D01*
X134484538Y-117633578D01*
X134491362Y-117629542D01*
X134505683Y-117615221D01*
X134520717Y-117602380D01*
X134522431Y-117601135D01*
X134537107Y-117590472D01*
X134565298Y-117556395D01*
X134573288Y-117547616D01*
X134892247Y-117228657D01*
X134900537Y-117221113D01*
X134907018Y-117217000D01*
X134953659Y-117167332D01*
X134956413Y-117164491D01*
X134976134Y-117144770D01*
X134978612Y-117141575D01*
X134986318Y-117132553D01*
X135011158Y-117106101D01*
X135016586Y-117100321D01*
X135026346Y-117082568D01*
X135037199Y-117066045D01*
X135044753Y-117056306D01*
X135049613Y-117050041D01*
X135067176Y-117009457D01*
X135072383Y-116998827D01*
X135093695Y-116960060D01*
X135095666Y-116952383D01*
X135095668Y-116952378D01*
X135098732Y-116940442D01*
X135105138Y-116921730D01*
X135110034Y-116910417D01*
X135113181Y-116903145D01*
X135120097Y-116859481D01*
X135122504Y-116847860D01*
X135131528Y-116812711D01*
X135131528Y-116812710D01*
X135133500Y-116805030D01*
X135133500Y-116784769D01*
X135135051Y-116765058D01*
X135136979Y-116752885D01*
X135138219Y-116745057D01*
X135134059Y-116701046D01*
X135133500Y-116689189D01*
X135133500Y-115886480D01*
X146453687Y-115886480D01*
X146461077Y-115896782D01*
X146498924Y-115927595D01*
X146506199Y-115932708D01*
X146726412Y-116065287D01*
X146734336Y-116069323D01*
X146971026Y-116169550D01*
X146979431Y-116172428D01*
X147227897Y-116238306D01*
X147236618Y-116239970D01*
X147491892Y-116270184D01*
X147500757Y-116270602D01*
X147757730Y-116264546D01*
X147766585Y-116263709D01*
X148020140Y-116221506D01*
X148028774Y-116219433D01*
X148273858Y-116141923D01*
X148282120Y-116138652D01*
X148513829Y-116027387D01*
X148521553Y-116022981D01*
X148708636Y-115897975D01*
X148716925Y-115888057D01*
X148716118Y-115886480D01*
X151533687Y-115886480D01*
X151541077Y-115896782D01*
X151578924Y-115927595D01*
X151586199Y-115932708D01*
X151806412Y-116065287D01*
X151814336Y-116069323D01*
X152051026Y-116169550D01*
X152059431Y-116172428D01*
X152307897Y-116238306D01*
X152316618Y-116239970D01*
X152571892Y-116270184D01*
X152580757Y-116270602D01*
X152837730Y-116264546D01*
X152846585Y-116263709D01*
X153100140Y-116221506D01*
X153108774Y-116219433D01*
X153353858Y-116141923D01*
X153362120Y-116138652D01*
X153470768Y-116086480D01*
X160803687Y-116086480D01*
X160811077Y-116096782D01*
X160848924Y-116127595D01*
X160856199Y-116132708D01*
X161076412Y-116265287D01*
X161084336Y-116269323D01*
X161321026Y-116369550D01*
X161329431Y-116372428D01*
X161577897Y-116438306D01*
X161586618Y-116439970D01*
X161841892Y-116470184D01*
X161850757Y-116470602D01*
X162107730Y-116464546D01*
X162116585Y-116463709D01*
X162370140Y-116421506D01*
X162378774Y-116419433D01*
X162623858Y-116341923D01*
X162632120Y-116338652D01*
X162863829Y-116227387D01*
X162871553Y-116222981D01*
X163058636Y-116097975D01*
X163066925Y-116088057D01*
X163066118Y-116086480D01*
X165883687Y-116086480D01*
X165891077Y-116096782D01*
X165928924Y-116127595D01*
X165936199Y-116132708D01*
X166156412Y-116265287D01*
X166164336Y-116269323D01*
X166401026Y-116369550D01*
X166409431Y-116372428D01*
X166657897Y-116438306D01*
X166666618Y-116439970D01*
X166921892Y-116470184D01*
X166930757Y-116470602D01*
X167187730Y-116464546D01*
X167196585Y-116463709D01*
X167450140Y-116421506D01*
X167458774Y-116419433D01*
X167703858Y-116341923D01*
X167712120Y-116338652D01*
X167943829Y-116227387D01*
X167951553Y-116222981D01*
X168138636Y-116097975D01*
X168146925Y-116088057D01*
X168139670Y-116073880D01*
X167027812Y-114962022D01*
X167013868Y-114954408D01*
X167012035Y-114954539D01*
X167005420Y-114958790D01*
X165890853Y-116073357D01*
X165883687Y-116086480D01*
X163066118Y-116086480D01*
X163059670Y-116073880D01*
X161947812Y-114962022D01*
X161933868Y-114954408D01*
X161932035Y-114954539D01*
X161925420Y-114958790D01*
X160810853Y-116073357D01*
X160803687Y-116086480D01*
X153470768Y-116086480D01*
X153593829Y-116027387D01*
X153601553Y-116022981D01*
X153788636Y-115897975D01*
X153796925Y-115888057D01*
X153789670Y-115873880D01*
X152677812Y-114762022D01*
X152663868Y-114754408D01*
X152662035Y-114754539D01*
X152655420Y-114758790D01*
X151540853Y-115873357D01*
X151533687Y-115886480D01*
X148716118Y-115886480D01*
X148709670Y-115873880D01*
X147597812Y-114762022D01*
X147583868Y-114754408D01*
X147582035Y-114754539D01*
X147575420Y-114758790D01*
X146460853Y-115873357D01*
X146453687Y-115886480D01*
X135133500Y-115886480D01*
X135133500Y-114335312D01*
X145703307Y-114335312D01*
X145713398Y-114592160D01*
X145714372Y-114600984D01*
X145760557Y-114853862D01*
X145762761Y-114862449D01*
X145844111Y-115106286D01*
X145847515Y-115114504D01*
X145962407Y-115344440D01*
X145966931Y-115352088D01*
X146077917Y-115512670D01*
X146088238Y-115521024D01*
X146101888Y-115513902D01*
X147212978Y-114402812D01*
X147220592Y-114388868D01*
X147220461Y-114387035D01*
X147216210Y-114380420D01*
X146102181Y-113266391D01*
X146089340Y-113259379D01*
X146078651Y-113267174D01*
X146030531Y-113328215D01*
X146025538Y-113335563D01*
X145896430Y-113557837D01*
X145892526Y-113565807D01*
X145796025Y-113804058D01*
X145793281Y-113812502D01*
X145731312Y-114061971D01*
X145729785Y-114070722D01*
X145703586Y-114326428D01*
X145703307Y-114335312D01*
X135133500Y-114335312D01*
X135133500Y-110806480D01*
X146453687Y-110806480D01*
X146461077Y-110816782D01*
X146498924Y-110847595D01*
X146506199Y-110852708D01*
X146726412Y-110985287D01*
X146734336Y-110989323D01*
X146971026Y-111089550D01*
X146979431Y-111092428D01*
X147227897Y-111158306D01*
X147236618Y-111159970D01*
X147491892Y-111190184D01*
X147500757Y-111190602D01*
X147757730Y-111184546D01*
X147766585Y-111183709D01*
X148020140Y-111141506D01*
X148028774Y-111139433D01*
X148273858Y-111061923D01*
X148282108Y-111058656D01*
X148494354Y-110956738D01*
X148564421Y-110945282D01*
X148629558Y-110973525D01*
X148669085Y-111032500D01*
X148670454Y-111103484D01*
X148665306Y-111118536D01*
X148571415Y-111345210D01*
X148550790Y-111431119D01*
X148514369Y-111582826D01*
X148511576Y-111594459D01*
X148491464Y-111850000D01*
X148511576Y-112105541D01*
X148512730Y-112110348D01*
X148512731Y-112110354D01*
X148542691Y-112235144D01*
X148571415Y-112354790D01*
X148573308Y-112359361D01*
X148573309Y-112359363D01*
X148667009Y-112585576D01*
X148674598Y-112656166D01*
X148642818Y-112719653D01*
X148581760Y-112755880D01*
X148510809Y-112753346D01*
X148489033Y-112743728D01*
X148390540Y-112688569D01*
X148382509Y-112684790D01*
X148142761Y-112592039D01*
X148134288Y-112589432D01*
X147883872Y-112531389D01*
X147875095Y-112529999D01*
X147619006Y-112507819D01*
X147610135Y-112507679D01*
X147353464Y-112521805D01*
X147344659Y-112522917D01*
X147092540Y-112573067D01*
X147083988Y-112575407D01*
X146841459Y-112660576D01*
X146833292Y-112664110D01*
X146605195Y-112782598D01*
X146597612Y-112787245D01*
X146462956Y-112883472D01*
X146454552Y-112894196D01*
X146461532Y-112907322D01*
X149069223Y-115515013D01*
X149082623Y-115522330D01*
X149092528Y-115515343D01*
X149105343Y-115500097D01*
X149110579Y-115492890D01*
X149246591Y-115274802D01*
X149250752Y-115266943D01*
X149354689Y-115031842D01*
X149357695Y-115023492D01*
X149427469Y-114776092D01*
X149429270Y-114767398D01*
X149463655Y-114511403D01*
X149464183Y-114505011D01*
X149467696Y-114393222D01*
X149467569Y-114386779D01*
X149449329Y-114129161D01*
X149448076Y-114120357D01*
X149393975Y-113869068D01*
X149391496Y-113860535D01*
X149302528Y-113619379D01*
X149298873Y-113611284D01*
X149230320Y-113484232D01*
X149215576Y-113414783D01*
X149240719Y-113348387D01*
X149297767Y-113306126D01*
X149368607Y-113301415D01*
X149389426Y-113307991D01*
X149553723Y-113376045D01*
X149620210Y-113403585D01*
X149706119Y-113424210D01*
X149864646Y-113462269D01*
X149864652Y-113462270D01*
X149869459Y-113463424D01*
X150125000Y-113483536D01*
X150380541Y-113463424D01*
X150385348Y-113462270D01*
X150385354Y-113462269D01*
X150543881Y-113424210D01*
X150629790Y-113403585D01*
X150686351Y-113380157D01*
X150859826Y-113308301D01*
X150930416Y-113300712D01*
X150993903Y-113332491D01*
X151030130Y-113393549D01*
X151027596Y-113464501D01*
X151016998Y-113487995D01*
X150976430Y-113557837D01*
X150972526Y-113565807D01*
X150876025Y-113804058D01*
X150873281Y-113812502D01*
X150811312Y-114061971D01*
X150809785Y-114070722D01*
X150783586Y-114326428D01*
X150783307Y-114335312D01*
X150793398Y-114592160D01*
X150794372Y-114600984D01*
X150840557Y-114853862D01*
X150842761Y-114862449D01*
X150924111Y-115106286D01*
X150927515Y-115114504D01*
X151042407Y-115344440D01*
X151046931Y-115352088D01*
X151157917Y-115512670D01*
X151168238Y-115521024D01*
X151181888Y-115513902D01*
X152304658Y-114391132D01*
X153029408Y-114391132D01*
X153029539Y-114392965D01*
X153033790Y-114399580D01*
X154149223Y-115515013D01*
X154162623Y-115522330D01*
X154172528Y-115515343D01*
X154185343Y-115500097D01*
X154190579Y-115492890D01*
X154326591Y-115274802D01*
X154330752Y-115266943D01*
X154434689Y-115031842D01*
X154437695Y-115023492D01*
X154507469Y-114776092D01*
X154509270Y-114767398D01*
X154540444Y-114535312D01*
X160053307Y-114535312D01*
X160063398Y-114792160D01*
X160064372Y-114800984D01*
X160110557Y-115053862D01*
X160112761Y-115062449D01*
X160194111Y-115306286D01*
X160197515Y-115314504D01*
X160312407Y-115544440D01*
X160316931Y-115552088D01*
X160427917Y-115712670D01*
X160438238Y-115721024D01*
X160451888Y-115713902D01*
X161562978Y-114602812D01*
X161570592Y-114588868D01*
X161570461Y-114587035D01*
X161566210Y-114580420D01*
X160452181Y-113466391D01*
X160439340Y-113459379D01*
X160428651Y-113467174D01*
X160380531Y-113528215D01*
X160375538Y-113535563D01*
X160246430Y-113757837D01*
X160242526Y-113765807D01*
X160146025Y-114004058D01*
X160143281Y-114012502D01*
X160081312Y-114261971D01*
X160079785Y-114270722D01*
X160053586Y-114526428D01*
X160053307Y-114535312D01*
X154540444Y-114535312D01*
X154543655Y-114511403D01*
X154544183Y-114505011D01*
X154547696Y-114393222D01*
X154547569Y-114386779D01*
X154529329Y-114129161D01*
X154528076Y-114120357D01*
X154473975Y-113869068D01*
X154471496Y-113860535D01*
X154382528Y-113619379D01*
X154378873Y-113611284D01*
X154256811Y-113385063D01*
X154252052Y-113377565D01*
X154171306Y-113268243D01*
X154160178Y-113259801D01*
X154147585Y-113266625D01*
X153037022Y-114377188D01*
X153029408Y-114391132D01*
X152304658Y-114391132D01*
X153788399Y-112907391D01*
X153795253Y-112894839D01*
X153787046Y-112883768D01*
X153702240Y-112819046D01*
X153694814Y-112814169D01*
X153470535Y-112688567D01*
X153462509Y-112684790D01*
X153222761Y-112592039D01*
X153214288Y-112589432D01*
X152963872Y-112531389D01*
X152955095Y-112529999D01*
X152699006Y-112507819D01*
X152690135Y-112507679D01*
X152433464Y-112521805D01*
X152424659Y-112522917D01*
X152172540Y-112573067D01*
X152163988Y-112575407D01*
X151921459Y-112660576D01*
X151913292Y-112664110D01*
X151757778Y-112744894D01*
X151688106Y-112758546D01*
X151622114Y-112732363D01*
X151580753Y-112674659D01*
X151577155Y-112603754D01*
X151583286Y-112584862D01*
X151597736Y-112549978D01*
X151678585Y-112354790D01*
X151707309Y-112235144D01*
X151737269Y-112110354D01*
X151737270Y-112110348D01*
X151738424Y-112105541D01*
X151758536Y-111850000D01*
X151738424Y-111594459D01*
X151735632Y-111582826D01*
X151699210Y-111431119D01*
X151678585Y-111345210D01*
X151652074Y-111281206D01*
X151583944Y-111116725D01*
X151576355Y-111046135D01*
X151608134Y-110982648D01*
X151669193Y-110946421D01*
X151740144Y-110948955D01*
X151765343Y-110960561D01*
X151806408Y-110985285D01*
X151814336Y-110989323D01*
X152051026Y-111089550D01*
X152059431Y-111092428D01*
X152307897Y-111158306D01*
X152316618Y-111159970D01*
X152571892Y-111190184D01*
X152580757Y-111190602D01*
X152837730Y-111184546D01*
X152846585Y-111183709D01*
X153100140Y-111141506D01*
X153108774Y-111139433D01*
X153353858Y-111061923D01*
X153362120Y-111058652D01*
X153470768Y-111006480D01*
X160803687Y-111006480D01*
X160811077Y-111016782D01*
X160848924Y-111047595D01*
X160856199Y-111052708D01*
X161076412Y-111185287D01*
X161084336Y-111189323D01*
X161321026Y-111289550D01*
X161329431Y-111292428D01*
X161577897Y-111358306D01*
X161586618Y-111359970D01*
X161841892Y-111390184D01*
X161850757Y-111390602D01*
X162107730Y-111384546D01*
X162116585Y-111383709D01*
X162370140Y-111341506D01*
X162378774Y-111339433D01*
X162623858Y-111261923D01*
X162632108Y-111258656D01*
X162844354Y-111156738D01*
X162914421Y-111145282D01*
X162979558Y-111173525D01*
X163019085Y-111232500D01*
X163020454Y-111303484D01*
X163015306Y-111318536D01*
X162999707Y-111356197D01*
X162924891Y-111536819D01*
X162921415Y-111545210D01*
X162908924Y-111597238D01*
X162863912Y-111784729D01*
X162861576Y-111794459D01*
X162841464Y-112050000D01*
X162861576Y-112305541D01*
X162862730Y-112310348D01*
X162862731Y-112310354D01*
X162874497Y-112359363D01*
X162921415Y-112554790D01*
X162923308Y-112559361D01*
X162923309Y-112559363D01*
X163017009Y-112785576D01*
X163024598Y-112856166D01*
X162992818Y-112919653D01*
X162931760Y-112955880D01*
X162860809Y-112953346D01*
X162839033Y-112943728D01*
X162740540Y-112888569D01*
X162732509Y-112884790D01*
X162492761Y-112792039D01*
X162484288Y-112789432D01*
X162233872Y-112731389D01*
X162225095Y-112729999D01*
X161969006Y-112707819D01*
X161960135Y-112707679D01*
X161703464Y-112721805D01*
X161694659Y-112722917D01*
X161442540Y-112773067D01*
X161433988Y-112775407D01*
X161191459Y-112860576D01*
X161183292Y-112864110D01*
X160955195Y-112982598D01*
X160947612Y-112987245D01*
X160812956Y-113083472D01*
X160804552Y-113094196D01*
X160811532Y-113107322D01*
X163419223Y-115715013D01*
X163432623Y-115722330D01*
X163442528Y-115715343D01*
X163455343Y-115700097D01*
X163460579Y-115692890D01*
X163596591Y-115474802D01*
X163600752Y-115466943D01*
X163704689Y-115231842D01*
X163707695Y-115223492D01*
X163777469Y-114976092D01*
X163779270Y-114967398D01*
X163813655Y-114711403D01*
X163814183Y-114705011D01*
X163817696Y-114593222D01*
X163817569Y-114586779D01*
X163799329Y-114329161D01*
X163798076Y-114320357D01*
X163743975Y-114069068D01*
X163741496Y-114060535D01*
X163652528Y-113819379D01*
X163648873Y-113811284D01*
X163580320Y-113684232D01*
X163565576Y-113614783D01*
X163590719Y-113548387D01*
X163647767Y-113506126D01*
X163718607Y-113501415D01*
X163739424Y-113507990D01*
X163970210Y-113603585D01*
X164035997Y-113619379D01*
X164214646Y-113662269D01*
X164214652Y-113662270D01*
X164219459Y-113663424D01*
X164475000Y-113683536D01*
X164730541Y-113663424D01*
X164735348Y-113662270D01*
X164735354Y-113662269D01*
X164914003Y-113619379D01*
X164979790Y-113603585D01*
X165209826Y-113508301D01*
X165280416Y-113500712D01*
X165343903Y-113532491D01*
X165380130Y-113593549D01*
X165377596Y-113664501D01*
X165366998Y-113687995D01*
X165326430Y-113757837D01*
X165322526Y-113765807D01*
X165226025Y-114004058D01*
X165223281Y-114012502D01*
X165161312Y-114261971D01*
X165159785Y-114270722D01*
X165133586Y-114526428D01*
X165133307Y-114535312D01*
X165143398Y-114792160D01*
X165144372Y-114800984D01*
X165190557Y-115053862D01*
X165192761Y-115062449D01*
X165274111Y-115306286D01*
X165277515Y-115314504D01*
X165392407Y-115544440D01*
X165396931Y-115552088D01*
X165507917Y-115712670D01*
X165518238Y-115721024D01*
X165531888Y-115713902D01*
X166654658Y-114591132D01*
X167379408Y-114591132D01*
X167379539Y-114592965D01*
X167383790Y-114599580D01*
X168499223Y-115715013D01*
X168512623Y-115722330D01*
X168522528Y-115715343D01*
X168535343Y-115700097D01*
X168540579Y-115692890D01*
X168676591Y-115474802D01*
X168680752Y-115466943D01*
X168784689Y-115231842D01*
X168787695Y-115223492D01*
X168857469Y-114976092D01*
X168859270Y-114967398D01*
X168893655Y-114711403D01*
X168894183Y-114705011D01*
X168897696Y-114593222D01*
X168897569Y-114586779D01*
X168879329Y-114329161D01*
X168878076Y-114320357D01*
X168823975Y-114069068D01*
X168821496Y-114060535D01*
X168732528Y-113819379D01*
X168728873Y-113811284D01*
X168606811Y-113585063D01*
X168602052Y-113577565D01*
X168521306Y-113468243D01*
X168510178Y-113459801D01*
X168497585Y-113466625D01*
X167387022Y-114577188D01*
X167379408Y-114591132D01*
X166654658Y-114591132D01*
X168138399Y-113107391D01*
X168145253Y-113094839D01*
X168137046Y-113083768D01*
X168052240Y-113019046D01*
X168044814Y-113014169D01*
X167820535Y-112888567D01*
X167812509Y-112884790D01*
X167572761Y-112792039D01*
X167564288Y-112789432D01*
X167313872Y-112731389D01*
X167305095Y-112729999D01*
X167049006Y-112707819D01*
X167040135Y-112707679D01*
X166783464Y-112721805D01*
X166774659Y-112722917D01*
X166522540Y-112773067D01*
X166513988Y-112775407D01*
X166271459Y-112860576D01*
X166263292Y-112864110D01*
X166107778Y-112944894D01*
X166038106Y-112958546D01*
X165972114Y-112932363D01*
X165930753Y-112874659D01*
X165927155Y-112803754D01*
X165933286Y-112784862D01*
X165944187Y-112758546D01*
X165986594Y-112656166D01*
X166026691Y-112559363D01*
X166026692Y-112559361D01*
X166028585Y-112554790D01*
X166075503Y-112359363D01*
X166087269Y-112310354D01*
X166087270Y-112310348D01*
X166088424Y-112305541D01*
X166108536Y-112050000D01*
X166088424Y-111794459D01*
X166086089Y-111784729D01*
X166041076Y-111597238D01*
X166028585Y-111545210D01*
X166026413Y-111539967D01*
X165933944Y-111316725D01*
X165926355Y-111246135D01*
X165958134Y-111182648D01*
X166019193Y-111146421D01*
X166090144Y-111148955D01*
X166115343Y-111160561D01*
X166156408Y-111185285D01*
X166164336Y-111189323D01*
X166401026Y-111289550D01*
X166409431Y-111292428D01*
X166657897Y-111358306D01*
X166666618Y-111359970D01*
X166921892Y-111390184D01*
X166930757Y-111390602D01*
X167187730Y-111384546D01*
X167196585Y-111383709D01*
X167450140Y-111341506D01*
X167458774Y-111339433D01*
X167703858Y-111261923D01*
X167712120Y-111258652D01*
X167943829Y-111147387D01*
X167951553Y-111142981D01*
X168138636Y-111017975D01*
X168146925Y-111008057D01*
X168139670Y-110993880D01*
X166656922Y-109511132D01*
X167379408Y-109511132D01*
X167379539Y-109512965D01*
X167383790Y-109519580D01*
X168499223Y-110635013D01*
X168512623Y-110642330D01*
X168522528Y-110635343D01*
X168535343Y-110620097D01*
X168540579Y-110612890D01*
X168676591Y-110394802D01*
X168680752Y-110386943D01*
X168784689Y-110151842D01*
X168787695Y-110143492D01*
X168857469Y-109896092D01*
X168859270Y-109887398D01*
X168893655Y-109631403D01*
X168894183Y-109625011D01*
X168897696Y-109513222D01*
X168897569Y-109506779D01*
X168879329Y-109249161D01*
X168878076Y-109240357D01*
X168823975Y-108989068D01*
X168821496Y-108980535D01*
X168732528Y-108739379D01*
X168728873Y-108731284D01*
X168606811Y-108505063D01*
X168602052Y-108497565D01*
X168521306Y-108388243D01*
X168510178Y-108379801D01*
X168497585Y-108386625D01*
X167387022Y-109497188D01*
X167379408Y-109511132D01*
X166656922Y-109511132D01*
X165532181Y-108386391D01*
X165519340Y-108379379D01*
X165508651Y-108387174D01*
X165460531Y-108448215D01*
X165455538Y-108455563D01*
X165326430Y-108677837D01*
X165322526Y-108685807D01*
X165226025Y-108924058D01*
X165223281Y-108932502D01*
X165161312Y-109181971D01*
X165159785Y-109190722D01*
X165133586Y-109446428D01*
X165133307Y-109455312D01*
X165143398Y-109712160D01*
X165144372Y-109720984D01*
X165190557Y-109973862D01*
X165192761Y-109982449D01*
X165274111Y-110226286D01*
X165277515Y-110234504D01*
X165369409Y-110418413D01*
X165381964Y-110488290D01*
X165354748Y-110553863D01*
X165296401Y-110594312D01*
X165225448Y-110596796D01*
X165208483Y-110591143D01*
X164979790Y-110496415D01*
X164846604Y-110464440D01*
X164735354Y-110437731D01*
X164735348Y-110437730D01*
X164730541Y-110436576D01*
X164475000Y-110416464D01*
X164219459Y-110436576D01*
X164214652Y-110437730D01*
X164214646Y-110437731D01*
X164103396Y-110464440D01*
X163970210Y-110496415D01*
X163965639Y-110498308D01*
X163965637Y-110498309D01*
X163744128Y-110590061D01*
X163673538Y-110597650D01*
X163610051Y-110565871D01*
X163573824Y-110504813D01*
X163576358Y-110433861D01*
X163588998Y-110406975D01*
X163596594Y-110394795D01*
X163600752Y-110386943D01*
X163704689Y-110151842D01*
X163707695Y-110143492D01*
X163777469Y-109896092D01*
X163779270Y-109887398D01*
X163813655Y-109631403D01*
X163814183Y-109625011D01*
X163817696Y-109513222D01*
X163817569Y-109506779D01*
X163799329Y-109249161D01*
X163798076Y-109240357D01*
X163743975Y-108989068D01*
X163741496Y-108980535D01*
X163652528Y-108739379D01*
X163648873Y-108731284D01*
X163526811Y-108505063D01*
X163522052Y-108497565D01*
X163441306Y-108388243D01*
X163430178Y-108379801D01*
X163417585Y-108386625D01*
X160810853Y-110993357D01*
X160803687Y-111006480D01*
X153470768Y-111006480D01*
X153593829Y-110947387D01*
X153601553Y-110942981D01*
X153788636Y-110817975D01*
X153796925Y-110808057D01*
X153789670Y-110793880D01*
X152306922Y-109311132D01*
X153029408Y-109311132D01*
X153029539Y-109312965D01*
X153033790Y-109319580D01*
X154149223Y-110435013D01*
X154162623Y-110442330D01*
X154172528Y-110435343D01*
X154185343Y-110420097D01*
X154190579Y-110412890D01*
X154326591Y-110194802D01*
X154330752Y-110186943D01*
X154434689Y-109951842D01*
X154437695Y-109943492D01*
X154507469Y-109696092D01*
X154509270Y-109687398D01*
X154540444Y-109455312D01*
X160053307Y-109455312D01*
X160063398Y-109712160D01*
X160064372Y-109720984D01*
X160110557Y-109973862D01*
X160112761Y-109982449D01*
X160194111Y-110226286D01*
X160197515Y-110234504D01*
X160312407Y-110464440D01*
X160316931Y-110472088D01*
X160427917Y-110632670D01*
X160438238Y-110641024D01*
X160451888Y-110633902D01*
X161562978Y-109522812D01*
X161570592Y-109508868D01*
X161570461Y-109507035D01*
X161566210Y-109500420D01*
X160452181Y-108386391D01*
X160439340Y-108379379D01*
X160428651Y-108387174D01*
X160380531Y-108448215D01*
X160375538Y-108455563D01*
X160246430Y-108677837D01*
X160242526Y-108685807D01*
X160146025Y-108924058D01*
X160143281Y-108932502D01*
X160081312Y-109181971D01*
X160079785Y-109190722D01*
X160053586Y-109446428D01*
X160053307Y-109455312D01*
X154540444Y-109455312D01*
X154543655Y-109431403D01*
X154544183Y-109425011D01*
X154547696Y-109313222D01*
X154547569Y-109306779D01*
X154529329Y-109049161D01*
X154528076Y-109040357D01*
X154473975Y-108789068D01*
X154471496Y-108780535D01*
X154382528Y-108539379D01*
X154378873Y-108531284D01*
X154256811Y-108305063D01*
X154252052Y-108297565D01*
X154171306Y-108188243D01*
X154160178Y-108179801D01*
X154147585Y-108186625D01*
X153037022Y-109297188D01*
X153029408Y-109311132D01*
X152306922Y-109311132D01*
X151182181Y-108186391D01*
X151169340Y-108179379D01*
X151158651Y-108187174D01*
X151110531Y-108248215D01*
X151105538Y-108255563D01*
X150976430Y-108477837D01*
X150972526Y-108485807D01*
X150876025Y-108724058D01*
X150873281Y-108732502D01*
X150811312Y-108981971D01*
X150809785Y-108990722D01*
X150783586Y-109246428D01*
X150783307Y-109255312D01*
X150793398Y-109512160D01*
X150794372Y-109520984D01*
X150840557Y-109773862D01*
X150842761Y-109782449D01*
X150924111Y-110026286D01*
X150927515Y-110034504D01*
X151019409Y-110218413D01*
X151031964Y-110288290D01*
X151004748Y-110353863D01*
X150946401Y-110394312D01*
X150875448Y-110396796D01*
X150858483Y-110391143D01*
X150629790Y-110296415D01*
X150496604Y-110264440D01*
X150385354Y-110237731D01*
X150385348Y-110237730D01*
X150380541Y-110236576D01*
X150125000Y-110216464D01*
X149869459Y-110236576D01*
X149864652Y-110237730D01*
X149864646Y-110237731D01*
X149753396Y-110264440D01*
X149620210Y-110296415D01*
X149615639Y-110298308D01*
X149615637Y-110298309D01*
X149394128Y-110390061D01*
X149323538Y-110397650D01*
X149260051Y-110365871D01*
X149223824Y-110304813D01*
X149226358Y-110233861D01*
X149238998Y-110206975D01*
X149246594Y-110194795D01*
X149250752Y-110186943D01*
X149354689Y-109951842D01*
X149357695Y-109943492D01*
X149427469Y-109696092D01*
X149429270Y-109687398D01*
X149463655Y-109431403D01*
X149464183Y-109425011D01*
X149467696Y-109313222D01*
X149467569Y-109306779D01*
X149449329Y-109049161D01*
X149448076Y-109040357D01*
X149393975Y-108789068D01*
X149391496Y-108780535D01*
X149302528Y-108539379D01*
X149298873Y-108531284D01*
X149176811Y-108305063D01*
X149172052Y-108297565D01*
X149091306Y-108188243D01*
X149080178Y-108179801D01*
X149067585Y-108186625D01*
X146460853Y-110793357D01*
X146453687Y-110806480D01*
X135133500Y-110806480D01*
X135133500Y-109255312D01*
X145703307Y-109255312D01*
X145713398Y-109512160D01*
X145714372Y-109520984D01*
X145760557Y-109773862D01*
X145762761Y-109782449D01*
X145844111Y-110026286D01*
X145847515Y-110034504D01*
X145962407Y-110264440D01*
X145966931Y-110272088D01*
X146077917Y-110432670D01*
X146088238Y-110441024D01*
X146101888Y-110433902D01*
X147212978Y-109322812D01*
X147220592Y-109308868D01*
X147220461Y-109307035D01*
X147216210Y-109300420D01*
X146102181Y-108186391D01*
X146089340Y-108179379D01*
X146078651Y-108187174D01*
X146030531Y-108248215D01*
X146025538Y-108255563D01*
X145896430Y-108477837D01*
X145892526Y-108485807D01*
X145796025Y-108724058D01*
X145793281Y-108732502D01*
X145731312Y-108981971D01*
X145729785Y-108990722D01*
X145703586Y-109246428D01*
X145703307Y-109255312D01*
X135133500Y-109255312D01*
X135133500Y-107814196D01*
X146454552Y-107814196D01*
X146461532Y-107827322D01*
X147572188Y-108937978D01*
X147586132Y-108945592D01*
X147587965Y-108945461D01*
X147594580Y-108941210D01*
X148708399Y-107827391D01*
X148715253Y-107814839D01*
X148714776Y-107814196D01*
X151534552Y-107814196D01*
X151541532Y-107827322D01*
X152652188Y-108937978D01*
X152666132Y-108945592D01*
X152667965Y-108945461D01*
X152674580Y-108941210D01*
X153601594Y-108014196D01*
X160804552Y-108014196D01*
X160811532Y-108027322D01*
X161922188Y-109137978D01*
X161936132Y-109145592D01*
X161937965Y-109145461D01*
X161944580Y-109141210D01*
X163058399Y-108027391D01*
X163065253Y-108014839D01*
X163064776Y-108014196D01*
X165884552Y-108014196D01*
X165891532Y-108027322D01*
X167002188Y-109137978D01*
X167016132Y-109145592D01*
X167017965Y-109145461D01*
X167024580Y-109141210D01*
X168138399Y-108027391D01*
X168145253Y-108014839D01*
X168137046Y-108003768D01*
X168052240Y-107939046D01*
X168044814Y-107934169D01*
X167820535Y-107808567D01*
X167812509Y-107804790D01*
X167572761Y-107712039D01*
X167564288Y-107709432D01*
X167313872Y-107651389D01*
X167305095Y-107649999D01*
X167049006Y-107627819D01*
X167040135Y-107627679D01*
X166783464Y-107641805D01*
X166774659Y-107642917D01*
X166522540Y-107693067D01*
X166513988Y-107695407D01*
X166271459Y-107780576D01*
X166263292Y-107784110D01*
X166035195Y-107902598D01*
X166027612Y-107907245D01*
X165892956Y-108003472D01*
X165884552Y-108014196D01*
X163064776Y-108014196D01*
X163057046Y-108003768D01*
X162972240Y-107939046D01*
X162964814Y-107934169D01*
X162740535Y-107808567D01*
X162732509Y-107804790D01*
X162492761Y-107712039D01*
X162484288Y-107709432D01*
X162233872Y-107651389D01*
X162225095Y-107649999D01*
X161969006Y-107627819D01*
X161960135Y-107627679D01*
X161703464Y-107641805D01*
X161694659Y-107642917D01*
X161442540Y-107693067D01*
X161433988Y-107695407D01*
X161191459Y-107780576D01*
X161183292Y-107784110D01*
X160955195Y-107902598D01*
X160947612Y-107907245D01*
X160812956Y-108003472D01*
X160804552Y-108014196D01*
X153601594Y-108014196D01*
X153788399Y-107827391D01*
X153795253Y-107814839D01*
X153787046Y-107803768D01*
X153702240Y-107739046D01*
X153694814Y-107734169D01*
X153470535Y-107608567D01*
X153462509Y-107604790D01*
X153222761Y-107512039D01*
X153214288Y-107509432D01*
X152963872Y-107451389D01*
X152955095Y-107449999D01*
X152699006Y-107427819D01*
X152690135Y-107427679D01*
X152433464Y-107441805D01*
X152424659Y-107442917D01*
X152172540Y-107493067D01*
X152163988Y-107495407D01*
X151921459Y-107580576D01*
X151913292Y-107584110D01*
X151685195Y-107702598D01*
X151677612Y-107707245D01*
X151542956Y-107803472D01*
X151534552Y-107814196D01*
X148714776Y-107814196D01*
X148707046Y-107803768D01*
X148622240Y-107739046D01*
X148614814Y-107734169D01*
X148390535Y-107608567D01*
X148382509Y-107604790D01*
X148142761Y-107512039D01*
X148134288Y-107509432D01*
X147883872Y-107451389D01*
X147875095Y-107449999D01*
X147619006Y-107427819D01*
X147610135Y-107427679D01*
X147353464Y-107441805D01*
X147344659Y-107442917D01*
X147092540Y-107493067D01*
X147083988Y-107495407D01*
X146841459Y-107580576D01*
X146833292Y-107584110D01*
X146605195Y-107702598D01*
X146597612Y-107707245D01*
X146462956Y-107803472D01*
X146454552Y-107814196D01*
X135133500Y-107814196D01*
X135133500Y-97409500D01*
X135153502Y-97341379D01*
X135207158Y-97294886D01*
X135259500Y-97283500D01*
X138121233Y-97283500D01*
X138132416Y-97284027D01*
X138139909Y-97285702D01*
X138147835Y-97285453D01*
X138147836Y-97285453D01*
X138207986Y-97283562D01*
X138211945Y-97283500D01*
X138239856Y-97283500D01*
X138243791Y-97283003D01*
X138243856Y-97282995D01*
X138255693Y-97282062D01*
X138287951Y-97281048D01*
X138291970Y-97280922D01*
X138299889Y-97280673D01*
X138319343Y-97275021D01*
X138338700Y-97271013D01*
X138350930Y-97269468D01*
X138350931Y-97269468D01*
X138358797Y-97268474D01*
X138366168Y-97265555D01*
X138366170Y-97265555D01*
X138399912Y-97252196D01*
X138411142Y-97248351D01*
X138445983Y-97238229D01*
X138445984Y-97238229D01*
X138453593Y-97236018D01*
X138460412Y-97231985D01*
X138460417Y-97231983D01*
X138471028Y-97225707D01*
X138488776Y-97217012D01*
X138507617Y-97209552D01*
X138531973Y-97191857D01*
X138543387Y-97183564D01*
X138553307Y-97177048D01*
X138584535Y-97158580D01*
X138584538Y-97158578D01*
X138591362Y-97154542D01*
X138605683Y-97140221D01*
X138620717Y-97127380D01*
X138630694Y-97120131D01*
X138637107Y-97115472D01*
X138665298Y-97081395D01*
X138673288Y-97072616D01*
X138895904Y-96850000D01*
X140011496Y-96850000D01*
X140012186Y-96856565D01*
X140030129Y-97027279D01*
X140031458Y-97039928D01*
X140090473Y-97221556D01*
X140185960Y-97386944D01*
X140313747Y-97528866D01*
X140468248Y-97641118D01*
X140474276Y-97643802D01*
X140474278Y-97643803D01*
X140636681Y-97716109D01*
X140642712Y-97718794D01*
X140736113Y-97738647D01*
X140823056Y-97757128D01*
X140823061Y-97757128D01*
X140829513Y-97758500D01*
X140885406Y-97758500D01*
X140953527Y-97778502D01*
X140974501Y-97795405D01*
X141548910Y-98369815D01*
X142121348Y-98942253D01*
X142128888Y-98950539D01*
X142133000Y-98957018D01*
X142138777Y-98962443D01*
X142182651Y-99003643D01*
X142185493Y-99006398D01*
X142205230Y-99026135D01*
X142208427Y-99028615D01*
X142217447Y-99036318D01*
X142249679Y-99066586D01*
X142256625Y-99070405D01*
X142256628Y-99070407D01*
X142267434Y-99076348D01*
X142283953Y-99087199D01*
X142299959Y-99099614D01*
X142307228Y-99102759D01*
X142307232Y-99102762D01*
X142340537Y-99117174D01*
X142351187Y-99122391D01*
X142389940Y-99143695D01*
X142397615Y-99145666D01*
X142397616Y-99145666D01*
X142409562Y-99148733D01*
X142428267Y-99155137D01*
X142446855Y-99163181D01*
X142454678Y-99164420D01*
X142454688Y-99164423D01*
X142490524Y-99170099D01*
X142502144Y-99172505D01*
X142533959Y-99180673D01*
X142544970Y-99183500D01*
X142565224Y-99183500D01*
X142584934Y-99185051D01*
X142604943Y-99188220D01*
X142612835Y-99187474D01*
X142631580Y-99185702D01*
X142648962Y-99184059D01*
X142660819Y-99183500D01*
X143321233Y-99183500D01*
X143332416Y-99184027D01*
X143339909Y-99185702D01*
X143347835Y-99185453D01*
X143347836Y-99185453D01*
X143407986Y-99183562D01*
X143411945Y-99183500D01*
X143439856Y-99183500D01*
X143443791Y-99183003D01*
X143443856Y-99182995D01*
X143455693Y-99182062D01*
X143487951Y-99181048D01*
X143491970Y-99180922D01*
X143499889Y-99180673D01*
X143519343Y-99175021D01*
X143538700Y-99171013D01*
X143550930Y-99169468D01*
X143550931Y-99169468D01*
X143558797Y-99168474D01*
X143566168Y-99165555D01*
X143566170Y-99165555D01*
X143599912Y-99152196D01*
X143611142Y-99148351D01*
X143645983Y-99138229D01*
X143645984Y-99138229D01*
X143653593Y-99136018D01*
X143660412Y-99131985D01*
X143660417Y-99131983D01*
X143671028Y-99125707D01*
X143688776Y-99117012D01*
X143707617Y-99109552D01*
X143743387Y-99083564D01*
X143753307Y-99077048D01*
X143784535Y-99058580D01*
X143784538Y-99058578D01*
X143791362Y-99054542D01*
X143805683Y-99040221D01*
X143820717Y-99027380D01*
X143830694Y-99020131D01*
X143837107Y-99015472D01*
X143842157Y-99009368D01*
X143842162Y-99009363D01*
X143865293Y-98981402D01*
X143873283Y-98972621D01*
X144375501Y-98470404D01*
X144437813Y-98436379D01*
X144464596Y-98433500D01*
X144520487Y-98433500D01*
X144526939Y-98432128D01*
X144526944Y-98432128D01*
X144613888Y-98413647D01*
X144707288Y-98393794D01*
X144731597Y-98382971D01*
X144875722Y-98318803D01*
X144875724Y-98318802D01*
X144881752Y-98316118D01*
X145036253Y-98203866D01*
X145040675Y-98198955D01*
X145159621Y-98066852D01*
X145159622Y-98066851D01*
X145164040Y-98061944D01*
X145248012Y-97916500D01*
X145256223Y-97902279D01*
X145256224Y-97902278D01*
X145259527Y-97896556D01*
X145318542Y-97714928D01*
X145326018Y-97643803D01*
X145337814Y-97531565D01*
X145338504Y-97525000D01*
X145318542Y-97335072D01*
X145259527Y-97153444D01*
X145164040Y-96988056D01*
X145036253Y-96846134D01*
X144881752Y-96733882D01*
X144875724Y-96731198D01*
X144875722Y-96731197D01*
X144713319Y-96658891D01*
X144713318Y-96658891D01*
X144707288Y-96656206D01*
X144613887Y-96636353D01*
X144526944Y-96617872D01*
X144526939Y-96617872D01*
X144520487Y-96616500D01*
X144329513Y-96616500D01*
X144323061Y-96617872D01*
X144323056Y-96617872D01*
X144236113Y-96636353D01*
X144142712Y-96656206D01*
X144136682Y-96658891D01*
X144136681Y-96658891D01*
X143974278Y-96731197D01*
X143974276Y-96731198D01*
X143968248Y-96733882D01*
X143813747Y-96846134D01*
X143685960Y-96988056D01*
X143590473Y-97153444D01*
X143531458Y-97335072D01*
X143530768Y-97341633D01*
X143530768Y-97341635D01*
X143514093Y-97500292D01*
X143487080Y-97565949D01*
X143477878Y-97576218D01*
X143174499Y-97879596D01*
X143112187Y-97913621D01*
X143085404Y-97916500D01*
X142939594Y-97916500D01*
X142871473Y-97896498D01*
X142850499Y-97879595D01*
X141872122Y-96901217D01*
X141838096Y-96838905D01*
X141835907Y-96825292D01*
X141819232Y-96666635D01*
X141819232Y-96666633D01*
X141818542Y-96660072D01*
X141759527Y-96478444D01*
X141664040Y-96313056D01*
X141536253Y-96171134D01*
X141381752Y-96058882D01*
X141375724Y-96056198D01*
X141375722Y-96056197D01*
X141213319Y-95983891D01*
X141213318Y-95983891D01*
X141207288Y-95981206D01*
X141113888Y-95961353D01*
X141026944Y-95942872D01*
X141026939Y-95942872D01*
X141020487Y-95941500D01*
X140829513Y-95941500D01*
X140823061Y-95942872D01*
X140823056Y-95942872D01*
X140736112Y-95961353D01*
X140642712Y-95981206D01*
X140636682Y-95983891D01*
X140636681Y-95983891D01*
X140474278Y-96056197D01*
X140474276Y-96056198D01*
X140468248Y-96058882D01*
X140313747Y-96171134D01*
X140185960Y-96313056D01*
X140090473Y-96478444D01*
X140031458Y-96660072D01*
X140030768Y-96666633D01*
X140030768Y-96666635D01*
X140023700Y-96733882D01*
X140011496Y-96850000D01*
X138895904Y-96850000D01*
X140075499Y-95670405D01*
X140137811Y-95636379D01*
X140164594Y-95633500D01*
X141716800Y-95633500D01*
X141784921Y-95653502D01*
X141804147Y-95669843D01*
X141804420Y-95669540D01*
X141809332Y-95673963D01*
X141813747Y-95678866D01*
X141968248Y-95791118D01*
X141974276Y-95793802D01*
X141974278Y-95793803D01*
X142120449Y-95858882D01*
X142142712Y-95868794D01*
X142236113Y-95888647D01*
X142323056Y-95907128D01*
X142323061Y-95907128D01*
X142329513Y-95908500D01*
X142520487Y-95908500D01*
X142526939Y-95907128D01*
X142526944Y-95907128D01*
X142613887Y-95888647D01*
X142707288Y-95868794D01*
X142729551Y-95858882D01*
X142875722Y-95793803D01*
X142875724Y-95793802D01*
X142881752Y-95791118D01*
X143036253Y-95678866D01*
X143059091Y-95653502D01*
X143159621Y-95541852D01*
X143159622Y-95541851D01*
X143164040Y-95536944D01*
X143259527Y-95371556D01*
X143318542Y-95189928D01*
X143338504Y-95000000D01*
X143318542Y-94810072D01*
X143259527Y-94628444D01*
X143164040Y-94463056D01*
X143147882Y-94445110D01*
X143040675Y-94326045D01*
X143040674Y-94326044D01*
X143036253Y-94321134D01*
X142881752Y-94208882D01*
X142875724Y-94206198D01*
X142875722Y-94206197D01*
X142713319Y-94133891D01*
X142713318Y-94133891D01*
X142707288Y-94131206D01*
X142613887Y-94111353D01*
X142526944Y-94092872D01*
X142526939Y-94092872D01*
X142520487Y-94091500D01*
X142329513Y-94091500D01*
X142323061Y-94092872D01*
X142323056Y-94092872D01*
X142236112Y-94111353D01*
X142142712Y-94131206D01*
X142136682Y-94133891D01*
X142136681Y-94133891D01*
X141974278Y-94206197D01*
X141974276Y-94206198D01*
X141968248Y-94208882D01*
X141813747Y-94321134D01*
X141809332Y-94326037D01*
X141804420Y-94330460D01*
X141803295Y-94329211D01*
X141749986Y-94362051D01*
X141716800Y-94366500D01*
X139928767Y-94366500D01*
X139917584Y-94365973D01*
X139910091Y-94364298D01*
X139902165Y-94364547D01*
X139902164Y-94364547D01*
X139842014Y-94366438D01*
X139838055Y-94366500D01*
X139810144Y-94366500D01*
X139806210Y-94366997D01*
X139806209Y-94366997D01*
X139806144Y-94367005D01*
X139794307Y-94367938D01*
X139762049Y-94368952D01*
X139758030Y-94369078D01*
X139750111Y-94369327D01*
X139730657Y-94374979D01*
X139711300Y-94378987D01*
X139699070Y-94380532D01*
X139699069Y-94380532D01*
X139691203Y-94381526D01*
X139683832Y-94384445D01*
X139683830Y-94384445D01*
X139650088Y-94397804D01*
X139638858Y-94401649D01*
X139604017Y-94411771D01*
X139604016Y-94411771D01*
X139596407Y-94413982D01*
X139589588Y-94418015D01*
X139589583Y-94418017D01*
X139578972Y-94424293D01*
X139561224Y-94432988D01*
X139542383Y-94440448D01*
X139535967Y-94445110D01*
X139535966Y-94445110D01*
X139506613Y-94466436D01*
X139496693Y-94472952D01*
X139465465Y-94491420D01*
X139465462Y-94491422D01*
X139458638Y-94495458D01*
X139444314Y-94509782D01*
X139429287Y-94522617D01*
X139412893Y-94534528D01*
X139407840Y-94540636D01*
X139407838Y-94540638D01*
X139384712Y-94568593D01*
X139376722Y-94577373D01*
X137974500Y-95979595D01*
X137912188Y-96013621D01*
X137885405Y-96016500D01*
X135258200Y-96016500D01*
X135190079Y-95996498D01*
X135170853Y-95980157D01*
X135170580Y-95980460D01*
X135165668Y-95976037D01*
X135161253Y-95971134D01*
X135122354Y-95942872D01*
X135012094Y-95862763D01*
X135012093Y-95862762D01*
X135006752Y-95858882D01*
X135000724Y-95856198D01*
X135000722Y-95856197D01*
X134838319Y-95783891D01*
X134838318Y-95783891D01*
X134832288Y-95781206D01*
X134738888Y-95761353D01*
X134651944Y-95742872D01*
X134651939Y-95742872D01*
X134645487Y-95741500D01*
X134454513Y-95741500D01*
X134448061Y-95742872D01*
X134448056Y-95742872D01*
X134361112Y-95761353D01*
X134267712Y-95781206D01*
X134261682Y-95783891D01*
X134261681Y-95783891D01*
X134099278Y-95856197D01*
X134099276Y-95856198D01*
X134093248Y-95858882D01*
X133938747Y-95971134D01*
X133934326Y-95976044D01*
X133934325Y-95976045D01*
X133900492Y-96013621D01*
X133810960Y-96113056D01*
X133715473Y-96278444D01*
X133656458Y-96460072D01*
X133655768Y-96466633D01*
X133655768Y-96466635D01*
X133654527Y-96478444D01*
X133636496Y-96650000D01*
X133656458Y-96839928D01*
X133715473Y-97021556D01*
X133718776Y-97027278D01*
X133718777Y-97027279D01*
X133772385Y-97120131D01*
X133810960Y-97186944D01*
X133815380Y-97191853D01*
X133815383Y-97191857D01*
X133834135Y-97212683D01*
X133864853Y-97276690D01*
X133866500Y-97296994D01*
X133866500Y-116365500D01*
X133846498Y-116433621D01*
X133792842Y-116480114D01*
X133740500Y-116491500D01*
X124134500Y-116491500D01*
X124066379Y-116471498D01*
X124019886Y-116417842D01*
X124008500Y-116365500D01*
X124008500Y-114050000D01*
X124561496Y-114050000D01*
X124562186Y-114056565D01*
X124574291Y-114171734D01*
X124581458Y-114239928D01*
X124640473Y-114421556D01*
X124643776Y-114427278D01*
X124643777Y-114427279D01*
X124676932Y-114484704D01*
X124735960Y-114586944D01*
X124740378Y-114591851D01*
X124740379Y-114591852D01*
X124822452Y-114683003D01*
X124863747Y-114728866D01*
X125018248Y-114841118D01*
X125024276Y-114843802D01*
X125024278Y-114843803D01*
X125066158Y-114862449D01*
X125192712Y-114918794D01*
X125286113Y-114938647D01*
X125373056Y-114957128D01*
X125373061Y-114957128D01*
X125379513Y-114958500D01*
X125570487Y-114958500D01*
X125576939Y-114957128D01*
X125576944Y-114957128D01*
X125663887Y-114938647D01*
X125757288Y-114918794D01*
X125883842Y-114862449D01*
X125925722Y-114843803D01*
X125925724Y-114843802D01*
X125931752Y-114841118D01*
X125986992Y-114800984D01*
X126064671Y-114744546D01*
X126086253Y-114728866D01*
X126090668Y-114723963D01*
X126095580Y-114719540D01*
X126096705Y-114720789D01*
X126150014Y-114687949D01*
X126183200Y-114683500D01*
X127396233Y-114683500D01*
X127407416Y-114684027D01*
X127414909Y-114685702D01*
X127422835Y-114685453D01*
X127422836Y-114685453D01*
X127482986Y-114683562D01*
X127486945Y-114683500D01*
X127514856Y-114683500D01*
X127518791Y-114683003D01*
X127518856Y-114682995D01*
X127530693Y-114682062D01*
X127562951Y-114681048D01*
X127566970Y-114680922D01*
X127574889Y-114680673D01*
X127594343Y-114675021D01*
X127613700Y-114671013D01*
X127625930Y-114669468D01*
X127625931Y-114669468D01*
X127633797Y-114668474D01*
X127641168Y-114665555D01*
X127641170Y-114665555D01*
X127674912Y-114652196D01*
X127686142Y-114648351D01*
X127720983Y-114638229D01*
X127720984Y-114638229D01*
X127728593Y-114636018D01*
X127735412Y-114631985D01*
X127735417Y-114631983D01*
X127746028Y-114625707D01*
X127763776Y-114617012D01*
X127782617Y-114609552D01*
X127796343Y-114599580D01*
X127818387Y-114583564D01*
X127828307Y-114577048D01*
X127859535Y-114558580D01*
X127859538Y-114558578D01*
X127866362Y-114554542D01*
X127880686Y-114540218D01*
X127895713Y-114527383D01*
X127912107Y-114515472D01*
X127937565Y-114484699D01*
X127952217Y-114470047D01*
X127957018Y-114467000D01*
X128003646Y-114417346D01*
X128006400Y-114414505D01*
X128026135Y-114394770D01*
X128028615Y-114391573D01*
X128036320Y-114382551D01*
X128061159Y-114356100D01*
X128066586Y-114350321D01*
X128070405Y-114343375D01*
X128070407Y-114343372D01*
X128076348Y-114332566D01*
X128087199Y-114316047D01*
X128094758Y-114306301D01*
X128099614Y-114300041D01*
X128102759Y-114292772D01*
X128102762Y-114292768D01*
X128117174Y-114259463D01*
X128122391Y-114248813D01*
X128143695Y-114210060D01*
X128148733Y-114190437D01*
X128155137Y-114171734D01*
X128160033Y-114160420D01*
X128160033Y-114160419D01*
X128163181Y-114153145D01*
X128164420Y-114145322D01*
X128164423Y-114145312D01*
X128170099Y-114109476D01*
X128172505Y-114097856D01*
X128181528Y-114062711D01*
X128181528Y-114062710D01*
X128183500Y-114055030D01*
X128183500Y-114034776D01*
X128185051Y-114015065D01*
X128186980Y-114002886D01*
X128188220Y-113995057D01*
X128184059Y-113951038D01*
X128183500Y-113939181D01*
X128183500Y-104477524D01*
X128203502Y-104409403D01*
X128215858Y-104393221D01*
X128289040Y-104311944D01*
X128384527Y-104146556D01*
X128443542Y-103964928D01*
X128450392Y-103899759D01*
X128462814Y-103781565D01*
X128463504Y-103775000D01*
X128443542Y-103585072D01*
X128384527Y-103403444D01*
X128289040Y-103238056D01*
X128283196Y-103231565D01*
X128165675Y-103101045D01*
X128165674Y-103101044D01*
X128161253Y-103096134D01*
X128006752Y-102983882D01*
X128000724Y-102981198D01*
X128000722Y-102981197D01*
X127838319Y-102908891D01*
X127838318Y-102908891D01*
X127832288Y-102906206D01*
X127738888Y-102886353D01*
X127651944Y-102867872D01*
X127651939Y-102867872D01*
X127645487Y-102866500D01*
X127454513Y-102866500D01*
X127448061Y-102867872D01*
X127448056Y-102867872D01*
X127361112Y-102886353D01*
X127267712Y-102906206D01*
X127261682Y-102908891D01*
X127261681Y-102908891D01*
X127099278Y-102981197D01*
X127099276Y-102981198D01*
X127093248Y-102983882D01*
X126938747Y-103096134D01*
X126934326Y-103101044D01*
X126934325Y-103101045D01*
X126816805Y-103231565D01*
X126810960Y-103238056D01*
X126715473Y-103403444D01*
X126656458Y-103585072D01*
X126636496Y-103775000D01*
X126637186Y-103781565D01*
X126649609Y-103899759D01*
X126656458Y-103964928D01*
X126715473Y-104146556D01*
X126810960Y-104311944D01*
X126884137Y-104393215D01*
X126914853Y-104457221D01*
X126916500Y-104477524D01*
X126916500Y-113290500D01*
X126896498Y-113358621D01*
X126842842Y-113405114D01*
X126790500Y-113416500D01*
X126183200Y-113416500D01*
X126115079Y-113396498D01*
X126095853Y-113380157D01*
X126095580Y-113380460D01*
X126090668Y-113376037D01*
X126086253Y-113371134D01*
X125999771Y-113308301D01*
X125937094Y-113262763D01*
X125937093Y-113262762D01*
X125931752Y-113258882D01*
X125925724Y-113256198D01*
X125925722Y-113256197D01*
X125763319Y-113183891D01*
X125763318Y-113183891D01*
X125757288Y-113181206D01*
X125663887Y-113161353D01*
X125576944Y-113142872D01*
X125576939Y-113142872D01*
X125570487Y-113141500D01*
X125379513Y-113141500D01*
X125373061Y-113142872D01*
X125373056Y-113142872D01*
X125286113Y-113161353D01*
X125192712Y-113181206D01*
X125186682Y-113183891D01*
X125186681Y-113183891D01*
X125024278Y-113256197D01*
X125024276Y-113256198D01*
X125018248Y-113258882D01*
X125012907Y-113262762D01*
X125012906Y-113262763D01*
X125006835Y-113267174D01*
X124863747Y-113371134D01*
X124859326Y-113376044D01*
X124859325Y-113376045D01*
X124740521Y-113507991D01*
X124735960Y-113513056D01*
X124640473Y-113678444D01*
X124581458Y-113860072D01*
X124561496Y-114050000D01*
X124008500Y-114050000D01*
X124008500Y-112353768D01*
X124009027Y-112342585D01*
X124010702Y-112335092D01*
X124008562Y-112267001D01*
X124008500Y-112263044D01*
X124008500Y-112235144D01*
X124007996Y-112231153D01*
X124007063Y-112219311D01*
X124005923Y-112183036D01*
X124005674Y-112175111D01*
X124003462Y-112167497D01*
X124003461Y-112167492D01*
X124000023Y-112155659D01*
X123996012Y-112136295D01*
X123994467Y-112124064D01*
X123993474Y-112116203D01*
X123990557Y-112108836D01*
X123990556Y-112108831D01*
X123977198Y-112075092D01*
X123973354Y-112063865D01*
X123963230Y-112029022D01*
X123961018Y-112021407D01*
X123950707Y-112003972D01*
X123942012Y-111986224D01*
X123934552Y-111967383D01*
X123908564Y-111931613D01*
X123902048Y-111921693D01*
X123883580Y-111890465D01*
X123883578Y-111890462D01*
X123879542Y-111883638D01*
X123865218Y-111869314D01*
X123852383Y-111854287D01*
X123840472Y-111837893D01*
X123806402Y-111809708D01*
X123797622Y-111801718D01*
X123753653Y-111757749D01*
X123746110Y-111749460D01*
X123742000Y-111742982D01*
X123692361Y-111696369D01*
X123689518Y-111693614D01*
X123672571Y-111676666D01*
X123669770Y-111673865D01*
X123666573Y-111671385D01*
X123657551Y-111663680D01*
X123631100Y-111638841D01*
X123625321Y-111633414D01*
X123618375Y-111629595D01*
X123618372Y-111629593D01*
X123607566Y-111623652D01*
X123591047Y-111612801D01*
X123585048Y-111608148D01*
X123575041Y-111600386D01*
X123567772Y-111597241D01*
X123567768Y-111597238D01*
X123534463Y-111582826D01*
X123523813Y-111577609D01*
X123485060Y-111556305D01*
X123465437Y-111551267D01*
X123446734Y-111544863D01*
X123435420Y-111539967D01*
X123435419Y-111539967D01*
X123428145Y-111536819D01*
X123420322Y-111535580D01*
X123420312Y-111535577D01*
X123384476Y-111529901D01*
X123372856Y-111527495D01*
X123337711Y-111518472D01*
X123337710Y-111518472D01*
X123330030Y-111516500D01*
X123309776Y-111516500D01*
X123290065Y-111514949D01*
X123277886Y-111513020D01*
X123270057Y-111511780D01*
X123262165Y-111512526D01*
X123226039Y-111515941D01*
X123214181Y-111516500D01*
X122233200Y-111516500D01*
X122165079Y-111496498D01*
X122145853Y-111480157D01*
X122145580Y-111480460D01*
X122140668Y-111476037D01*
X122136253Y-111471134D01*
X122025411Y-111390602D01*
X121987094Y-111362763D01*
X121987093Y-111362762D01*
X121981752Y-111358882D01*
X121975724Y-111356198D01*
X121975722Y-111356197D01*
X121813319Y-111283891D01*
X121813318Y-111283891D01*
X121807288Y-111281206D01*
X121713888Y-111261353D01*
X121626944Y-111242872D01*
X121626939Y-111242872D01*
X121620487Y-111241500D01*
X121429513Y-111241500D01*
X121423061Y-111242872D01*
X121423056Y-111242872D01*
X121336113Y-111261353D01*
X121242712Y-111281206D01*
X121236682Y-111283891D01*
X121236681Y-111283891D01*
X121074278Y-111356197D01*
X121074276Y-111356198D01*
X121068248Y-111358882D01*
X120913747Y-111471134D01*
X120909326Y-111476044D01*
X120909325Y-111476045D01*
X120800203Y-111597238D01*
X120785960Y-111613056D01*
X120690473Y-111778444D01*
X120631458Y-111960072D01*
X120630768Y-111966633D01*
X120630768Y-111966635D01*
X120624211Y-112029022D01*
X120611496Y-112150000D01*
X89108500Y-112150000D01*
X89108500Y-104900000D01*
X103161496Y-104900000D01*
X103181458Y-105089928D01*
X103240473Y-105271556D01*
X103335960Y-105436944D01*
X103340378Y-105441851D01*
X103340379Y-105441852D01*
X103422899Y-105533500D01*
X103463747Y-105578866D01*
X103562843Y-105650864D01*
X103609211Y-105684552D01*
X103618248Y-105691118D01*
X103624276Y-105693802D01*
X103624278Y-105693803D01*
X103786681Y-105766109D01*
X103792712Y-105768794D01*
X103886112Y-105788647D01*
X103973056Y-105807128D01*
X103973061Y-105807128D01*
X103979513Y-105808500D01*
X104170487Y-105808500D01*
X104176939Y-105807128D01*
X104176944Y-105807128D01*
X104263887Y-105788647D01*
X104357288Y-105768794D01*
X104363319Y-105766109D01*
X104525722Y-105693803D01*
X104525724Y-105693802D01*
X104531752Y-105691118D01*
X104540790Y-105684552D01*
X104678687Y-105584363D01*
X104686253Y-105578866D01*
X104690668Y-105573963D01*
X104695580Y-105569540D01*
X104696705Y-105570789D01*
X104750014Y-105537949D01*
X104783200Y-105533500D01*
X106085406Y-105533500D01*
X106153527Y-105553502D01*
X106174501Y-105570405D01*
X108596343Y-107992247D01*
X108603887Y-108000537D01*
X108608000Y-108007018D01*
X108613777Y-108012443D01*
X108657667Y-108053658D01*
X108660509Y-108056413D01*
X108680230Y-108076134D01*
X108683425Y-108078612D01*
X108692447Y-108086318D01*
X108724679Y-108116586D01*
X108731628Y-108120406D01*
X108742432Y-108126346D01*
X108758956Y-108137199D01*
X108774959Y-108149613D01*
X108815543Y-108167176D01*
X108826173Y-108172383D01*
X108864940Y-108193695D01*
X108872617Y-108195666D01*
X108872622Y-108195668D01*
X108884558Y-108198732D01*
X108903266Y-108205137D01*
X108921855Y-108213181D01*
X108929683Y-108214421D01*
X108929690Y-108214423D01*
X108965524Y-108220099D01*
X108977144Y-108222505D01*
X109008959Y-108230673D01*
X109019970Y-108233500D01*
X109040224Y-108233500D01*
X109059934Y-108235051D01*
X109079943Y-108238220D01*
X109087835Y-108237474D01*
X109106580Y-108235702D01*
X109123962Y-108234059D01*
X109135819Y-108233500D01*
X121496233Y-108233500D01*
X121507416Y-108234027D01*
X121514909Y-108235702D01*
X121522835Y-108235453D01*
X121522836Y-108235453D01*
X121582986Y-108233562D01*
X121586945Y-108233500D01*
X121614856Y-108233500D01*
X121618791Y-108233003D01*
X121618856Y-108232995D01*
X121630693Y-108232062D01*
X121662951Y-108231048D01*
X121666970Y-108230922D01*
X121674889Y-108230673D01*
X121694343Y-108225021D01*
X121713700Y-108221013D01*
X121725930Y-108219468D01*
X121725931Y-108219468D01*
X121733797Y-108218474D01*
X121741168Y-108215555D01*
X121741170Y-108215555D01*
X121774912Y-108202196D01*
X121786142Y-108198351D01*
X121820983Y-108188229D01*
X121820984Y-108188229D01*
X121828593Y-108186018D01*
X121835412Y-108181985D01*
X121835417Y-108181983D01*
X121846028Y-108175707D01*
X121863776Y-108167012D01*
X121882617Y-108159552D01*
X121902987Y-108144753D01*
X121918387Y-108133564D01*
X121928307Y-108127048D01*
X121959535Y-108108580D01*
X121959538Y-108108578D01*
X121966362Y-108104542D01*
X121980683Y-108090221D01*
X121995717Y-108077380D01*
X121997432Y-108076134D01*
X122012107Y-108065472D01*
X122040298Y-108031395D01*
X122048288Y-108022616D01*
X122667247Y-107403657D01*
X122675537Y-107396113D01*
X122682018Y-107392000D01*
X122728659Y-107342332D01*
X122731413Y-107339491D01*
X122751134Y-107319770D01*
X122753612Y-107316575D01*
X122761318Y-107307553D01*
X122786158Y-107281101D01*
X122791586Y-107275321D01*
X122801346Y-107257568D01*
X122812199Y-107241045D01*
X122819753Y-107231306D01*
X122824613Y-107225041D01*
X122842176Y-107184457D01*
X122847383Y-107173827D01*
X122868695Y-107135060D01*
X122870666Y-107127383D01*
X122870668Y-107127378D01*
X122873732Y-107115442D01*
X122880138Y-107096730D01*
X122885034Y-107085417D01*
X122888181Y-107078145D01*
X122895097Y-107034481D01*
X122897504Y-107022860D01*
X122906528Y-106987711D01*
X122906528Y-106987710D01*
X122908500Y-106980030D01*
X122908500Y-106959769D01*
X122910051Y-106940058D01*
X122911979Y-106927885D01*
X122913219Y-106920057D01*
X122909059Y-106876046D01*
X122908500Y-106864189D01*
X122908500Y-102559500D01*
X122928502Y-102491379D01*
X122982158Y-102444886D01*
X123034500Y-102433500D01*
X124216800Y-102433500D01*
X124284921Y-102453502D01*
X124304147Y-102469843D01*
X124304420Y-102469540D01*
X124309332Y-102473963D01*
X124313747Y-102478866D01*
X124330970Y-102491379D01*
X124400989Y-102542251D01*
X124468248Y-102591118D01*
X124474276Y-102593802D01*
X124474278Y-102593803D01*
X124636681Y-102666109D01*
X124642712Y-102668794D01*
X124733332Y-102688056D01*
X124823056Y-102707128D01*
X124823061Y-102707128D01*
X124829513Y-102708500D01*
X125020487Y-102708500D01*
X125026939Y-102707128D01*
X125026944Y-102707128D01*
X125116668Y-102688056D01*
X125207288Y-102668794D01*
X125213319Y-102666109D01*
X125375722Y-102593803D01*
X125375724Y-102593802D01*
X125381752Y-102591118D01*
X125536253Y-102478866D01*
X125644279Y-102358891D01*
X125659621Y-102341852D01*
X125659622Y-102341851D01*
X125664040Y-102336944D01*
X125759527Y-102171556D01*
X125818542Y-101989928D01*
X125838504Y-101800000D01*
X125837814Y-101793435D01*
X125819232Y-101616635D01*
X125819232Y-101616633D01*
X125818542Y-101610072D01*
X125759527Y-101428444D01*
X125744909Y-101403124D01*
X125702510Y-101329688D01*
X125664040Y-101263056D01*
X125641056Y-101237529D01*
X125540675Y-101126045D01*
X125540674Y-101126044D01*
X125536253Y-101121134D01*
X125381752Y-101008882D01*
X125375724Y-101006198D01*
X125375722Y-101006197D01*
X125213319Y-100933891D01*
X125213318Y-100933891D01*
X125207288Y-100931206D01*
X125113887Y-100911353D01*
X125026944Y-100892872D01*
X125026939Y-100892872D01*
X125020487Y-100891500D01*
X124829513Y-100891500D01*
X124823061Y-100892872D01*
X124823056Y-100892872D01*
X124736113Y-100911353D01*
X124642712Y-100931206D01*
X124636682Y-100933891D01*
X124636681Y-100933891D01*
X124474278Y-101006197D01*
X124474276Y-101006198D01*
X124468248Y-101008882D01*
X124313747Y-101121134D01*
X124309332Y-101126037D01*
X124304420Y-101130460D01*
X124303295Y-101129211D01*
X124249986Y-101162051D01*
X124216800Y-101166500D01*
X122346793Y-101166500D01*
X122323184Y-101164268D01*
X122322881Y-101164210D01*
X122322877Y-101164210D01*
X122315094Y-101162725D01*
X122259049Y-101166251D01*
X122251138Y-101166500D01*
X122235144Y-101166500D01*
X122219270Y-101168506D01*
X122211410Y-101169248D01*
X122183951Y-101170976D01*
X122163263Y-101172277D01*
X122163262Y-101172277D01*
X122155350Y-101172775D01*
X122147809Y-101175225D01*
X122147513Y-101175321D01*
X122124369Y-101180494D01*
X122124065Y-101180532D01*
X122124060Y-101180533D01*
X122116203Y-101181526D01*
X122108838Y-101184442D01*
X122108834Y-101184443D01*
X122063989Y-101202199D01*
X122056570Y-101204871D01*
X122003125Y-101222236D01*
X121996429Y-101226486D01*
X121996428Y-101226486D01*
X121996169Y-101226650D01*
X121975042Y-101237415D01*
X121974754Y-101237529D01*
X121974749Y-101237532D01*
X121967383Y-101240448D01*
X121960975Y-101245104D01*
X121960969Y-101245107D01*
X121921948Y-101273458D01*
X121915411Y-101277901D01*
X121867982Y-101308000D01*
X121862556Y-101313778D01*
X121862555Y-101313779D01*
X121862341Y-101314007D01*
X121844554Y-101329688D01*
X121844309Y-101329866D01*
X121844307Y-101329868D01*
X121837893Y-101334528D01*
X121832839Y-101340637D01*
X121832838Y-101340638D01*
X121802097Y-101377796D01*
X121796866Y-101383730D01*
X121763842Y-101418898D01*
X121763840Y-101418901D01*
X121758414Y-101424679D01*
X121754445Y-101431899D01*
X121741119Y-101451506D01*
X121740920Y-101451746D01*
X121740916Y-101451753D01*
X121735867Y-101457856D01*
X121732493Y-101465027D01*
X121711953Y-101508676D01*
X121708371Y-101515708D01*
X121681305Y-101564940D01*
X121679335Y-101572615D01*
X121679332Y-101572621D01*
X121679256Y-101572919D01*
X121671224Y-101595228D01*
X121671094Y-101595503D01*
X121671091Y-101595511D01*
X121667717Y-101602682D01*
X121657195Y-101657843D01*
X121655471Y-101665558D01*
X121641500Y-101719970D01*
X121641500Y-101728207D01*
X121639268Y-101751816D01*
X121637725Y-101759906D01*
X121641251Y-101815951D01*
X121641500Y-101823862D01*
X121641500Y-106585405D01*
X121621498Y-106653526D01*
X121604595Y-106674500D01*
X121349500Y-106929595D01*
X121287188Y-106963621D01*
X121260405Y-106966500D01*
X109414595Y-106966500D01*
X109346474Y-106946498D01*
X109325500Y-106929595D01*
X106903652Y-104507747D01*
X106896112Y-104499461D01*
X106892000Y-104492982D01*
X106842348Y-104446356D01*
X106839507Y-104443602D01*
X106819770Y-104423865D01*
X106816573Y-104421385D01*
X106807551Y-104413680D01*
X106805938Y-104412165D01*
X106775321Y-104383414D01*
X106768375Y-104379595D01*
X106768372Y-104379593D01*
X106757566Y-104373652D01*
X106741047Y-104362801D01*
X106735048Y-104358148D01*
X106725041Y-104350386D01*
X106717772Y-104347241D01*
X106717768Y-104347238D01*
X106684463Y-104332826D01*
X106673813Y-104327609D01*
X106635060Y-104306305D01*
X106615437Y-104301267D01*
X106596734Y-104294863D01*
X106585420Y-104289967D01*
X106585419Y-104289967D01*
X106578145Y-104286819D01*
X106570322Y-104285580D01*
X106570312Y-104285577D01*
X106534476Y-104279901D01*
X106522856Y-104277495D01*
X106487711Y-104268472D01*
X106487710Y-104268472D01*
X106480030Y-104266500D01*
X106459776Y-104266500D01*
X106440065Y-104264949D01*
X106427886Y-104263020D01*
X106420057Y-104261780D01*
X106412165Y-104262526D01*
X106376039Y-104265941D01*
X106364181Y-104266500D01*
X104783200Y-104266500D01*
X104715079Y-104246498D01*
X104695853Y-104230157D01*
X104695580Y-104230460D01*
X104690668Y-104226037D01*
X104686253Y-104221134D01*
X104664671Y-104205454D01*
X104537094Y-104112763D01*
X104537093Y-104112762D01*
X104531752Y-104108882D01*
X104525724Y-104106198D01*
X104525722Y-104106197D01*
X104363319Y-104033891D01*
X104363318Y-104033891D01*
X104357288Y-104031206D01*
X104263888Y-104011353D01*
X104176944Y-103992872D01*
X104176939Y-103992872D01*
X104170487Y-103991500D01*
X103979513Y-103991500D01*
X103973061Y-103992872D01*
X103973056Y-103992872D01*
X103886112Y-104011353D01*
X103792712Y-104031206D01*
X103786682Y-104033891D01*
X103786681Y-104033891D01*
X103624278Y-104106197D01*
X103624276Y-104106198D01*
X103618248Y-104108882D01*
X103463747Y-104221134D01*
X103459326Y-104226044D01*
X103459325Y-104226045D01*
X103350203Y-104347238D01*
X103335960Y-104363056D01*
X103240473Y-104528444D01*
X103181458Y-104710072D01*
X103180768Y-104716633D01*
X103180768Y-104716635D01*
X103170257Y-104816644D01*
X103161496Y-104900000D01*
X89108500Y-104900000D01*
X89108500Y-100651686D01*
X97784820Y-100651686D01*
X97809934Y-100750572D01*
X97813772Y-100761410D01*
X97894191Y-100935852D01*
X97899942Y-100945813D01*
X98010805Y-101102680D01*
X98018271Y-101111422D01*
X98155868Y-101245464D01*
X98164801Y-101252698D01*
X98324515Y-101359415D01*
X98334625Y-101364905D01*
X98511111Y-101440729D01*
X98522054Y-101444284D01*
X98588608Y-101459344D01*
X98602681Y-101458455D01*
X98606127Y-101449447D01*
X99114276Y-101449447D01*
X99118242Y-101462953D01*
X99127326Y-101464253D01*
X99307407Y-101403124D01*
X99317904Y-101398450D01*
X99485509Y-101304587D01*
X99494981Y-101298077D01*
X99642669Y-101175246D01*
X99650798Y-101167117D01*
X99773629Y-101019429D01*
X99780139Y-101009957D01*
X99874002Y-100842352D01*
X99878676Y-100831855D01*
X99939815Y-100651746D01*
X99938528Y-100642717D01*
X99924960Y-100638724D01*
X99132391Y-100638724D01*
X99117152Y-100643199D01*
X99115947Y-100644589D01*
X99114276Y-100652272D01*
X99114276Y-101449447D01*
X98606127Y-101449447D01*
X98606276Y-101449057D01*
X98606276Y-100656839D01*
X98601801Y-100641600D01*
X98600411Y-100640395D01*
X98592728Y-100638724D01*
X97799643Y-100638724D01*
X97786112Y-100642697D01*
X97784820Y-100651686D01*
X89108500Y-100651686D01*
X89108500Y-99060328D01*
X96278063Y-99060328D01*
X96287843Y-99271623D01*
X96337401Y-99477258D01*
X96339883Y-99482716D01*
X96339884Y-99482720D01*
X96375954Y-99562051D01*
X96424950Y-99669811D01*
X96547330Y-99842335D01*
X96700126Y-99988605D01*
X96877824Y-100103344D01*
X96883390Y-100105587D01*
X97068444Y-100180166D01*
X97068447Y-100180167D01*
X97074013Y-100182410D01*
X97281613Y-100222952D01*
X97287175Y-100223224D01*
X97843122Y-100223224D01*
X98000842Y-100208176D01*
X98119087Y-100173487D01*
X98198053Y-100150321D01*
X98198054Y-100150321D01*
X98203810Y-100148632D01*
X98211430Y-100144708D01*
X98213096Y-100144304D01*
X98214705Y-100143660D01*
X98214798Y-100143891D01*
X98269120Y-100130724D01*
X99660807Y-100130724D01*
X99710545Y-100140956D01*
X99732343Y-100150321D01*
X99786263Y-100173487D01*
X99830780Y-100183560D01*
X99979331Y-100217174D01*
X99979336Y-100217175D01*
X99984968Y-100218449D01*
X99990739Y-100218676D01*
X99990741Y-100218676D01*
X100053746Y-100221151D01*
X100188539Y-100226447D01*
X100390159Y-100197214D01*
X100395623Y-100195359D01*
X100395628Y-100195358D01*
X100577603Y-100133586D01*
X100577608Y-100133584D01*
X100583075Y-100131728D01*
X100760827Y-100032182D01*
X100917462Y-99901910D01*
X101047734Y-99745275D01*
X101114159Y-99626665D01*
X101144456Y-99572566D01*
X101144457Y-99572564D01*
X101147280Y-99567523D01*
X101149136Y-99562056D01*
X101149138Y-99562051D01*
X101210910Y-99380076D01*
X101210911Y-99380071D01*
X101212766Y-99374607D01*
X101241999Y-99172987D01*
X101243525Y-99114724D01*
X101229533Y-98962443D01*
X101225413Y-98917604D01*
X101225412Y-98917601D01*
X101224884Y-98911850D01*
X101200883Y-98826750D01*
X101171151Y-98721330D01*
X101171150Y-98721328D01*
X101169583Y-98715771D01*
X101158956Y-98694220D01*
X101082032Y-98538234D01*
X101079477Y-98533053D01*
X101061072Y-98508405D01*
X100961034Y-98374439D01*
X100961034Y-98374438D01*
X100957581Y-98369815D01*
X100867922Y-98286935D01*
X100812219Y-98235443D01*
X100812216Y-98235441D01*
X100807979Y-98231524D01*
X100756360Y-98198955D01*
X100640564Y-98125893D01*
X100640559Y-98125891D01*
X100635680Y-98122812D01*
X100483114Y-98061944D01*
X100451825Y-98049461D01*
X100446456Y-98047319D01*
X100246642Y-98007573D01*
X100240868Y-98007497D01*
X100240864Y-98007497D01*
X100137728Y-98006148D01*
X100042931Y-98004907D01*
X100037234Y-98005886D01*
X100037233Y-98005886D01*
X99937862Y-98022961D01*
X99842146Y-98039408D01*
X99651010Y-98109922D01*
X99646049Y-98112874D01*
X99646048Y-98112874D01*
X99501360Y-98198955D01*
X99475925Y-98214087D01*
X99322754Y-98348414D01*
X99319187Y-98352939D01*
X99319182Y-98352944D01*
X99256759Y-98432128D01*
X99196627Y-98508405D01*
X99193938Y-98513516D01*
X99193936Y-98513519D01*
X99169672Y-98559637D01*
X99101768Y-98688702D01*
X99093363Y-98715771D01*
X99082634Y-98750324D01*
X99043331Y-98809449D01*
X98978301Y-98837940D01*
X98908192Y-98826750D01*
X98855262Y-98779433D01*
X98844012Y-98755764D01*
X98843151Y-98752190D01*
X98755602Y-98559637D01*
X98661945Y-98427604D01*
X98636688Y-98391999D01*
X98636687Y-98391998D01*
X98633222Y-98387113D01*
X98480426Y-98240843D01*
X98302728Y-98126104D01*
X98242630Y-98101884D01*
X98112108Y-98049282D01*
X98112105Y-98049281D01*
X98106539Y-98047038D01*
X97898939Y-98006496D01*
X97893377Y-98006224D01*
X97337430Y-98006224D01*
X97179710Y-98021272D01*
X96976742Y-98080816D01*
X96971415Y-98083560D01*
X96971414Y-98083560D01*
X96794027Y-98174920D01*
X96794024Y-98174922D01*
X96788696Y-98177666D01*
X96622356Y-98308328D01*
X96618424Y-98312859D01*
X96618421Y-98312862D01*
X96514928Y-98432128D01*
X96483724Y-98468087D01*
X96480724Y-98473273D01*
X96480721Y-98473277D01*
X96463024Y-98503868D01*
X96377803Y-98651178D01*
X96308415Y-98850995D01*
X96307554Y-98856930D01*
X96307554Y-98856932D01*
X96285453Y-99009363D01*
X96278063Y-99060328D01*
X89108500Y-99060328D01*
X89108500Y-86625000D01*
X111361496Y-86625000D01*
X111381458Y-86814928D01*
X111440473Y-86996556D01*
X111535960Y-87161944D01*
X111540378Y-87166851D01*
X111540379Y-87166852D01*
X111626905Y-87262949D01*
X111663747Y-87303866D01*
X111818248Y-87416118D01*
X111824276Y-87418802D01*
X111824278Y-87418803D01*
X111986681Y-87491109D01*
X111992712Y-87493794D01*
X112086113Y-87513647D01*
X112173056Y-87532128D01*
X112173061Y-87532128D01*
X112179513Y-87533500D01*
X112370487Y-87533500D01*
X112376939Y-87532128D01*
X112376944Y-87532128D01*
X112463887Y-87513647D01*
X112557288Y-87493794D01*
X112563319Y-87491109D01*
X112725722Y-87418803D01*
X112725724Y-87418802D01*
X112731752Y-87416118D01*
X112886253Y-87303866D01*
X112890668Y-87298963D01*
X112895580Y-87294540D01*
X112896705Y-87295789D01*
X112950014Y-87262949D01*
X112983200Y-87258500D01*
X114585406Y-87258500D01*
X114653527Y-87278502D01*
X114674501Y-87295405D01*
X116579595Y-89200500D01*
X116613621Y-89262812D01*
X116616500Y-89289595D01*
X116616500Y-104085405D01*
X116596498Y-104153526D01*
X116579595Y-104174501D01*
X116299499Y-104454596D01*
X116237187Y-104488621D01*
X116210404Y-104491500D01*
X115484500Y-104491500D01*
X115416379Y-104471498D01*
X115369886Y-104417842D01*
X115358500Y-104365500D01*
X115358500Y-103955290D01*
X115378502Y-103887169D01*
X115390864Y-103870980D01*
X115484621Y-103766852D01*
X115484622Y-103766851D01*
X115489040Y-103761944D01*
X115584527Y-103596556D01*
X115643542Y-103414928D01*
X115663504Y-103225000D01*
X115643542Y-103035072D01*
X115584527Y-102853444D01*
X115489040Y-102688056D01*
X115471697Y-102668794D01*
X115365675Y-102551045D01*
X115365674Y-102551044D01*
X115361253Y-102546134D01*
X115206752Y-102433882D01*
X115200724Y-102431198D01*
X115200722Y-102431197D01*
X115038319Y-102358891D01*
X115038318Y-102358891D01*
X115032288Y-102356206D01*
X114938888Y-102336353D01*
X114851944Y-102317872D01*
X114851939Y-102317872D01*
X114845487Y-102316500D01*
X114654513Y-102316500D01*
X114648061Y-102317872D01*
X114648056Y-102317872D01*
X114561112Y-102336353D01*
X114467712Y-102356206D01*
X114461682Y-102358891D01*
X114461681Y-102358891D01*
X114299278Y-102431197D01*
X114299276Y-102431198D01*
X114293248Y-102433882D01*
X114138747Y-102546134D01*
X114134326Y-102551044D01*
X114134325Y-102551045D01*
X114028304Y-102668794D01*
X114010960Y-102688056D01*
X113915473Y-102853444D01*
X113856458Y-103035072D01*
X113836496Y-103225000D01*
X113856458Y-103414928D01*
X113915473Y-103596556D01*
X114010960Y-103761944D01*
X114015378Y-103766851D01*
X114015379Y-103766852D01*
X114059136Y-103815449D01*
X114089854Y-103879456D01*
X114091500Y-103899759D01*
X114091500Y-104996233D01*
X114090973Y-105007416D01*
X114089298Y-105014909D01*
X114089547Y-105022835D01*
X114089547Y-105022836D01*
X114091438Y-105082986D01*
X114091500Y-105086945D01*
X114091500Y-105114856D01*
X114091997Y-105118790D01*
X114091997Y-105118791D01*
X114092005Y-105118856D01*
X114092938Y-105130693D01*
X114094327Y-105174889D01*
X114099978Y-105194339D01*
X114103987Y-105213700D01*
X114106526Y-105233797D01*
X114109445Y-105241168D01*
X114109445Y-105241170D01*
X114122804Y-105274912D01*
X114126649Y-105286142D01*
X114138982Y-105328593D01*
X114143015Y-105335412D01*
X114143017Y-105335417D01*
X114149293Y-105346028D01*
X114157988Y-105363776D01*
X114165448Y-105382617D01*
X114170110Y-105389033D01*
X114170110Y-105389034D01*
X114191436Y-105418387D01*
X114197952Y-105428307D01*
X114205963Y-105441852D01*
X114220458Y-105466362D01*
X114234779Y-105480683D01*
X114247619Y-105495716D01*
X114259528Y-105512107D01*
X114265632Y-105517157D01*
X114265637Y-105517162D01*
X114276618Y-105526246D01*
X114282704Y-105532333D01*
X114283000Y-105532018D01*
X114332667Y-105578658D01*
X114335509Y-105581413D01*
X114355231Y-105601135D01*
X114358355Y-105603558D01*
X114358359Y-105603562D01*
X114358424Y-105603612D01*
X114367445Y-105611317D01*
X114399679Y-105641586D01*
X114406627Y-105645405D01*
X114406629Y-105645407D01*
X114417432Y-105651346D01*
X114433959Y-105662202D01*
X114443698Y-105669757D01*
X114443700Y-105669758D01*
X114449960Y-105674614D01*
X114490540Y-105692174D01*
X114501188Y-105697391D01*
X114525976Y-105711018D01*
X114539940Y-105718695D01*
X114547616Y-105720666D01*
X114547619Y-105720667D01*
X114559562Y-105723733D01*
X114578267Y-105730137D01*
X114596855Y-105738181D01*
X114604678Y-105739420D01*
X114604688Y-105739423D01*
X114640524Y-105745099D01*
X114652144Y-105747505D01*
X114683959Y-105755673D01*
X114694970Y-105758500D01*
X114715224Y-105758500D01*
X114734934Y-105760051D01*
X114754943Y-105763220D01*
X114762835Y-105762474D01*
X114781580Y-105760702D01*
X114798962Y-105759059D01*
X114810819Y-105758500D01*
X116446233Y-105758500D01*
X116457416Y-105759027D01*
X116464909Y-105760702D01*
X116472835Y-105760453D01*
X116472836Y-105760453D01*
X116532986Y-105758562D01*
X116536945Y-105758500D01*
X116564856Y-105758500D01*
X116568791Y-105758003D01*
X116568856Y-105757995D01*
X116580693Y-105757062D01*
X116612951Y-105756048D01*
X116616970Y-105755922D01*
X116624889Y-105755673D01*
X116644343Y-105750021D01*
X116663700Y-105746013D01*
X116675930Y-105744468D01*
X116675931Y-105744468D01*
X116683797Y-105743474D01*
X116691168Y-105740555D01*
X116691170Y-105740555D01*
X116724912Y-105727196D01*
X116736142Y-105723351D01*
X116770983Y-105713229D01*
X116770984Y-105713229D01*
X116778593Y-105711018D01*
X116785412Y-105706985D01*
X116785417Y-105706983D01*
X116796028Y-105700707D01*
X116813776Y-105692012D01*
X116832617Y-105684552D01*
X116868387Y-105658564D01*
X116878307Y-105652048D01*
X116909535Y-105633580D01*
X116909538Y-105633578D01*
X116916362Y-105629542D01*
X116930683Y-105615221D01*
X116945717Y-105602380D01*
X116955693Y-105595132D01*
X116962107Y-105590472D01*
X116990288Y-105556407D01*
X116998278Y-105547626D01*
X117642258Y-104903647D01*
X117650537Y-104896113D01*
X117657018Y-104892000D01*
X117703644Y-104842348D01*
X117706398Y-104839507D01*
X117726135Y-104819770D01*
X117728615Y-104816573D01*
X117736320Y-104807551D01*
X117761159Y-104781100D01*
X117766586Y-104775321D01*
X117770405Y-104768375D01*
X117770407Y-104768372D01*
X117776348Y-104757566D01*
X117787199Y-104741047D01*
X117794758Y-104731301D01*
X117799614Y-104725041D01*
X117802759Y-104717772D01*
X117802762Y-104717768D01*
X117817174Y-104684463D01*
X117822391Y-104673813D01*
X117843695Y-104635060D01*
X117848733Y-104615437D01*
X117855137Y-104596734D01*
X117860033Y-104585420D01*
X117860033Y-104585419D01*
X117863181Y-104578145D01*
X117864420Y-104570322D01*
X117864423Y-104570312D01*
X117870099Y-104534476D01*
X117872505Y-104522856D01*
X117881528Y-104487711D01*
X117881528Y-104487710D01*
X117883500Y-104480030D01*
X117883500Y-104459776D01*
X117885051Y-104440065D01*
X117886980Y-104427886D01*
X117888220Y-104420057D01*
X117884059Y-104376038D01*
X117883500Y-104364181D01*
X117883500Y-89053767D01*
X117884027Y-89042584D01*
X117885702Y-89035091D01*
X117883562Y-88967000D01*
X117883500Y-88963043D01*
X117883500Y-88935144D01*
X117882996Y-88931153D01*
X117882063Y-88919311D01*
X117880923Y-88883036D01*
X117880674Y-88875111D01*
X117878462Y-88867497D01*
X117878461Y-88867492D01*
X117875023Y-88855659D01*
X117871012Y-88836295D01*
X117869467Y-88824064D01*
X117868474Y-88816203D01*
X117865557Y-88808836D01*
X117865556Y-88808831D01*
X117852198Y-88775092D01*
X117848354Y-88763865D01*
X117838230Y-88729022D01*
X117836018Y-88721407D01*
X117825707Y-88703972D01*
X117817012Y-88686224D01*
X117809552Y-88667383D01*
X117783564Y-88631613D01*
X117777048Y-88621693D01*
X117758580Y-88590465D01*
X117758578Y-88590462D01*
X117754542Y-88583638D01*
X117740221Y-88569317D01*
X117727380Y-88554283D01*
X117720131Y-88544306D01*
X117715472Y-88537893D01*
X117681395Y-88509702D01*
X117672616Y-88501712D01*
X115403652Y-86232747D01*
X115396112Y-86224461D01*
X115392000Y-86217982D01*
X115342348Y-86171356D01*
X115339507Y-86168602D01*
X115319770Y-86148865D01*
X115316573Y-86146385D01*
X115307551Y-86138680D01*
X115281100Y-86113841D01*
X115275321Y-86108414D01*
X115268375Y-86104595D01*
X115268372Y-86104593D01*
X115257566Y-86098652D01*
X115241047Y-86087801D01*
X115235048Y-86083148D01*
X115225041Y-86075386D01*
X115217772Y-86072241D01*
X115217768Y-86072238D01*
X115184463Y-86057826D01*
X115173813Y-86052609D01*
X115135060Y-86031305D01*
X115115437Y-86026267D01*
X115096734Y-86019863D01*
X115085420Y-86014967D01*
X115085419Y-86014967D01*
X115078145Y-86011819D01*
X115070322Y-86010580D01*
X115070312Y-86010577D01*
X115034476Y-86004901D01*
X115022856Y-86002495D01*
X114987711Y-85993472D01*
X114987710Y-85993472D01*
X114980030Y-85991500D01*
X114959776Y-85991500D01*
X114940065Y-85989949D01*
X114927886Y-85988020D01*
X114920057Y-85986780D01*
X114912165Y-85987526D01*
X114876039Y-85990941D01*
X114864181Y-85991500D01*
X112983200Y-85991500D01*
X112915079Y-85971498D01*
X112895853Y-85955157D01*
X112895580Y-85955460D01*
X112890668Y-85951037D01*
X112886253Y-85946134D01*
X112822755Y-85900000D01*
X131486496Y-85900000D01*
X131487186Y-85906565D01*
X131504930Y-86075386D01*
X131506458Y-86089928D01*
X131565473Y-86271556D01*
X131660960Y-86436944D01*
X131665378Y-86441851D01*
X131665379Y-86441852D01*
X131747452Y-86533003D01*
X131788747Y-86578866D01*
X131943248Y-86691118D01*
X131949276Y-86693802D01*
X131949278Y-86693803D01*
X132011613Y-86721556D01*
X132117712Y-86768794D01*
X132211112Y-86788647D01*
X132298056Y-86807128D01*
X132298061Y-86807128D01*
X132304513Y-86808500D01*
X132495487Y-86808500D01*
X132501939Y-86807128D01*
X132501944Y-86807128D01*
X132588888Y-86788647D01*
X132682288Y-86768794D01*
X132788387Y-86721556D01*
X132850722Y-86693803D01*
X132850724Y-86693802D01*
X132856752Y-86691118D01*
X133011253Y-86578866D01*
X133015668Y-86573963D01*
X133020580Y-86569540D01*
X133021705Y-86570789D01*
X133075014Y-86537949D01*
X133108200Y-86533500D01*
X138921233Y-86533500D01*
X138932416Y-86534027D01*
X138939909Y-86535702D01*
X138947835Y-86535453D01*
X138947836Y-86535453D01*
X139007986Y-86533562D01*
X139011945Y-86533500D01*
X139039856Y-86533500D01*
X139043791Y-86533003D01*
X139043856Y-86532995D01*
X139055693Y-86532062D01*
X139087951Y-86531048D01*
X139091970Y-86530922D01*
X139099889Y-86530673D01*
X139119343Y-86525021D01*
X139138700Y-86521013D01*
X139150930Y-86519468D01*
X139150931Y-86519468D01*
X139158797Y-86518474D01*
X139166168Y-86515555D01*
X139166170Y-86515555D01*
X139199912Y-86502196D01*
X139211142Y-86498351D01*
X139245983Y-86488229D01*
X139245984Y-86488229D01*
X139253593Y-86486018D01*
X139260412Y-86481985D01*
X139260417Y-86481983D01*
X139271028Y-86475707D01*
X139288776Y-86467012D01*
X139307617Y-86459552D01*
X139343387Y-86433564D01*
X139353307Y-86427048D01*
X139384535Y-86408580D01*
X139384538Y-86408578D01*
X139391362Y-86404542D01*
X139405683Y-86390221D01*
X139420717Y-86377380D01*
X139430694Y-86370131D01*
X139437107Y-86365472D01*
X139442158Y-86359367D01*
X139442163Y-86359362D01*
X139465299Y-86331396D01*
X139473287Y-86322618D01*
X140100500Y-85695405D01*
X140162812Y-85661379D01*
X140189595Y-85658500D01*
X145560406Y-85658500D01*
X145628527Y-85678502D01*
X145649501Y-85695405D01*
X146215001Y-86260905D01*
X146249027Y-86323217D01*
X146243962Y-86394032D01*
X146215001Y-86439095D01*
X142782747Y-89871348D01*
X142774461Y-89878888D01*
X142767982Y-89883000D01*
X142762557Y-89888777D01*
X142721357Y-89932651D01*
X142718602Y-89935493D01*
X142698865Y-89955230D01*
X142696385Y-89958427D01*
X142688682Y-89967447D01*
X142658414Y-89999679D01*
X142654595Y-90006625D01*
X142654593Y-90006628D01*
X142648652Y-90017434D01*
X142637801Y-90033953D01*
X142625386Y-90049959D01*
X142622241Y-90057228D01*
X142622238Y-90057232D01*
X142607826Y-90090537D01*
X142602609Y-90101187D01*
X142581305Y-90139940D01*
X142579334Y-90147615D01*
X142579334Y-90147616D01*
X142576267Y-90159562D01*
X142569863Y-90178266D01*
X142561819Y-90196855D01*
X142560580Y-90204678D01*
X142560577Y-90204688D01*
X142554901Y-90240524D01*
X142552495Y-90252144D01*
X142541500Y-90294970D01*
X142541500Y-90315224D01*
X142539949Y-90334934D01*
X142536780Y-90354943D01*
X142537526Y-90362835D01*
X142540941Y-90398961D01*
X142541500Y-90410819D01*
X142541500Y-90722476D01*
X142521498Y-90790597D01*
X142509142Y-90806779D01*
X142435960Y-90888056D01*
X142340473Y-91053444D01*
X142281458Y-91235072D01*
X142261496Y-91425000D01*
X142281458Y-91614928D01*
X142340473Y-91796556D01*
X142435960Y-91961944D01*
X142563747Y-92103866D01*
X142718248Y-92216118D01*
X142724276Y-92218802D01*
X142724278Y-92218803D01*
X142886681Y-92291109D01*
X142892712Y-92293794D01*
X142986113Y-92313647D01*
X143073056Y-92332128D01*
X143073061Y-92332128D01*
X143079513Y-92333500D01*
X143270487Y-92333500D01*
X143276939Y-92332128D01*
X143276944Y-92332128D01*
X143363888Y-92313647D01*
X143457288Y-92293794D01*
X143463319Y-92291109D01*
X143625722Y-92218803D01*
X143625724Y-92218802D01*
X143631752Y-92216118D01*
X143786253Y-92103866D01*
X143914040Y-91961944D01*
X144009527Y-91796556D01*
X144068542Y-91614928D01*
X144088504Y-91425000D01*
X144068542Y-91235072D01*
X144009527Y-91053444D01*
X143914040Y-90888056D01*
X143840863Y-90806785D01*
X143810147Y-90742779D01*
X143808500Y-90722476D01*
X143808500Y-90689594D01*
X143828502Y-90621473D01*
X143845405Y-90600499D01*
X147150499Y-87295405D01*
X147212811Y-87261379D01*
X147239594Y-87258500D01*
X147295487Y-87258500D01*
X147301939Y-87257128D01*
X147301944Y-87257128D01*
X147388887Y-87238647D01*
X147482288Y-87218794D01*
X147488319Y-87216109D01*
X147650722Y-87143803D01*
X147650724Y-87143802D01*
X147656752Y-87141118D01*
X147811253Y-87028866D01*
X147939040Y-86886944D01*
X148034527Y-86721556D01*
X148093542Y-86539928D01*
X148095400Y-86522256D01*
X148112814Y-86356565D01*
X148113504Y-86350000D01*
X148093542Y-86160072D01*
X148034527Y-85978444D01*
X147939040Y-85813056D01*
X147811253Y-85671134D01*
X147656752Y-85558882D01*
X147650724Y-85556198D01*
X147650722Y-85556197D01*
X147488319Y-85483891D01*
X147488318Y-85483891D01*
X147482288Y-85481206D01*
X147388888Y-85461353D01*
X147301944Y-85442872D01*
X147301939Y-85442872D01*
X147295487Y-85441500D01*
X147239595Y-85441500D01*
X147171474Y-85421498D01*
X147150499Y-85404595D01*
X146779796Y-85033891D01*
X146378647Y-84632742D01*
X146371113Y-84624463D01*
X146367000Y-84617982D01*
X146317348Y-84571356D01*
X146314507Y-84568602D01*
X146294770Y-84548865D01*
X146291573Y-84546385D01*
X146282551Y-84538680D01*
X146269122Y-84526069D01*
X146250321Y-84508414D01*
X146243375Y-84504595D01*
X146243372Y-84504593D01*
X146232566Y-84498652D01*
X146216047Y-84487801D01*
X146215583Y-84487441D01*
X146200041Y-84475386D01*
X146192772Y-84472241D01*
X146192768Y-84472238D01*
X146159463Y-84457826D01*
X146148813Y-84452609D01*
X146110060Y-84431305D01*
X146090437Y-84426267D01*
X146071734Y-84419863D01*
X146060420Y-84414967D01*
X146060419Y-84414967D01*
X146053145Y-84411819D01*
X146045322Y-84410580D01*
X146045312Y-84410577D01*
X146009476Y-84404901D01*
X145997856Y-84402495D01*
X145962711Y-84393472D01*
X145962710Y-84393472D01*
X145955030Y-84391500D01*
X145934776Y-84391500D01*
X145915065Y-84389949D01*
X145902886Y-84388020D01*
X145895057Y-84386780D01*
X145865786Y-84389547D01*
X145851039Y-84390941D01*
X145839181Y-84391500D01*
X139953767Y-84391500D01*
X139942584Y-84390973D01*
X139935091Y-84389298D01*
X139927165Y-84389547D01*
X139927164Y-84389547D01*
X139867001Y-84391438D01*
X139863043Y-84391500D01*
X139835144Y-84391500D01*
X139831154Y-84392004D01*
X139819320Y-84392936D01*
X139775111Y-84394326D01*
X139767497Y-84396538D01*
X139767492Y-84396539D01*
X139755659Y-84399977D01*
X139736296Y-84403988D01*
X139716203Y-84406526D01*
X139708836Y-84409443D01*
X139708831Y-84409444D01*
X139675092Y-84422802D01*
X139663865Y-84426646D01*
X139621407Y-84438982D01*
X139614581Y-84443019D01*
X139603972Y-84449293D01*
X139586224Y-84457988D01*
X139567383Y-84465448D01*
X139560967Y-84470110D01*
X139560966Y-84470110D01*
X139531613Y-84491436D01*
X139521693Y-84497952D01*
X139490465Y-84516420D01*
X139490462Y-84516422D01*
X139483638Y-84520458D01*
X139469317Y-84534779D01*
X139454284Y-84547619D01*
X139437893Y-84559528D01*
X139432842Y-84565633D01*
X139432837Y-84565638D01*
X139409701Y-84593604D01*
X139401713Y-84602382D01*
X138774500Y-85229595D01*
X138712188Y-85263621D01*
X138685405Y-85266500D01*
X133108200Y-85266500D01*
X133040079Y-85246498D01*
X133020853Y-85230157D01*
X133020580Y-85230460D01*
X133015668Y-85226037D01*
X133011253Y-85221134D01*
X132856752Y-85108882D01*
X132850724Y-85106198D01*
X132850722Y-85106197D01*
X132688319Y-85033891D01*
X132688318Y-85033891D01*
X132682288Y-85031206D01*
X132588888Y-85011353D01*
X132501944Y-84992872D01*
X132501939Y-84992872D01*
X132495487Y-84991500D01*
X132304513Y-84991500D01*
X132298061Y-84992872D01*
X132298056Y-84992872D01*
X132211112Y-85011353D01*
X132117712Y-85031206D01*
X132111682Y-85033891D01*
X132111681Y-85033891D01*
X131949278Y-85106197D01*
X131949276Y-85106198D01*
X131943248Y-85108882D01*
X131788747Y-85221134D01*
X131784326Y-85226044D01*
X131784325Y-85226045D01*
X131750492Y-85263621D01*
X131660960Y-85363056D01*
X131565473Y-85528444D01*
X131506458Y-85710072D01*
X131486496Y-85900000D01*
X112822755Y-85900000D01*
X112731752Y-85833882D01*
X112725724Y-85831198D01*
X112725722Y-85831197D01*
X112563319Y-85758891D01*
X112563318Y-85758891D01*
X112557288Y-85756206D01*
X112463887Y-85736353D01*
X112376944Y-85717872D01*
X112376939Y-85717872D01*
X112370487Y-85716500D01*
X112179513Y-85716500D01*
X112173061Y-85717872D01*
X112173056Y-85717872D01*
X112086113Y-85736353D01*
X111992712Y-85756206D01*
X111986682Y-85758891D01*
X111986681Y-85758891D01*
X111824278Y-85831197D01*
X111824276Y-85831198D01*
X111818248Y-85833882D01*
X111663747Y-85946134D01*
X111659326Y-85951044D01*
X111659325Y-85951045D01*
X111550203Y-86072238D01*
X111535960Y-86088056D01*
X111440473Y-86253444D01*
X111381458Y-86435072D01*
X111380768Y-86441633D01*
X111380768Y-86441635D01*
X111376103Y-86486018D01*
X111361496Y-86625000D01*
X89108500Y-86625000D01*
X89108500Y-65025000D01*
X99061496Y-65025000D01*
X99081458Y-65214928D01*
X99140473Y-65396556D01*
X99235960Y-65561944D01*
X99363747Y-65703866D01*
X99518248Y-65816118D01*
X99524276Y-65818802D01*
X99524278Y-65818803D01*
X99686681Y-65891109D01*
X99692712Y-65893794D01*
X99786112Y-65913647D01*
X99873056Y-65932128D01*
X99873061Y-65932128D01*
X99879513Y-65933500D01*
X99935406Y-65933500D01*
X100003527Y-65953502D01*
X100024501Y-65970405D01*
X106471348Y-72417253D01*
X106478888Y-72425539D01*
X106483000Y-72432018D01*
X106488777Y-72437443D01*
X106532651Y-72478643D01*
X106535493Y-72481398D01*
X106555230Y-72501135D01*
X106558427Y-72503615D01*
X106567447Y-72511318D01*
X106599679Y-72541586D01*
X106606625Y-72545405D01*
X106606628Y-72545407D01*
X106617434Y-72551348D01*
X106633953Y-72562199D01*
X106649959Y-72574614D01*
X106657228Y-72577759D01*
X106657232Y-72577762D01*
X106690537Y-72592174D01*
X106701187Y-72597391D01*
X106739940Y-72618695D01*
X106747615Y-72620666D01*
X106747616Y-72620666D01*
X106759562Y-72623733D01*
X106778267Y-72630137D01*
X106796855Y-72638181D01*
X106804678Y-72639420D01*
X106804688Y-72639423D01*
X106840524Y-72645099D01*
X106852144Y-72647505D01*
X106887289Y-72656528D01*
X106894970Y-72658500D01*
X106915224Y-72658500D01*
X106934934Y-72660051D01*
X106954943Y-72663220D01*
X106962835Y-72662474D01*
X106998961Y-72659059D01*
X107010819Y-72658500D01*
X115735406Y-72658500D01*
X115803527Y-72678502D01*
X115824501Y-72695405D01*
X117339195Y-74210100D01*
X117373221Y-74272412D01*
X117376100Y-74299195D01*
X117376100Y-75056276D01*
X117356098Y-75124397D01*
X117322371Y-75159489D01*
X117153357Y-75277834D01*
X117153354Y-75277836D01*
X117148846Y-75280993D01*
X116983793Y-75446046D01*
X116849909Y-75637252D01*
X116848326Y-75640647D01*
X116797334Y-75689266D01*
X116727620Y-75702700D01*
X116661710Y-75676312D01*
X116630953Y-75640817D01*
X116629291Y-75637252D01*
X116495407Y-75446046D01*
X116330354Y-75280993D01*
X116325846Y-75277836D01*
X116325843Y-75277834D01*
X116143657Y-75150266D01*
X116143655Y-75150265D01*
X116139148Y-75147109D01*
X116134166Y-75144786D01*
X116134161Y-75144783D01*
X115932580Y-75050784D01*
X115932578Y-75050783D01*
X115927598Y-75048461D01*
X115922290Y-75047039D01*
X115922288Y-75047038D01*
X115707447Y-74989472D01*
X115707445Y-74989472D01*
X115702132Y-74988048D01*
X115469600Y-74967704D01*
X115237068Y-74988048D01*
X115231755Y-74989472D01*
X115231753Y-74989472D01*
X115016912Y-75047038D01*
X115016910Y-75047039D01*
X115011602Y-75048461D01*
X115006622Y-75050783D01*
X115006620Y-75050784D01*
X114805039Y-75144783D01*
X114805034Y-75144786D01*
X114800052Y-75147109D01*
X114795545Y-75150265D01*
X114795543Y-75150266D01*
X114613357Y-75277834D01*
X114613354Y-75277836D01*
X114608846Y-75280993D01*
X114465856Y-75423983D01*
X114403544Y-75458009D01*
X114332729Y-75452944D01*
X114275893Y-75410397D01*
X114257345Y-75370796D01*
X114256845Y-75370984D01*
X114254486Y-75364692D01*
X114205715Y-75234595D01*
X114118361Y-75118039D01*
X114001805Y-75030685D01*
X113865416Y-74979555D01*
X113803234Y-74972800D01*
X112055966Y-74972800D01*
X111993784Y-74979555D01*
X111857395Y-75030685D01*
X111740839Y-75118039D01*
X111653485Y-75234595D01*
X111602355Y-75370984D01*
X111595600Y-75433166D01*
X111595600Y-77180434D01*
X111602355Y-77242616D01*
X111653485Y-77379005D01*
X111740839Y-77495561D01*
X111857395Y-77582915D01*
X111993784Y-77634045D01*
X112055966Y-77640800D01*
X113803234Y-77640800D01*
X113865416Y-77634045D01*
X114001805Y-77582915D01*
X114118361Y-77495561D01*
X114205715Y-77379005D01*
X114256845Y-77242616D01*
X114257919Y-77243018D01*
X114289396Y-77187920D01*
X114352351Y-77155099D01*
X114423056Y-77161525D01*
X114465856Y-77189617D01*
X114608846Y-77332607D01*
X114613354Y-77335764D01*
X114613357Y-77335766D01*
X114795543Y-77463334D01*
X114800052Y-77466491D01*
X114805034Y-77468814D01*
X114805039Y-77468817D01*
X115006620Y-77562816D01*
X115011602Y-77565139D01*
X115016910Y-77566561D01*
X115016912Y-77566562D01*
X115231753Y-77624128D01*
X115231755Y-77624128D01*
X115237068Y-77625552D01*
X115469600Y-77645896D01*
X115702132Y-77625552D01*
X115707445Y-77624128D01*
X115707447Y-77624128D01*
X115922288Y-77566562D01*
X115922290Y-77566561D01*
X115927598Y-77565139D01*
X115932580Y-77562816D01*
X116134161Y-77468817D01*
X116134166Y-77468814D01*
X116139148Y-77466491D01*
X116143657Y-77463334D01*
X116325843Y-77335766D01*
X116325846Y-77335764D01*
X116330354Y-77332607D01*
X116495407Y-77167554D01*
X116629291Y-76976348D01*
X116630874Y-76972953D01*
X116681866Y-76924334D01*
X116751580Y-76910900D01*
X116817490Y-76937288D01*
X116848247Y-76972783D01*
X116849909Y-76976348D01*
X116983793Y-77167554D01*
X117148846Y-77332607D01*
X117153354Y-77335764D01*
X117153357Y-77335766D01*
X117335543Y-77463334D01*
X117340052Y-77466491D01*
X117345034Y-77468814D01*
X117345039Y-77468817D01*
X117546620Y-77562816D01*
X117551602Y-77565139D01*
X117556910Y-77566561D01*
X117556912Y-77566562D01*
X117771753Y-77624128D01*
X117771755Y-77624128D01*
X117777068Y-77625552D01*
X118009600Y-77645896D01*
X118242132Y-77625552D01*
X118247445Y-77624128D01*
X118247447Y-77624128D01*
X118462288Y-77566562D01*
X118462290Y-77566561D01*
X118467598Y-77565139D01*
X118472580Y-77562816D01*
X118674161Y-77468817D01*
X118674166Y-77468814D01*
X118679148Y-77466491D01*
X118683657Y-77463334D01*
X118865843Y-77335766D01*
X118865846Y-77335764D01*
X118870354Y-77332607D01*
X119035407Y-77167554D01*
X119169291Y-76976348D01*
X119171614Y-76971366D01*
X119171617Y-76971361D01*
X119265616Y-76769780D01*
X119265617Y-76769778D01*
X119267939Y-76764798D01*
X119328352Y-76539332D01*
X119348696Y-76306800D01*
X119328352Y-76074268D01*
X119267939Y-75848802D01*
X119193546Y-75689266D01*
X119171617Y-75642239D01*
X119171614Y-75642234D01*
X119169291Y-75637252D01*
X119035407Y-75446046D01*
X118870354Y-75280993D01*
X118865846Y-75277836D01*
X118865843Y-75277834D01*
X118696829Y-75159489D01*
X118652501Y-75104032D01*
X118643100Y-75056276D01*
X118643100Y-74063367D01*
X118643627Y-74052184D01*
X118645302Y-74044691D01*
X118643162Y-73976600D01*
X118643100Y-73972643D01*
X118643100Y-73944744D01*
X118642596Y-73940753D01*
X118641663Y-73928911D01*
X118640523Y-73892636D01*
X118640274Y-73884711D01*
X118638062Y-73877097D01*
X118638061Y-73877092D01*
X118634623Y-73865259D01*
X118630612Y-73845895D01*
X118629067Y-73833664D01*
X118628074Y-73825803D01*
X118625157Y-73818436D01*
X118625156Y-73818431D01*
X118611798Y-73784692D01*
X118607954Y-73773465D01*
X118597830Y-73738622D01*
X118595618Y-73731007D01*
X118585307Y-73713572D01*
X118576612Y-73695824D01*
X118569152Y-73676983D01*
X118543164Y-73641213D01*
X118536648Y-73631293D01*
X118518180Y-73600065D01*
X118518178Y-73600062D01*
X118514142Y-73593238D01*
X118499821Y-73578917D01*
X118486980Y-73563883D01*
X118479731Y-73553906D01*
X118475072Y-73547493D01*
X118440995Y-73519302D01*
X118432216Y-73511312D01*
X117034999Y-72114095D01*
X117000973Y-72051783D01*
X117006038Y-71980968D01*
X117034999Y-71935905D01*
X118376847Y-70594057D01*
X118385137Y-70586513D01*
X118391618Y-70582400D01*
X118438259Y-70532732D01*
X118441013Y-70529891D01*
X118460735Y-70510169D01*
X118463212Y-70506976D01*
X118470917Y-70497955D01*
X118495759Y-70471500D01*
X118501186Y-70465721D01*
X118505007Y-70458771D01*
X118510946Y-70447968D01*
X118521802Y-70431441D01*
X118529357Y-70421702D01*
X118529358Y-70421700D01*
X118534214Y-70415440D01*
X118551774Y-70374860D01*
X118556991Y-70364212D01*
X118574475Y-70332409D01*
X118574476Y-70332407D01*
X118578295Y-70325460D01*
X118583333Y-70305837D01*
X118589737Y-70287134D01*
X118594633Y-70275820D01*
X118594633Y-70275819D01*
X118597781Y-70268545D01*
X118599020Y-70260722D01*
X118599023Y-70260712D01*
X118604699Y-70224876D01*
X118607105Y-70213256D01*
X118616128Y-70178111D01*
X118616128Y-70178110D01*
X118618100Y-70170430D01*
X118618100Y-70150176D01*
X118619651Y-70130465D01*
X118621580Y-70118286D01*
X118622820Y-70110457D01*
X118618659Y-70066438D01*
X118618100Y-70054581D01*
X118618100Y-69957324D01*
X118638102Y-69889203D01*
X118671829Y-69854111D01*
X118840843Y-69735766D01*
X118840846Y-69735764D01*
X118845354Y-69732607D01*
X119010407Y-69567554D01*
X119144291Y-69376348D01*
X119146614Y-69371366D01*
X119146617Y-69371361D01*
X119240616Y-69169780D01*
X119240617Y-69169778D01*
X119242939Y-69164798D01*
X119303352Y-68939332D01*
X119323696Y-68706800D01*
X119303352Y-68474268D01*
X119242939Y-68248802D01*
X119168546Y-68089266D01*
X119146617Y-68042239D01*
X119146614Y-68042234D01*
X119144291Y-68037252D01*
X119010407Y-67846046D01*
X118845354Y-67680993D01*
X118840846Y-67677836D01*
X118840843Y-67677834D01*
X118658657Y-67550266D01*
X118658655Y-67550265D01*
X118654148Y-67547109D01*
X118649166Y-67544786D01*
X118649161Y-67544783D01*
X118447580Y-67450784D01*
X118447578Y-67450783D01*
X118442598Y-67448461D01*
X118437290Y-67447039D01*
X118437288Y-67447038D01*
X118222447Y-67389472D01*
X118222445Y-67389472D01*
X118217132Y-67388048D01*
X117984600Y-67367704D01*
X117752068Y-67388048D01*
X117746755Y-67389472D01*
X117746753Y-67389472D01*
X117531912Y-67447038D01*
X117531910Y-67447039D01*
X117526602Y-67448461D01*
X117521622Y-67450783D01*
X117521620Y-67450784D01*
X117320039Y-67544783D01*
X117320034Y-67544786D01*
X117315052Y-67547109D01*
X117310545Y-67550265D01*
X117310543Y-67550266D01*
X117128357Y-67677834D01*
X117128354Y-67677836D01*
X117123846Y-67680993D01*
X116958793Y-67846046D01*
X116824909Y-68037252D01*
X116823326Y-68040647D01*
X116772334Y-68089266D01*
X116702620Y-68102700D01*
X116636710Y-68076312D01*
X116605953Y-68040817D01*
X116604291Y-68037252D01*
X116470407Y-67846046D01*
X116305354Y-67680993D01*
X116300846Y-67677836D01*
X116300843Y-67677834D01*
X116118657Y-67550266D01*
X116118655Y-67550265D01*
X116114148Y-67547109D01*
X116109166Y-67544786D01*
X116109161Y-67544783D01*
X115907580Y-67450784D01*
X115907578Y-67450783D01*
X115902598Y-67448461D01*
X115897290Y-67447039D01*
X115897288Y-67447038D01*
X115682447Y-67389472D01*
X115682445Y-67389472D01*
X115677132Y-67388048D01*
X115444600Y-67367704D01*
X115212068Y-67388048D01*
X115206755Y-67389472D01*
X115206753Y-67389472D01*
X114991912Y-67447038D01*
X114991910Y-67447039D01*
X114986602Y-67448461D01*
X114981622Y-67450783D01*
X114981620Y-67450784D01*
X114780039Y-67544783D01*
X114780034Y-67544786D01*
X114775052Y-67547109D01*
X114770545Y-67550265D01*
X114770543Y-67550266D01*
X114588357Y-67677834D01*
X114588354Y-67677836D01*
X114583846Y-67680993D01*
X114440856Y-67823983D01*
X114378544Y-67858009D01*
X114307729Y-67852944D01*
X114250893Y-67810397D01*
X114232345Y-67770796D01*
X114231845Y-67770984D01*
X114229486Y-67764692D01*
X114180715Y-67634595D01*
X114093361Y-67518039D01*
X113976805Y-67430685D01*
X113840416Y-67379555D01*
X113778234Y-67372800D01*
X113664100Y-67372800D01*
X113595979Y-67352798D01*
X113549486Y-67299142D01*
X113538100Y-67246800D01*
X113538100Y-64559994D01*
X113558102Y-64491873D01*
X113575005Y-64470899D01*
X118069249Y-59976655D01*
X118131561Y-59942629D01*
X118158344Y-59939750D01*
X118214237Y-59939750D01*
X118220689Y-59938378D01*
X118220694Y-59938378D01*
X118307637Y-59919897D01*
X118401038Y-59900044D01*
X118407069Y-59897359D01*
X118569472Y-59825053D01*
X118569474Y-59825052D01*
X118575502Y-59822368D01*
X118730003Y-59710116D01*
X118857790Y-59568194D01*
X118953277Y-59402806D01*
X119012292Y-59221178D01*
X119032254Y-59031250D01*
X119012292Y-58841322D01*
X118953277Y-58659694D01*
X118857790Y-58494306D01*
X118730003Y-58352384D01*
X118575502Y-58240132D01*
X118569474Y-58237448D01*
X118569472Y-58237447D01*
X118407069Y-58165141D01*
X118407068Y-58165141D01*
X118401038Y-58162456D01*
X118307637Y-58142603D01*
X118220694Y-58124122D01*
X118220689Y-58124122D01*
X118214237Y-58122750D01*
X118023263Y-58122750D01*
X118016811Y-58124122D01*
X118016806Y-58124122D01*
X117929863Y-58142603D01*
X117836462Y-58162456D01*
X117830432Y-58165141D01*
X117830431Y-58165141D01*
X117668028Y-58237447D01*
X117668026Y-58237448D01*
X117661998Y-58240132D01*
X117507497Y-58352384D01*
X117379710Y-58494306D01*
X117284223Y-58659694D01*
X117225208Y-58841322D01*
X117224518Y-58847883D01*
X117224518Y-58847885D01*
X117207843Y-59006542D01*
X117180830Y-59072199D01*
X117171628Y-59082467D01*
X112620194Y-63633901D01*
X112577484Y-63661957D01*
X112527883Y-63681596D01*
X112524187Y-63682992D01*
X112460111Y-63706061D01*
X112453761Y-63710376D01*
X112453221Y-63710620D01*
X112450018Y-63712315D01*
X112449511Y-63712626D01*
X112442383Y-63715448D01*
X112435977Y-63720102D01*
X112435972Y-63720105D01*
X112387273Y-63755487D01*
X112384043Y-63757757D01*
X112327729Y-63796028D01*
X112322654Y-63801785D01*
X112322189Y-63802157D01*
X112319508Y-63804598D01*
X112319102Y-63805017D01*
X112312893Y-63809528D01*
X112307840Y-63815636D01*
X112307839Y-63815637D01*
X112269488Y-63861995D01*
X112266920Y-63865001D01*
X112221880Y-63916090D01*
X112218398Y-63922925D01*
X112218052Y-63923386D01*
X112216049Y-63926435D01*
X112215759Y-63926944D01*
X112210867Y-63932856D01*
X112207491Y-63940031D01*
X112207490Y-63940032D01*
X112181872Y-63994474D01*
X112180150Y-63997990D01*
X112149215Y-64058704D01*
X112147540Y-64066195D01*
X112147312Y-64066747D01*
X112146142Y-64070164D01*
X112145985Y-64070736D01*
X112142717Y-64077682D01*
X112141232Y-64085468D01*
X112129957Y-64144571D01*
X112129159Y-64148427D01*
X112114298Y-64214909D01*
X112114539Y-64222578D01*
X112114456Y-64223160D01*
X112114171Y-64226789D01*
X112114162Y-64227374D01*
X112112725Y-64234906D01*
X112117002Y-64302884D01*
X112117186Y-64306780D01*
X112119327Y-64374889D01*
X112121468Y-64382258D01*
X112121534Y-64382857D01*
X112122157Y-64386424D01*
X112122293Y-64386990D01*
X112122775Y-64394650D01*
X112125224Y-64402186D01*
X112143830Y-64459449D01*
X112144994Y-64463234D01*
X112163982Y-64528593D01*
X112167886Y-64535195D01*
X112168095Y-64535747D01*
X112169586Y-64539049D01*
X112169864Y-64539573D01*
X112172236Y-64546875D01*
X112208754Y-64604418D01*
X112210791Y-64607743D01*
X112245458Y-64666362D01*
X112245855Y-64666759D01*
X112270606Y-64729795D01*
X112271100Y-64740938D01*
X112271100Y-67246800D01*
X112251098Y-67314921D01*
X112197442Y-67361414D01*
X112145100Y-67372800D01*
X112030966Y-67372800D01*
X111968784Y-67379555D01*
X111832395Y-67430685D01*
X111715839Y-67518039D01*
X111628485Y-67634595D01*
X111577355Y-67770984D01*
X111570600Y-67833166D01*
X111570600Y-69580434D01*
X111577355Y-69642616D01*
X111628485Y-69779005D01*
X111715839Y-69895561D01*
X111832395Y-69982915D01*
X111968784Y-70034045D01*
X112030966Y-70040800D01*
X113778234Y-70040800D01*
X113840416Y-70034045D01*
X113976805Y-69982915D01*
X114093361Y-69895561D01*
X114180715Y-69779005D01*
X114231845Y-69642616D01*
X114232919Y-69643018D01*
X114264396Y-69587920D01*
X114327351Y-69555099D01*
X114398056Y-69561525D01*
X114440856Y-69589617D01*
X114583846Y-69732607D01*
X114588354Y-69735764D01*
X114588357Y-69735766D01*
X114770543Y-69863334D01*
X114775052Y-69866491D01*
X114780034Y-69868814D01*
X114780039Y-69868817D01*
X114981620Y-69962816D01*
X114986602Y-69965139D01*
X114991910Y-69966561D01*
X114991912Y-69966562D01*
X115206753Y-70024128D01*
X115206755Y-70024128D01*
X115212068Y-70025552D01*
X115444600Y-70045896D01*
X115677132Y-70025552D01*
X115682445Y-70024128D01*
X115682447Y-70024128D01*
X115897288Y-69966562D01*
X115897290Y-69966561D01*
X115902598Y-69965139D01*
X115907580Y-69962816D01*
X116109161Y-69868817D01*
X116109166Y-69868814D01*
X116114148Y-69866491D01*
X116118657Y-69863334D01*
X116300843Y-69735766D01*
X116300846Y-69735764D01*
X116305354Y-69732607D01*
X116470407Y-69567554D01*
X116604291Y-69376348D01*
X116605874Y-69372953D01*
X116656866Y-69324334D01*
X116726580Y-69310900D01*
X116792490Y-69337288D01*
X116823247Y-69372783D01*
X116824909Y-69376348D01*
X116958793Y-69567554D01*
X117123846Y-69732607D01*
X117128354Y-69735764D01*
X117128357Y-69735766D01*
X117190609Y-69779355D01*
X117234937Y-69834812D01*
X117242246Y-69905431D01*
X117207433Y-69971663D01*
X115824500Y-71354595D01*
X115762188Y-71388621D01*
X115735405Y-71391500D01*
X107289594Y-71391500D01*
X107221473Y-71371498D01*
X107200499Y-71354595D01*
X100922122Y-65076217D01*
X100888096Y-65013905D01*
X100885907Y-65000292D01*
X100869232Y-64841635D01*
X100869232Y-64841633D01*
X100868542Y-64835072D01*
X100809527Y-64653444D01*
X100783142Y-64607743D01*
X100772314Y-64588990D01*
X100714040Y-64488056D01*
X100636723Y-64402186D01*
X100590675Y-64351045D01*
X100590674Y-64351044D01*
X100586253Y-64346134D01*
X100431752Y-64233882D01*
X100425724Y-64231198D01*
X100425722Y-64231197D01*
X100263319Y-64158891D01*
X100263318Y-64158891D01*
X100257288Y-64156206D01*
X100163887Y-64136353D01*
X100076944Y-64117872D01*
X100076939Y-64117872D01*
X100070487Y-64116500D01*
X99879513Y-64116500D01*
X99873061Y-64117872D01*
X99873056Y-64117872D01*
X99786113Y-64136353D01*
X99692712Y-64156206D01*
X99686682Y-64158891D01*
X99686681Y-64158891D01*
X99524278Y-64231197D01*
X99524276Y-64231198D01*
X99518248Y-64233882D01*
X99363747Y-64346134D01*
X99359326Y-64351044D01*
X99359325Y-64351045D01*
X99313278Y-64402186D01*
X99235960Y-64488056D01*
X99177686Y-64588990D01*
X99166859Y-64607743D01*
X99140473Y-64653444D01*
X99081458Y-64835072D01*
X99061496Y-65025000D01*
X89108500Y-65025000D01*
X89108500Y-54625400D01*
X97041500Y-54625400D01*
X97052474Y-54731166D01*
X97108450Y-54898946D01*
X97201522Y-55049348D01*
X97326697Y-55174305D01*
X97332927Y-55178145D01*
X97332928Y-55178146D01*
X97470090Y-55262694D01*
X97477262Y-55267115D01*
X97520701Y-55281523D01*
X97638611Y-55320632D01*
X97638613Y-55320632D01*
X97645139Y-55322797D01*
X97651975Y-55323497D01*
X97651978Y-55323498D01*
X97695031Y-55327909D01*
X97749600Y-55333500D01*
X99050400Y-55333500D01*
X99053646Y-55333163D01*
X99053650Y-55333163D01*
X99149308Y-55323238D01*
X99149312Y-55323237D01*
X99156166Y-55322526D01*
X99162702Y-55320345D01*
X99162704Y-55320345D01*
X99294806Y-55276272D01*
X99323946Y-55266550D01*
X99474348Y-55173478D01*
X99599305Y-55048303D01*
X99689353Y-54902220D01*
X99742124Y-54854727D01*
X99812196Y-54843303D01*
X99877320Y-54871577D01*
X99887782Y-54881364D01*
X99993234Y-54991906D01*
X100001186Y-54998941D01*
X100177525Y-55130141D01*
X100186562Y-55135745D01*
X100382484Y-55235357D01*
X100392335Y-55239357D01*
X100602240Y-55304534D01*
X100612624Y-55306817D01*
X100628043Y-55308861D01*
X100642207Y-55306665D01*
X100646000Y-55293478D01*
X100646000Y-55291192D01*
X101154000Y-55291192D01*
X101157973Y-55304723D01*
X101168580Y-55306248D01*
X101286421Y-55281523D01*
X101296617Y-55278463D01*
X101501029Y-55197737D01*
X101510561Y-55193006D01*
X101698462Y-55078984D01*
X101707052Y-55072720D01*
X101873052Y-54928673D01*
X101880472Y-54921042D01*
X102019826Y-54751089D01*
X102025850Y-54742322D01*
X102134576Y-54551318D01*
X102139041Y-54541654D01*
X102214031Y-54335059D01*
X102216802Y-54324792D01*
X102244463Y-54171826D01*
X102243045Y-54158587D01*
X102228406Y-54154000D01*
X101172115Y-54154000D01*
X101156876Y-54158475D01*
X101155671Y-54159865D01*
X101154000Y-54167548D01*
X101154000Y-55291192D01*
X100646000Y-55291192D01*
X100646000Y-53627885D01*
X101154000Y-53627885D01*
X101158475Y-53643124D01*
X101159865Y-53644329D01*
X101167548Y-53646000D01*
X102229607Y-53646000D01*
X102244285Y-53641690D01*
X102246348Y-53629807D01*
X102243876Y-53600676D01*
X102242085Y-53590202D01*
X102186870Y-53377465D01*
X102183335Y-53367425D01*
X102093063Y-53167030D01*
X102087894Y-53157744D01*
X101965150Y-52975425D01*
X101958481Y-52967130D01*
X101806772Y-52808100D01*
X101798814Y-52801059D01*
X101622475Y-52669859D01*
X101613438Y-52664255D01*
X101417516Y-52564643D01*
X101407665Y-52560643D01*
X101197760Y-52495466D01*
X101187376Y-52493183D01*
X101171957Y-52491139D01*
X101157793Y-52493335D01*
X101154000Y-52506522D01*
X101154000Y-53627885D01*
X100646000Y-53627885D01*
X100646000Y-52508808D01*
X100642027Y-52495277D01*
X100631420Y-52493752D01*
X100513579Y-52518477D01*
X100503383Y-52521537D01*
X100298971Y-52602263D01*
X100289439Y-52606994D01*
X100101538Y-52721016D01*
X100092948Y-52727280D01*
X99926948Y-52871327D01*
X99919530Y-52878956D01*
X99893609Y-52910569D01*
X99834949Y-52950564D01*
X99763979Y-52952496D01*
X99703230Y-52915752D01*
X99689030Y-52896982D01*
X99602332Y-52756880D01*
X99598478Y-52750652D01*
X99473303Y-52625695D01*
X99442965Y-52606994D01*
X99328968Y-52536725D01*
X99328966Y-52536724D01*
X99322738Y-52532885D01*
X99203498Y-52493335D01*
X99161389Y-52479368D01*
X99161387Y-52479368D01*
X99154861Y-52477203D01*
X99148025Y-52476503D01*
X99148022Y-52476502D01*
X99104969Y-52472091D01*
X99050400Y-52466500D01*
X97749600Y-52466500D01*
X97746354Y-52466837D01*
X97746350Y-52466837D01*
X97650692Y-52476762D01*
X97650688Y-52476763D01*
X97643834Y-52477474D01*
X97637298Y-52479655D01*
X97637296Y-52479655D01*
X97505194Y-52523728D01*
X97476054Y-52533450D01*
X97325652Y-52626522D01*
X97200695Y-52751697D01*
X97196855Y-52757927D01*
X97196854Y-52757928D01*
X97126954Y-52871327D01*
X97107885Y-52902262D01*
X97052203Y-53070139D01*
X97041500Y-53174600D01*
X97041500Y-54625400D01*
X89108500Y-54625400D01*
X89108500Y-44984500D01*
X89128502Y-44916379D01*
X89182158Y-44869886D01*
X89234500Y-44858500D01*
X172415500Y-44858500D01*
X172483621Y-44878502D01*
G37*
%TD.AperFunction*%
%TD*%
M02*
